<svg width="47" height="43" viewBox="0 0 47 43" fill="none" xmlns="http://www.w3.org/2000/svg"><path d="M16.579 12.585c2.533-5.573 8.372-9.64 10.976-10.977-3.8.774-12.75 3.082-16.465 6.966-4.643 4.855-7.598 15.62-6.543 17.309.844 1.35 4.714 4.362 6.544 5.699 1.547.985 6.627 2.702 14.564 1.689 7.937-1.014 16.816-6.474 20.264-9.077-.281-2.885-1.013-9.372-1.689-12.243-.675-2.87-6.754-6.684-9.71-8.232L33.887.131c-2.814 1.759-9.119 6.417-11.82 10.976-2.702 4.56-4.363 12.735-4.855 16.253l-4.433-2.322c.211-1.829 1.267-6.88 3.8-12.453z" fill="#9C9C9C"/><path d="M1.17 36.648c-2.87-2.702.21-7.318 2.11-9.288l4.433 5.7c2.252 1.406 8.655 4.01 16.254 3.165 7.599-.844 18.504-6.965 23.008-9.92.28-.07-1.647 1.73-11.61 9.498-9.963 7.768-18.083 7.6-20.897 6.544-3.237-.774-10.428-2.998-13.298-5.7z" fill="#9C9C9C"/></svg>