<svg width="55" height="44" viewBox="0 0 55 44" fill="none" xmlns="http://www.w3.org/2000/svg"><path fill-rule="evenodd" clip-rule="evenodd" d="M47.13 37.257C40.709 41.909 33.477 44 24.673 44 13.995 44 .128 38.75 0 22.875-.085 6.956 13.995 0 25.48 0c9.868 0 18.248 3.073 21.65 5.42v8.834c-2.85-1.792-8.081-3.84-12.845-3.798-5.487.043-11.442 3.67-11.442 11.48 0 7.767 6.55 10.797 12.207 10.84 4.211 0 9.103-1.963 12.08-4.524v9.005zm4.382-17.156H55v-4.353H40.027V20.1H43.6v6.53h7.912V20.1zM9.742 35.294V17.967c0-1.664 1.233-3.457 3.317-3.414 2.084.043 3.275 1.707 3.233 3.414-.085 1.75-1.957 3.286-3.233 3.286-.936 0-1.531-.128-1.786-.384v4.652c.425.299.382.384 1.786.384 4.211 0 7.827-4.012 7.827-7.938 0-3.883-3.063-7.938-7.827-7.938-4.764 0-7.827 4.652-7.827 7.938v12.419c0 2.603 2.34 4.054 4.51 4.908z" fill="#9C9C9C"/></svg>