<svg width="28" height="28" viewBox="0 0 28 28" fill="none" xmlns="http://www.w3.org/2000/svg"><path d="M25.738 18.958l-5.543-5.543 5.542-5.543a1.75 1.75 0 00.001-2.475v-.002l-3.133-3.132a1.749 1.749 0 00-2.476-.001l-5.543 5.543-5.543-5.543a1.753 1.753 0 00-2.474 0L2.262 6.568a1.75 1.75 0 000 2.475l5.542 5.542-6.054 6.056v5.609h5.61l6.055-6.055 5.543 5.545a1.757 1.757 0 002.476 0l4.305-4.307a1.75 1.75 0 000-2.475zM21.361 3.497l3.142 3.14-5.542 5.543-3.14-3.141 5.54-5.542zM7.002 24.5H3.5v-3.142l5.538-5.538 3.216 3.218L7 24.5zm13.194.003L3.5 7.805 7.807 3.5l3.314 3.314-1.97 1.971 1.238 1.237 1.97-1.97 3.613 3.614L14 13.633l1.24 1.237 1.97-1.97 3.613 3.614-1.97 1.97 1.237 1.238 1.97-1.97 2.442 2.442-4.307 4.308z" fill="#467C3F"/></svg>