<svg width="28" height="28" viewBox="0 0 28 28" fill="none" xmlns="http://www.w3.org/2000/svg"><path d="M5.25 4.594c0-.244.092-.478.256-.65a.854.854 0 01.619-.27h5.25c.232 0 .455.098.619.27a.943.943 0 01.256.65v5.512a.943.943 0 01-.256.65.854.854 0 01-.619.269h-5.25a.854.854 0 01-.619-.27.943.943 0 01-.256-.649V4.594zm11.375-.92a.854.854 0 00-.619.27.943.943 0 00-.256.65v5.512c0 .244.092.477.256.65a.856.856 0 00.619.269h5.25a.854.854 0 00.619-.27.943.943 0 00.256-.649V4.594a.943.943 0 00-.256-.65.854.854 0 00-.619-.27h-5.25zm.875 5.513V5.512H21v3.675h-3.5zM7 22.05c.464 0 .91-.194 1.237-.538.329-.345.513-.812.513-1.3 0-.487-.184-.954-.513-1.299A1.709 1.709 0 007 18.375c-.464 0-.91.193-1.237.538a1.885 1.885 0 00-.513 1.3c0 .487.184.954.513 1.299A1.71 1.71 0 007 22.05zm8.75-1.838c0 .488-.184.955-.513 1.3A1.709 1.709 0 0114 22.05c-.464 0-.91-.194-1.237-.538a1.885 1.885 0 01-.513-1.3c0-.487.184-.954.513-1.299A1.709 1.709 0 0114 18.375c.464 0 .91.193 1.237.538.329.345.513.812.513 1.3zM21 22.05c.464 0 .91-.194 1.237-.538.329-.345.513-.812.513-1.3 0-.487-.184-.954-.513-1.299A1.709 1.709 0 0021 18.375c-.464 0-.91.193-1.237.538a1.885 1.885 0 00-.513 1.3c0 .487.184.954.513 1.299A1.71 1.71 0 0021 22.05zM0 20.212c0-1.949.737-3.819 2.05-5.197 1.313-1.378 3.093-2.153 4.95-2.153h14c1.857 0 3.637.775 4.95 2.153 1.313 1.378 2.05 3.248 2.05 5.197 0 1.95-.738 3.82-2.05 5.198-1.313 1.378-3.093 2.152-4.95 2.152H7c-1.857 0-3.637-.774-4.95-2.152C.737 24.03 0 22.162 0 20.212zM7 14.7c-1.392 0-2.728.58-3.712 1.614a5.655 5.655 0 00-1.538 3.898c0 1.462.553 2.864 1.538 3.898A5.126 5.126 0 007 25.725h14a5.125 5.125 0 003.712-1.615 5.655 5.655 0 001.538-3.898 5.655 5.655 0 00-1.538-3.898A5.126 5.126 0 0021 14.7H7z" fill="#467C3F"/></svg>