<svg width="28" height="28" viewBox="0 0 28 28" fill="none" xmlns="http://www.w3.org/2000/svg"><g clip-path="url(#clip0_1633_2292)"><path fill-rule="evenodd" clip-rule="evenodd" d="M8.743 6.19A3.38 3.38 0 1012.498.57a3.38 3.38 0 00-3.755 5.62zm1.073-4.015a1.448 1.448 0 111.61 2.409 1.448 1.448 0 01-1.61-2.409zM26.3 14.517a.965.965 0 011.217.931v11.587a.965.965 0 01-.965.965h-9.655a.966.966 0 01-.742-1.583l4.594-5.513-7.802-1.418L14 22.014V28h-1.93v-5.6l-1.386-3.326-3.442-.626V28H5.31v-9.902l-4.828-.879v-6.18L5.32 8.138c.45-.27.966-.413 1.49-.413h3.92a2.91 2.91 0 012.712 1.879l3.478 8.643 5.248.954 3.642-4.37a.966.966 0 01.49-.313zM2.414 12.133v3.476l2.897.526v-5.74l-2.897 1.738zm4.828-2.478v6.831l7.433 1.352-3.032-7.536a.979.979 0 00-.912-.647H7.24zM18.958 26.07h6.628v-7.954l-6.628 7.954z" fill="#467C3F"/></g><defs><clipPath id="clip0_1633_2292"><path fill="#fff" d="M0 0h28v28H0z"/></clipPath></defs></svg>