<svg width="28" height="28" viewBox="0 0 28 28" fill="none" xmlns="http://www.w3.org/2000/svg"><path d="M24.995 10.922a5.975 5.975 0 012.354 2.464 5.924 5.924 0 01-.706 6.473 6 6 0 01-2.831 1.905 7.938 7.938 0 01-2.801 4.484A8.032 8.032 0 0116 28h-3c-.264 0-.518-.105-.706-.29a.99.99 0 010-1.405c.188-.186.442-.29.707-.29h2.998a6.036 6.036 0 003.465-1.093 5.964 5.964 0 002.193-2.88h-.66a.999.999 0 01-.706-.29.99.99 0 01-.293-.702v-9.93a.99.99 0 01.293-.701.997.997 0 01.706-.291h1c.324 0 .642.025.953.075a8.916 8.916 0 00-2.918-5.728A9.03 9.03 0 0014 2.17a9.03 9.03 0 00-6.03 2.305 8.916 8.916 0 00-2.919 5.728c.316-.05.635-.075.954-.075h1a1 1 0 01.706.29.99.99 0 01.293.703v9.929a.99.99 0 01-.293.702 1 1 0 01-.706.29h-1a6.024 6.024 0 01-3.655-1.229 5.955 5.955 0 01-2.145-3.186 5.92 5.92 0 01.254-3.825 5.97 5.97 0 012.547-2.88c0-2.897 1.159-5.675 3.22-7.723A11.032 11.032 0 0114 0a11.03 11.03 0 017.775 3.199 10.886 10.886 0 013.22 7.723zm-18.99 1.191c-1.06 0-2.077.419-2.827 1.164a3.959 3.959 0 00-1.171 2.808c0 1.053.421 2.064 1.17 2.808a4.012 4.012 0 002.828 1.164v-7.943zm19.991 3.972a3.959 3.959 0 00-1.171-2.808 4.012 4.012 0 00-2.827-1.163v7.943c1.06 0 2.077-.419 2.827-1.163a3.959 3.959 0 001.171-2.809z" fill="#467C3F"/></svg>