<svg width="28" height="28" viewBox="0 0 28 28" fill="none" xmlns="http://www.w3.org/2000/svg"><path d="M7 2.333c0 .6.572 1.167 1.166 1.167h11.667C20.432 3.5 21 2.93 21 2.333h2.333a3.5 3.5 0 01-3.5 3.5h-4.666V8.24a9.336 9.336 0 018.166 9.261v7a1.167 1.167 0 01-1.166 1.167H5.832A1.167 1.167 0 014.666 24.5v-7a9.334 9.334 0 018.167-9.26V5.832H8.166a3.495 3.495 0 01-3.5-3.5H7zm7 8.167c-3.778 0-7 3.22-7 7v5.834h14V17.5c0-3.777-3.223-7-7-7zm0 2.334c.866 0 1.675.235 2.37.646l-3.196 3.195a1.167 1.167 0 001.54 1.747l.11-.097 3.197-3.195A4.665 4.665 0 0114 22.166 4.665 4.665 0 019.333 17.5 4.665 4.665 0 0114 12.834z" fill="#467C3F"/></svg>