<svg width="32" height="32" viewBox="0 0 32 32" fill="none" xmlns="http://www.w3.org/2000/svg"><path d="M26.667 11.92a1.748 1.748 0 00-.08-.36v-.12a1.426 1.426 0 00-.254-.373l-8-8a1.428 1.428 0 00-.373-.253h-.12a1.173 1.173 0 00-.44-.147H9.333a4 4 0 00-4 4v18.667a4 4 0 004 4h13.334a4 4 0 004-4V11.92zm-8-4.706l3.453 3.453H20a1.334 1.334 0 01-1.333-1.333v-2.12zM24 25.334a1.334 1.334 0 01-1.333 1.333H9.333A1.334 1.334 0 018 25.334V6.667a1.333 1.333 0 011.333-1.333H16v4a4 4 0 004 4h4v12z" fill="#467C3F"/></svg>