<svg width="32" height="32" viewBox="0 0 32 32" fill="none" xmlns="http://www.w3.org/2000/svg"><path d="M25.333 2.667H6.667a4 4 0 00-4 4V20a4 4 0 004 4h3.52l-.774 1.334a2.666 2.666 0 002.334 4h8.613a2.667 2.667 0 002.307-4L21.88 24h3.453a4 4 0 004-4V6.667a4 4 0 00-4-4zm-13.64 24L13.333 24h5.334l1.6 2.667h-8.574zM26.667 20a1.333 1.333 0 01-1.334 1.334H6.667A1.333 1.333 0 015.333 20v-1.333h21.334V20zm0-4H5.333V6.667a1.333 1.333 0 011.334-1.333h18.666a1.333 1.333 0 011.334 1.333V16z" fill="#467C3F"/></svg>