<svg width="32" height="32" viewBox="0 0 32 32" fill="none" xmlns="http://www.w3.org/2000/svg"><path d="M16 8C8.4 8 2.667 10.867 2.667 14.667c0 3.266 4.253 5.84 10.28 6.506l-.56.547a1.335 1.335 0 000 1.893 1.335 1.335 0 001.893 0l2.667-2.666c.121-.127.216-.277.28-.44a1.333 1.333 0 000-1.014 1.333 1.333 0 00-.28-.44l-2.667-2.666a1.339 1.339 0 10-1.893 1.893l.16.147C8 17.787 5.333 16 5.333 14.667c0-1.627 4.16-4 10.667-4s10.667 2.373 10.667 4c0 1.106-1.934 2.666-5.614 3.466a1.334 1.334 0 10.534 2.614c4.866-1.067 7.746-3.334 7.746-6.08C29.333 10.867 23.6 8 16 8z" fill="#467C3F"/></svg>