<svg width="32" height="32" viewBox="0 0 32 32" fill="none" xmlns="http://www.w3.org/2000/svg"><path d="M26.173 4.867a1.333 1.333 0 00-1.12-.267 10.667 10.667 0 01-8.293-1.693 1.333 1.333 0 00-1.52 0A10.666 10.666 0 016.947 4.6a1.333 1.333 0 00-1.614 1.307v9.933a12 12 0 005.027 9.773l4.867 3.467a1.333 1.333 0 001.546 0l4.867-3.467a12 12 0 005.027-9.773V5.907a1.334 1.334 0 00-.494-1.04zM24 15.84a9.332 9.332 0 01-3.907 7.6L16 26.36l-4.093-2.92A9.333 9.333 0 018 15.84v-8.4c2.795.24 5.595-.41 8-1.853a13.333 13.333 0 008 1.853v8.4z" fill="#467C3F"/></svg>