<svg width="32" height="32" viewBox="0 0 32 32" fill="none" xmlns="http://www.w3.org/2000/svg"><path d="M11.29 11.193l-.003.002-.003.003.006-.005zm13.273-.25a1.648 1.648 0 00-.307-.232 1.334 1.334 0 00-1.866.548 7.708 7.708 0 01-1.864 2.37 11.618 11.618 0 00-5.69-12.122 1.333 1.333 0 00-1.988 1.074 9.355 9.355 0 01-3.295 6.59l-.307.25a11.351 11.351 0 00-2.65 2.482 11.978 11.978 0 004.874 18.545 1.332 1.332 0 001.77-1.651 9.303 9.303 0 01-.253-3.442 12.006 12.006 0 005.75 5.356c.3.134.64.152.954.05a11.993 11.993 0 004.872-19.817zm-5.207 17.109a9.287 9.287 0 01-4.769-5.87 11.875 11.875 0 01-.24-1.285 1.333 1.333 0 00-2.476-.483 11.944 11.944 0 00-1.607 6.29 9.313 9.313 0 01-1.567-13.157 8.74 8.74 0 012.082-1.944.993.993 0 00.1-.073s.395-.327.408-.335a11.957 11.957 0 003.865-6.177 8.981 8.981 0 011.849 10.784 1.334 1.334 0 001.578 1.89c2.042-.64 3.84-1.89 5.15-3.583a9.334 9.334 0 01-4.373 13.943z" fill="#467C3F"/></svg>