<svg width="32" height="32" viewBox="0 0 32 32" fill="none" xmlns="http://www.w3.org/2000/svg"><path d="M8.534 20.338V9.422h13.155L23.093 8H7.111v12.338h1.423z" fill="#467C3F"/><path d="M5.333 6.222h21.334v14.223h1.778V5.778a1.333 1.333 0 00-1.334-1.334H4.89a1.333 1.333 0 00-1.333 1.334v14.667h1.777V6.222zm-4.444 16v3.022a2.311 2.311 0 002.31 2.311h25.547a2.311 2.311 0 002.312-2.31v-3.023H.888zm28.444 3.022a.533.533 0 01-.533.534H3.164a.533.533 0 01-.533-.534v-1.662h8.844a1.459 1.459 0 001.334.89h6.338a1.459 1.459 0 001.333-.89h8.853v1.662z" fill="#467C3F"/></svg>