<svg width="32" height="32" viewBox="0 0 32 32" fill="none" xmlns="http://www.w3.org/2000/svg"><g clip-path="url(#clip0_1628_2339)"><path d="M20.5 10A3.5 3.5 0 1017 6.5a3.512 3.512 0 003.5 3.5zm0-5a1.5 1.5 0 110 3 1.5 1.5 0 010-3zm11.363 19.488l-7.138-12.05a2.012 2.012 0 00-3.45 0l-3.262 5.512-5.288-8.987a2 2 0 00-3.45 0L.138 24.488a.988.988 0 000 1.012A.975.975 0 001 26h30a1.013 1.013 0 00.875-.5 1.038 1.038 0 00-.012-1.012zM11 9.975L13.963 15H8.038L11 9.975zM2.75 24l4.113-7h8.275l2.012 3.425L19.25 24H2.75zm18.825 0l-2.4-4.075L23 13.462 29.25 24h-7.675z" fill="#467C3F"/></g><defs><clipPath id="clip0_1628_2339"><path fill="#fff" d="M0 0h32v32H0z"/></clipPath></defs></svg>