<svg width="32" height="32" viewBox="0 0 32 32" fill="none" xmlns="http://www.w3.org/2000/svg"><path d="M27.75 24.75H6.25V5.25A.25.25 0 006 5H4.25a.25.25 0 00-.25.25v21.5c0 .137.112.25.25.25h23.5a.25.25 0 00.25-.25V25a.25.25 0 00-.25-.25zM9 22.25h1.75A.25.25 0 0011 22v-4.5a.25.25 0 00-.25-.25H9a.25.25 0 00-.25.25V22c0 .137.113.25.25.25zm4.75 0h1.75a.25.25 0 00.25-.25V12a.25.25 0 00-.25-.25h-1.75a.25.25 0 00-.25.25v10c0 .137.113.25.25.25zm4.75 0h1.75a.25.25 0 00.25-.25v-7.563a.25.25 0 00-.25-.25H18.5a.25.25 0 00-.25.25V22c0 .137.113.25.25.25zm4.75 0H25a.25.25 0 00.25-.25V9.5a.25.25 0 00-.25-.25h-1.75a.25.25 0 00-.25.25V22c0 .137.113.25.25.25z" fill="#467C3F"/></svg>