<svg width="32" height="32" viewBox="0 0 32 32" fill="none" xmlns="http://www.w3.org/2000/svg"><path fill-rule="evenodd" clip-rule="evenodd" d="M16.632 29.93a1.001 1.001 0 00.99-.15l5-4a1.001 1.001 0 00.38-.78v-7.59l3.78-3.77a10.921 10.921 0 003.22-7.78V4a2 2 0 00-2-2h-1.86a10.92 10.92 0 00-7.78 3.22L14.592 9h-7.59a1 1 0 00-.78.39l-4 5a1 1 0 00.64 1.62l7 1 .28-2-5.27-.75L7.482 11h7.52a1 1 0 00.71-.29l4.07-4.07A8.94 8.94 0 0126.142 4h1.86v1.86a8.94 8.94 0 01-2.64 6.36l-4.07 4.07a1 1 0 00-.29.71v7.52l-3.24 2.61-.75-5.27-2 .28 1 7a1 1 0 00.62.79zm-1.345-14.635L7.29 23.292l1.414 1.414 7.997-7.997-1.414-1.414z" fill="#467C3F"/></svg>