<svg width="32" height="32" viewBox="0 0 32 32" fill="none" xmlns="http://www.w3.org/2000/svg"><path d="M4 12a1.334 1.334 0 001.333-1.333v-4a1.333 1.333 0 011.333-1.334h4a1.333 1.333 0 100-2.666h-4a4 4 0 00-4 4v4A1.333 1.333 0 004 12zm6.666 14.667h-4a1.333 1.333 0 01-1.333-1.334v-4a1.333 1.333 0 00-2.667 0v4a4 4 0 004 4h4a1.333 1.333 0 000-2.666zm5.334-16a5.333 5.333 0 100 10.666 5.333 5.333 0 000-10.666zm0 8a2.666 2.666 0 110-5.332 2.666 2.666 0 010 5.332zm9.333-16h-4a1.333 1.333 0 100 2.666h4a1.333 1.333 0 011.334 1.334v4a1.334 1.334 0 002.666 0v-4a4 4 0 00-4-4zM28 20a1.334 1.334 0 00-1.334 1.333v4a1.333 1.333 0 01-1.333 1.334h-4a1.333 1.333 0 100 2.666h4a4 4 0 004-4v-4A1.333 1.333 0 0028 20z" fill="#467C3F"/></svg>