<svg width="42" height="32" viewBox="0 0 42 32" xmlns="http://www.w3.org/2000/svg">
<path d="M0.71504 12.0813C0.789973 12.5023 0.893158 12.9199 0.941578 13.3437C1.04945 14.288 1.23988 15.2403 1.19554 16.1796C1.13888 17.3804 0.884245 18.5715 0.71504 19.7667C0.777963 19.7405 0.84081 19.7139 0.90396 19.6877C1.1521 20.0653 1.40017 20.4428 1.66893 20.8521C1.56038 21.2013 1.43257 21.6124 1.28339 22.0917C1.4671 21.9447 1.60578 21.8337 1.6468 21.801C1.74236 22.3588 1.84592 22.9626 1.96519 23.6591C2.15932 23.4992 2.21976 23.4493 2.26349 23.4129C2.31433 23.6832 2.36554 23.9543 2.41668 24.2256C2.4503 24.2238 2.48384 24.2219 2.51745 24.2201C2.57018 24.0074 2.6229 23.7944 2.67555 23.5818C2.72578 23.5836 2.77602 23.5856 2.82625 23.5874C3.59523 25.9133 4.53303 28.0845 4.71946 30.4299C4.71946 30.4299 4.58447 30.8525 4.88496 31.0438C5.18545 31.2349 8.27261 31.2623 8.54568 31.0438C8.81875 30.8253 7.89575 29.7491 7.20994 29.4538C6.99481 28.5622 6.74274 27.7846 6.60156 26.8808C6.45826 25.9635 6.39413 25.0294 6.36241 24.1005C6.33038 23.1654 6.66932 22.3404 7.18554 21.5505C7.57539 20.9538 7.85677 20.2752 8.11262 19.6049C8.38199 18.899 8.52649 18.1455 8.79556 17.4398C9.0227 16.844 9.31269 16.8336 9.81321 17.2437C10.3235 17.6623 10.8207 18.1612 11.4143 18.3972C12.1432 18.6873 12.9642 18.7514 13.7489 18.8941C14.2078 18.9776 14.675 19.0882 15.1355 19.0759C16.5405 19.0383 17.9434 18.9293 19.3484 18.8839C19.9802 18.8635 20.413 19.2007 20.527 19.823C20.6986 20.7598 20.7421 21.7221 20.9446 22.651C21.1468 23.578 21.111 24.5387 21.5804 25.4386C22.0858 26.4076 22.2825 27.5079 21.9401 28.6075C21.8608 28.862 21.659 29.119 21.4411 29.27C21.4411 29.27 21.1856 30.5512 21.4772 30.8427C21.7687 31.1339 23.2986 31.0248 24.1363 30.9521C24.1363 30.9521 26.249 31.3892 27.0867 31.1343C27.9247 30.8794 27.4873 30.3693 27.4146 30.0781C27.3416 29.7869 26.773 29.716 26.773 29.716C26.662 29.5003 26.2752 29.4044 26.2315 29.1758C26.0281 28.1088 26.0931 27.0538 26.3698 25.9967C26.7138 24.6838 26.9628 23.3453 27.3274 22.0385C27.4538 21.5852 27.7493 21.1473 28.0631 20.7851C28.6483 20.1099 29.6795 19.9563 30.1209 19.0892C30.1273 19.0766 30.152 19.0722 30.1689 19.0664C31.0218 18.7653 31.3869 18.0782 31.6264 17.2707C31.7515 16.8489 31.9331 16.4429 32.1014 16.0349C32.5988 14.8278 33.5505 13.9756 34.4664 13.112C34.7432 12.8512 35.2236 12.6023 35.5655 12.6528C36.6177 12.8082 37.6477 13.0735 38.6854 12.6137C38.7335 12.5925 38.7945 12.5557 38.8358 12.569C39.5788 12.8088 40.2211 12.5545 40.8366 12.1687C41.0153 12.0565 41.338 11.9298 41.3355 11.8155C41.3244 11.3055 41.3201 10.7538 41.1247 10.2986C40.8374 9.63046 40.3508 9.05071 40.0229 8.3964C39.7976 7.94702 39.7914 7.43638 39.9775 6.91887C40.1347 6.97311 40.2364 7.00703 40.3369 7.04336C41.0297 7.29271 41.5262 6.89387 41.4569 6.17671C41.4384 5.9853 41.5027 5.74184 41.6178 5.58865C42.2434 4.75683 42.1136 4.22919 41.1327 3.84335C40.9403 3.76781 40.7089 3.75519 40.4993 3.7697C40.1066 3.79681 39.7172 3.86495 39.3975 3.90657C39.1867 3.60978 39.0708 3.28127 38.8458 3.1666C38.4689 2.97489 38.2359 2.78045 38.3536 2.39611C37.7011 2.15386 37.0924 1.92763 36.4227 1.67896C36.5746 1.59911 36.6526 1.55847 36.7306 1.51746C36.7121 1.46692 36.6936 1.41639 36.6752 1.36578C36.1096 1.53778 35.5441 1.71008 34.9607 1.88759C34.9736 2.23522 34.9536 2.58994 34.4087 2.55361C34.3218 2.54772 34.2114 2.64516 34.1387 2.72062C33.8228 3.04793 33.5039 3.21986 33.0421 2.95049C32.904 2.87004 32.6427 2.93198 32.4651 3.00012C31.9255 3.20724 31.461 3.54134 30.7985 3.46059C30.3365 3.40447 29.8388 3.67542 29.3524 3.7768C28.2328 4.01044 27.1334 4.05047 26.1058 3.41285C25.9576 3.3207 25.7641 3.26216 25.5899 3.25785C24.861 3.24055 24.1307 3.27077 23.402 3.24274C22.912 3.22393 22.4247 3.13827 21.9366 3.08003C21.6919 3.05073 21.4491 3.00359 21.2037 2.98539C20.6191 2.94225 20.0036 3.01009 19.4578 2.84488C19.0057 2.70801 18.5341 2.74533 18.2013 2.85319C17.4447 3.09854 16.7238 3.03962 16.0341 2.83159C13.829 2.16618 11.5634 1.84416 9.29207 1.56278C8.81256 1.50545 8.43411 1.32944 8.05559 1.09588C7.77232 0.920782 7.51345 0.700438 7.19574 0.935285C6.82931 0.840938 6.41075 0.710636 6.09885 0.839126C5.66398 1.01823 5.0877 0.780282 4.7715 1.2854C4.75858 1.30572 4.66975 1.2848 4.61801 1.274C4.01914 1.14951 3.53744 1.47463 3.11828 1.78531C2.63537 2.14344 2.16408 2.33138 1.598 2.20077C1.34714 2.51297 1.39828 3.04091 0.853123 3.06342C0.807498 3.06523 0.745255 3.16668 0.726446 3.23202C0.586248 3.71448 0.496206 4.2156 0.311894 4.6797C-0.0474402 5.58548 0.114966 6.53567 0.0141987 7.46207C-0.0160164 7.73884 0.00369895 8.02913 0.0499282 8.30499C0.262341 9.56519 0.490994 10.823 0.71504 12.0813ZM23.9945 26.0776C24.043 26.0752 24.0916 26.073 24.14 26.0705C24.2177 26.6315 24.3385 27.1908 24.3614 27.7539C24.3845 28.329 24.4948 28.9343 24.1582 29.559C23.7659 28.342 23.5908 27.2164 23.9945 26.0776Z"/>
</svg>
