<svg width="25" height="17" viewBox="0 0 25 16" xmlns="http://www.w3.org/2000/svg">
<path fill-rule="evenodd" clip-rule="evenodd" d="M19.5147 70.0601C19.4741 72.1748 18.7261 72.7603 18.7261 72.7603H-0.53596C-0.53596 72.7603 -1.19139 71.9821 -1.19139 70.0323V67.8462C-1.19139 67.8462 -1.18805 64.8636 2.03636 64.8636H2.15937H2.16489H4.86967H16.1889H16.3095C19.5376 64.8636 19.5403 67.6694 19.5403 68.0901C19.5403 69.3045 19.5302 69.2929 19.5147 70.0601ZM8.113 34.8803H8.20122H16.5244H18.5158H18.6046C20.9791 34.8803 20.9813 37.0747 20.9813 37.0747V38.6814C20.9813 39.6299 20.7694 40.1968 20.6262 40.4727H6.16497C6.00106 40.2127 5.77514 39.6787 5.75806 38.7009C5.74705 38.1343 5.73757 38.1444 5.73757 37.2526C5.73757 36.9443 5.74069 34.8803 8.113 34.8803ZM4.74269 16.9474C4.74269 16.9474 4.409 16.5508 4.409 15.5574V14.4462C4.409 14.4462 4.409 12.9241 6.05387 12.9241H6.11553H7.49479H13.2643H13.3229C14.969 12.9241 14.969 14.3565 14.969 14.5699C14.969 15.189 14.9656 15.1804 14.9583 15.5718C14.9376 16.6503 14.5535 16.9474 14.5535 16.9474H4.74269ZM-2.45802 26.6691C-2.86097 27.0113 -3.41478 27.0257 -3.68861 26.7051C-3.96275 26.3818 -3.85866 25.8396 -3.45658 25.4953C-3.05148 25.1525 -2.49983 25.1351 -2.22631 25.4568C-1.94758 25.7792 -2.05413 26.3214 -2.45802 26.6691ZM20.3334 6.25976C20.5816 5.96944 21.0802 5.98471 21.4483 6.29854C21.8131 6.60841 21.9105 7.09837 21.659 7.39296C21.4092 7.68328 20.908 7.67169 20.5432 7.35727C20.1771 7.0474 20.0813 6.55529 20.3334 6.25976ZM30.6327 52.2695C30.9099 51.9447 31.4616 51.9614 31.8707 52.3064C32.2736 52.6535 32.3783 53.1963 32.1012 53.5202C31.827 53.8444 31.2732 53.8273 30.8675 53.4827C30.4624 53.1353 30.3589 52.5937 30.6327 52.2695ZM25.3923 72.7603C25.3923 72.7603 24.7075 71.7114 24.7075 70.0048V60.6797C24.6574 60.6797 20.1967 60.676 19.5651 60.676C17.7288 60.676 16.3309 61.8886 16.3309 61.8886C16.3309 61.8886 16.3208 54.4977 16.3208 51.0245C16.3208 47.5504 18.0163 43.3873 24.0692 43.3873H26.7041C28.6936 43.3873 29.3719 44.1309 29.3719 44.1309H24.0692C18.7905 44.1309 17.1145 47.8157 17.1145 51.0245C17.1145 54.2285 17.1087 60.4294 17.1087 60.4294C17.1087 60.4294 17.9364 59.8469 19.2967 59.8469H29.0914C32.5374 59.8469 32.7826 62.512 32.7826 63.165V63.5188C32.7826 68.668 29.4586 68.8915 29.4586 68.8915L30.9231 70.9335C32.5374 70.1373 34.2622 68.8011 35.077 66.6644C35.5923 65.3093 36.0088 63.5878 36.0088 61.3513V59.8469V59.7617V50.1597C36.0088 43.7002 32.7795 40.4727 26.3203 40.4727H25.196C25.0366 40.1669 24.7783 39.5496 24.7783 38.7201V31.1925V24.0675C24.7783 19.5857 22.2289 17.2203 17.947 16.9691H17.9412C17.8506 16.7969 17.6027 16.258 17.6027 15.5449V11.1672C17.5783 11.1672 15.6864 11.1653 15.3634 11.1653C14.0507 11.1653 12.9618 11.8712 12.9618 11.8712C12.9618 11.8712 12.9569 7.64176 12.9569 5.87174C12.9569 3.98693 13.9582 1.66466 17.051 1.66466H18.618C19.6319 1.66466 19.9793 2.36099 19.9793 2.36099H17.2791C14.5868 2.36099 13.7354 4.23941 13.7354 5.87174C13.7354 7.50715 13.7305 10.6833 13.7305 10.6833C13.7305 10.6833 14.3111 10.3667 15.4849 10.3667H19.8365C21.5927 10.3667 21.7164 11.7283 21.7164 12.0601V12.2409C21.7164 14.8632 20.0221 14.9765 20.0221 14.9765L20.7694 16.015C21.5927 15.6096 22.4698 14.9328 22.8862 13.8405C23.15 13.1521 23.3585 12.2735 23.3585 11.1351V10.3667V10.3255V5.43306C23.3585 2.14396 21.7136 0.5 18.4239 0.5H8.15237H7.04635C3.75691 0.5 1.77718 2.14396 1.77718 5.43306V10.3667H1.77624V15.5858C1.77624 16.4119 1.40534 16.9474 1.40534 16.9474H0.752956C-3.99421 16.9474 -6.36838 19.3231 -6.36838 24.0675V31.1278V31.1925V32.2979C-6.36838 33.9437 -6.06341 35.2054 -5.68271 36.2034C-5.08467 37.7737 -3.82047 38.7537 -2.63262 39.3417L-1.55348 37.8382C-1.55348 37.8382 -3.99421 37.6758 -3.99421 33.8918V33.6311C-3.99421 33.1533 -3.82047 31.1925 -1.28329 31.1925H5.85361C6.92636 31.1925 7.5244 31.4828 7.5244 31.4828C7.5244 31.4828 7.52222 27.0617 7.52222 24.7022C7.52222 22.3463 6.28917 19.6372 2.40873 19.6372H-1.4891C-1.4891 19.6372 -0.989352 18.8847 0.472331 18.8847H2.5232C6.74954 18.8847 8.3416 21.9845 8.3416 24.7022C8.3416 27.258 8.33212 32.9051 8.33212 32.9051C8.33212 32.9051 7.37383 32.0381 5.93933 32.0381C5.47774 32.0381 1.97585 32.0381 1.9386 32.0412V38.6604C1.9386 39.8293 1.50572 40.5739 1.44801 40.667C-3.47192 41.4396 -6.35897 44.5996 -6.35897 50.1597V59.8469H-6.36115V70.0855C-6.36115 71.7114 -7.09258 72.7604 -7.09258 72.7604H-12.1646V74.9471H38.8814V72.7604H25.3922L25.3923 72.7603Z"/>
</svg>
