<svg width="38" height="24" viewBox="0 0 38 24" xmlns="http://www.w3.org/2000/svg">
<path fill-rule="evenodd" clip-rule="evenodd" d="M19.3036 8.39651H35.8504C37.1675 9.67193 37.9285 11.4356 37.9285 13.3034C37.9285 17.0713 34.8631 20.1366 31.0953 20.1366H0V0H15.7895V4.88234C15.7895 6.82003 17.3659 8.39651 19.3036 8.39651ZM4.14843 8.63586H11.6304V2.2166H4.14843V8.63586ZM18.1 13.0855H20.3224V10.8631H18.1V13.0855ZM22.2238 13.0855H24.4461V10.8631H22.2238V13.0855ZM26.3475 13.0855H28.5699V10.8631H26.3475V13.0855ZM6.37081 4.43865H9.40806V6.41315H6.37081V4.43865ZM26.0367 1.60133C24.4958 0.553773 22.6965 0.000105226 20.8333 0.000105226H18.0118V4.88237C18.0118 5.59464 18.5914 6.17416 19.3036 6.17416H32.7629L26.0367 1.60133ZM0 21.7776H31.4837V24H0V21.7776Z"/>
</svg>
