<svg width="42" height="29" viewBox="0 0 42 29" xmlns="http://www.w3.org/2000/svg">
<path d="M1.44783 19.3222V1.7664C1.44783 0.790867 2.23863 0 3.21424 0H20.761C21.7365 0 22.5273 0.790867 22.5273 1.7664V19.3222C22.5273 19.6474 22.2637 19.911 21.9385 19.911H2.03663C1.71139 19.911 1.44783 19.6474 1.44783 19.3222ZM15.6174 25.3364C15.6174 27.3597 13.977 29 11.9538 29C9.93047 29 8.29014 27.3597 8.29014 25.3364C8.29014 23.313 9.93047 21.6728 11.9538 21.6728C13.977 21.6728 15.6174 23.313 15.6174 25.3364ZM13.7855 25.3364C13.7855 24.3247 12.9654 23.5046 11.9537 23.5046C10.942 23.5046 10.1218 24.3247 10.1218 25.3364C10.1218 26.3481 10.942 27.1683 11.9537 27.1683C12.9654 27.1683 13.7855 26.3481 13.7855 25.3364ZM8.79831 21.6727H0.588801C0.263622 21.6727 0 21.9363 0 22.2615V24.0479C0 24.3731 0.263622 24.6367 0.588801 24.6367H7.16911C7.3409 23.4579 7.93591 22.4166 8.79831 21.6727ZM34.7859 25.3364C34.7859 27.3597 33.1455 29 31.1223 29C29.0989 29 27.4587 27.3597 27.4587 25.3364C27.4587 23.313 29.0989 21.6728 31.1223 21.6728C33.1455 21.6727 34.7859 23.313 34.7859 25.3364ZM32.9541 25.3364C32.9541 24.3247 32.1339 23.5046 31.1223 23.5046C30.1105 23.5046 29.2905 24.3247 29.2905 25.3364C29.2905 26.3481 30.1106 27.1683 31.1223 27.1683C32.1339 27.1683 32.9541 26.3481 32.9541 25.3364ZM41.2626 22.2615V24.0479C41.2626 24.3731 40.999 24.6367 40.6738 24.6367H35.9068C35.5658 22.2983 33.5533 20.4951 31.1224 20.4951C28.691 20.4951 26.6784 22.2983 26.3375 24.6367H16.7384C16.5665 23.4579 15.9716 22.4166 15.1092 21.6727H24.2108V4.83116C24.2108 4.18081 24.7381 3.65356 25.3884 3.65356H30.9471C32.5122 3.65356 33.9751 4.43101 34.8509 5.72815L38.4344 11.0357C38.96 11.8143 39.2409 12.7321 39.2409 13.6715V21.6727H40.6738C40.999 21.6727 41.2626 21.9363 41.2626 22.2615ZM35.2895 11.1717L32.424 7.0998C32.3137 6.94311 32.1341 6.84986 31.9425 6.84986H27.4727C27.1476 6.84986 26.8839 7.11349 26.8839 7.43866V11.5105C26.8839 11.8358 27.1475 12.0993 27.4727 12.0993H34.8081C35.2851 12.0993 35.5641 11.5618 35.2895 11.1717Z"/>
</svg>
