<svg width="839" height="214" viewBox="0 0 839 214" fill="none" xmlns="http://www.w3.org/2000/svg">
	<rect width="839" height="162" fill="#2F322F"/>
	<path fill-rule="evenodd" clip-rule="evenodd" d="M0 111H118V174H721V111H839V174V214H721H118H0V174V111Z" fill="#D4DBBB"/>
	<mask id="path-3-inside-1_2534_5845" fill="white">
	<path fill-rule="evenodd" clip-rule="evenodd" d="M116 78H147V111H692V78H723V175H707H692H147H116V111V78Z"/>
	</mask>
	<path fill-rule="evenodd" clip-rule="evenodd" d="M116 78H147V111H692V78H723V175H707H692H147H116V111V78Z" fill="#F2802C"/>
	<path d="M147 78H148V77H147V78ZM116 78V77H115V78H116ZM147 111H146V112H147V111ZM692 111V112H693V111H692ZM692 78V77H691V78H692ZM723 78H724V77H723V78ZM723 175V176H724V175H723ZM116 175H115V176H116V175ZM147 77H116V79H147V77ZM148 111V78H146V111H148ZM692 110H147V112H692V110ZM693 111V78H691V111H693ZM692 79H723V77H692V79ZM722 78V175H724V78H722ZM723 174H707V176H723V174ZM707 174H692V176H707V174ZM147 176H692V174H147V176ZM116 176H147V174H116V176ZM115 111V175H117V111H115ZM115 78V111H117V78H115Z" fill="#252924" mask="url(#path-3-inside-1_2534_5845)"/>
	<rect x="157.5" y="78.5" width="523" height="10" rx="1.5" stroke="#F0F0ED" stroke-width="3"/>
	<path d="M194 79V88" stroke="#F0F0ED" stroke-width="3"/>
	<path d="M232 79V88" stroke="#F0F0ED" stroke-width="3"/>
	<path d="M270 79V88" stroke="#F0F0ED" stroke-width="3"/>
	<path d="M308 79V88" stroke="#F0F0ED" stroke-width="3"/>
	<path d="M346 79V88" stroke="#F0F0ED" stroke-width="3"/>
	<path d="M384 79V88" stroke="#F0F0ED" stroke-width="3"/>
	<path d="M422 79V88" stroke="#F0F0ED" stroke-width="3"/>
	<path d="M460 79V88" stroke="#F0F0ED" stroke-width="3"/>
	<path d="M498 79V88" stroke="#F0F0ED" stroke-width="3"/>
	<path d="M536 79V88" stroke="#F0F0ED" stroke-width="3"/>
	<path d="M574 79V88" stroke="#F0F0ED" stroke-width="3"/>
	<path d="M612 79V88" stroke="#F0F0ED" stroke-width="3"/>
	<path d="M650 79V88" stroke="#F0F0ED" stroke-width="3"/>
	<rect x="164" y="90" width="511" height="4" fill="#F0F0ED"/>
	<mask id="path-20-outside-2_2534_5845" maskUnits="userSpaceOnUse" x="658" y="91" width="17" height="10" fill="black">
	<rect fill="white" x="658" y="91" width="17" height="10"/>
	<path d="M661 94H672V96C672 97.1046 671.105 98 670 98H663C661.895 98 661 97.1046 661 96V94Z"/>
	</mask>
	<path d="M661 94V91H658V94H661ZM672 94H675V91H672V94ZM661 97H672V91H661V97ZM669 94V96H675V94H669ZM670 95H663V101H670V95ZM664 96V94H658V96H664ZM663 95C663.552 95 664 95.4477 664 96H658C658 98.7614 660.239 101 663 101V95ZM669 96C669 95.4477 669.448 95 670 95V101C672.761 101 675 98.7614 675 96H669Z" fill="#F0F0ED" mask="url(#path-20-outside-2_2534_5845)"/>
	<mask id="path-22-outside-3_2534_5845" maskUnits="userSpaceOnUse" x="411" y="91" width="17" height="10" fill="black">
	<rect fill="white" x="411" y="91" width="17" height="10"/>
	<path d="M414 94H425V96C425 97.1046 424.105 98 423 98H416C414.895 98 414 97.1046 414 96V94Z"/>
	</mask>
	<path d="M414 94V91H411V94H414ZM425 94H428V91H425V94ZM414 97H425V91H414V97ZM422 94V96H428V94H422ZM423 95H416V101H423V95ZM417 96V94H411V96H417ZM416 95C416.552 95 417 95.4477 417 96H411C411 98.7614 413.239 101 416 101V95ZM422 96C422 95.4477 422.448 95 423 95V101C425.761 101 428 98.7614 428 96H422Z" fill="#F0F0ED" mask="url(#path-22-outside-3_2534_5845)"/>
	<mask id="path-24-outside-4_2534_5845" maskUnits="userSpaceOnUse" x="164" y="91" width="17" height="10" fill="black">
	<rect fill="white" x="164" y="91" width="17" height="10"/>
	<path d="M167 94H178V96C178 97.1046 177.105 98 176 98H169C167.895 98 167 97.1046 167 96V94Z"/>
	</mask>
	<path d="M167 94V91H164V94H167ZM178 94H181V91H178V94ZM167 97H178V91H167V97ZM175 94V96H181V94H175ZM176 95H169V101H176V95ZM170 96V94H164V96H170ZM169 95C169.552 95 170 95.4477 170 96H164C164 98.7614 166.239 101 169 101V95ZM175 96C175 95.4477 175.448 95 176 95V101C178.761 101 181 98.7614 181 96H175Z" fill="#F0F0ED" mask="url(#path-24-outside-4_2534_5845)"/>
	<mask id="path-26-outside-5_2534_5845" maskUnits="userSpaceOnUse" x="658" y="101" width="17" height="10" fill="black">
	<rect fill="white" x="658" y="101" width="17" height="10"/>
	<path d="M661 108H672V106C672 104.895 671.105 104 670 104H663C661.895 104 661 104.895 661 106V108Z"/>
	</mask>
	<path d="M661 108V111H658V108H661ZM672 108H675V111H672V108ZM661 105H672V111H661V105ZM669 108V106H675V108H669ZM670 107H663V101H670V107ZM664 106V108H658V106H664ZM663 107C663.552 107 664 106.552 664 106H658C658 103.239 660.239 101 663 101V107ZM669 106C669 106.552 669.448 107 670 107V101C672.761 101 675 103.239 675 106H669Z" fill="#F0F0ED" mask="url(#path-26-outside-5_2534_5845)"/>
	<mask id="path-28-outside-6_2534_5845" maskUnits="userSpaceOnUse" x="411" y="101" width="17" height="10" fill="black">
	<rect fill="white" x="411" y="101" width="17" height="10"/>
	<path d="M414 108H425V106C425 104.895 424.105 104 423 104H416C414.895 104 414 104.895 414 106V108Z"/>
	</mask>
	<path d="M414 108V111H411V108H414ZM425 108H428V111H425V108ZM414 105H425V111H414V105ZM422 108V106H428V108H422ZM423 107H416V101H423V107ZM417 106V108H411V106H417ZM416 107C416.552 107 417 106.552 417 106H411C411 103.239 413.239 101 416 101V107ZM422 106C422 106.552 422.448 107 423 107V101C425.761 101 428 103.239 428 106H422Z" fill="#F0F0ED" mask="url(#path-28-outside-6_2534_5845)"/>
	<mask id="path-30-outside-7_2534_5845" maskUnits="userSpaceOnUse" x="164" y="101" width="17" height="10" fill="black">
	<rect fill="white" x="164" y="101" width="17" height="10"/>
	<path d="M167 108H178V106C178 104.895 177.105 104 176 104H169C167.895 104 167 104.895 167 106V108Z"/>
	</mask>
	<path d="M167 108V111H164V108H167ZM178 108H181V111H178V108ZM167 105H178V111H167V105ZM175 108V106H181V108H175ZM176 107H169V101H176V107ZM170 106V108H164V106H170ZM169 107C169.552 107 170 106.552 170 106H164C164 103.239 166.239 101 169 101V107ZM175 106C175 106.552 175.448 107 176 107V101C178.761 101 181 103.239 181 106H175Z" fill="#F0F0ED" mask="url(#path-30-outside-7_2534_5845)"/>
	<rect y="111" width="117" height="6" fill="#252924"/>
	<path d="M94 137.5L115 113.5" stroke="#252924"/>
	<path d="M73 137L94 113" stroke="#252924"/>
	<path d="M52 136.5L73 112.5" stroke="#252924"/>
	<path d="M31 136L52 112" stroke="#252924"/>
	<path d="M10 135.5L31 111.5" stroke="#252924"/>
	<path d="M0.5 122L10 111" stroke="#252924"/>
	<rect width="117" height="6" transform="matrix(-1 0 0 1 839 111)" fill="#252924"/>
	<path d="M745 137.5L724 113.5" stroke="#252924"/>
	<path d="M766 137L745 113" stroke="#252924"/>
	<path d="M787 136.5L766 112.5" stroke="#252924"/>
	<path d="M808 136L787 112" stroke="#252924"/>
	<path d="M829 135.5L808 111.5" stroke="#252924"/>
	<path d="M838.5 122L829 111" stroke="#252924"/>
	<path fill-rule="evenodd" clip-rule="evenodd" d="M33.9679 154C35.0725 154 35.9679 153.328 35.9679 152.5C35.9679 151.672 35.0725 151 33.9679 151C32.8633 151 31.9679 151.672 31.9679 152.5C31.9679 153.328 32.8633 154 33.9679 154ZM69.9679 160C69.9679 161.657 69.0725 163 67.9679 163C66.8633 163 65.9679 161.657 65.9679 160C65.9679 158.343 66.8633 157 67.9679 157C69.0725 157 69.9679 158.343 69.9679 160ZM17.5737 191.961C15.9493 191.635 14.809 190.492 15.0266 189.409C15.2443 188.326 16.7375 187.713 18.3619 188.04C19.9863 188.366 21.1266 189.509 20.909 190.592C20.6913 191.675 19.1981 192.288 17.5737 191.961ZM81.9679 177C83.0725 177 83.9679 175.657 83.9679 174C83.9679 172.343 83.0725 171 81.9679 171C80.8633 171 79.9679 172.343 79.9679 174C79.9679 175.657 80.8633 177 81.9679 177ZM51.9679 174C51.9679 175.657 51.0725 177 49.9679 177C48.8633 177 47.9679 175.657 47.9679 174C47.9679 172.343 48.8633 171 49.9679 171C51.0725 171 51.9679 172.343 51.9679 174ZM17.9679 174C19.0725 174 19.9679 173.328 19.9679 172.5C19.9679 171.672 19.0725 171 17.9679 171C16.8633 171 15.9679 171.672 15.9679 172.5C15.9679 173.328 16.8633 174 17.9679 174ZM65.9679 192.5C65.9679 193.328 65.0725 194 63.9679 194C62.8633 194 61.9679 193.328 61.9679 192.5C61.9679 191.672 62.8633 191 63.9679 191C65.0725 191 65.9679 191.672 65.9679 192.5ZM111.968 182.5C111.968 183.328 111.072 184 109.968 184C108.863 184 107.968 183.328 107.968 182.5C107.968 181.672 108.863 181 109.968 181C111.072 181 111.968 181.672 111.968 182.5ZM747.968 155C749.073 155 749.968 154.328 749.968 153.5C749.968 152.672 749.073 152 747.968 152C746.863 152 745.968 152.672 745.968 153.5C745.968 154.328 746.863 155 747.968 155ZM783.968 161C783.968 162.657 783.073 164 781.968 164C780.863 164 779.968 162.657 779.968 161C779.968 159.343 780.863 158 781.968 158C783.073 158 783.968 159.343 783.968 161ZM731.574 192.961C729.949 192.635 728.809 191.492 729.027 190.409C729.244 189.326 730.738 188.713 732.362 189.04C733.986 189.366 735.127 190.509 734.909 191.592C734.691 192.675 733.198 193.288 731.574 192.961ZM795.968 178C797.073 178 797.968 176.657 797.968 175C797.968 173.343 797.073 172 795.968 172C794.863 172 793.968 173.343 793.968 175C793.968 176.657 794.863 178 795.968 178ZM765.968 175C765.968 176.657 765.073 178 763.968 178C762.863 178 761.968 176.657 761.968 175C761.968 173.343 762.863 172 763.968 172C765.073 172 765.968 173.343 765.968 175ZM731.968 175C733.073 175 733.968 174.328 733.968 173.5C733.968 172.672 733.073 172 731.968 172C730.863 172 729.968 172.672 729.968 173.5C729.968 174.328 730.863 175 731.968 175ZM779.968 193.5C779.968 194.328 779.073 195 777.968 195C776.863 195 775.968 194.328 775.968 193.5C775.968 192.672 776.863 192 777.968 192C779.073 192 779.968 192.672 779.968 193.5ZM825.968 183.5C825.968 184.328 825.073 185 823.968 185C822.863 185 821.968 184.328 821.968 183.5C821.968 182.672 822.863 182 823.968 182C825.073 182 825.968 182.672 825.968 183.5ZM196 184C197.105 184 198 183.328 198 182.5C198 181.672 197.105 181 196 181C194.896 181 194 181.672 194 182.5C194 183.328 194.896 184 196 184ZM169.968 196C171.072 196 171.968 194.657 171.968 193C171.968 191.343 171.072 190 169.968 190C168.863 190 167.968 191.343 167.968 193C167.968 194.657 168.863 196 169.968 196ZM93.3943 201.961C93.1766 203.044 94.317 204.187 95.9414 204.513C97.5658 204.84 99.059 204.226 99.2767 203.143C99.4943 202.06 98.3539 200.918 96.7296 200.591C95.1052 200.265 93.612 200.878 93.3943 201.961ZM185.968 207C185.968 208.657 185.072 210 183.968 210C182.863 210 181.968 208.657 181.968 207C181.968 205.343 182.863 204 183.968 204C185.072 204 185.968 205.343 185.968 207ZM151.968 210C153.072 210 153.968 208.657 153.968 207C153.968 205.343 153.072 204 151.968 204C150.863 204 149.968 205.343 149.968 207C149.968 208.657 150.863 210 151.968 210ZM121.968 205.5C121.968 206.328 121.072 207 119.968 207C118.863 207 117.968 206.328 117.968 205.5C117.968 204.672 118.863 204 119.968 204C121.072 204 121.968 204.672 121.968 205.5ZM137.968 185.5C137.968 186.328 137.072 187 135.968 187C134.863 187 133.968 186.328 133.968 185.5C133.968 184.672 134.863 184 135.968 184C137.072 184 137.968 184.672 137.968 185.5ZM216 205C217.105 205 218 204.328 218 203.5C218 202.672 217.105 202 216 202C214.896 202 214 202.672 214 203.5C214 204.328 214.896 205 216 205ZM246.57 204.945C246.885 203.319 248.019 202.17 249.103 202.38C250.188 202.59 250.812 204.078 250.497 205.705C250.182 207.332 249.048 208.48 247.964 208.271C246.879 208.061 246.255 206.572 246.57 204.945ZM340.456 194.929C341.988 195.558 342.891 196.896 342.472 197.918C342.052 198.94 340.47 199.258 338.937 198.629C337.404 198 336.501 196.662 336.921 195.64C337.34 194.618 338.923 194.3 340.456 194.929ZM274.392 197.388C273.307 197.178 272.173 198.326 271.859 199.953C271.544 201.58 272.168 203.069 273.252 203.278C274.337 203.488 275.471 202.34 275.786 200.713C276.1 199.086 275.476 197.597 274.392 197.388ZM303.276 206.031C303.591 204.405 304.725 203.256 305.81 203.466C306.894 203.675 307.518 205.164 307.203 206.791C306.889 208.418 305.755 209.566 304.67 209.356C303.586 209.147 302.962 207.658 303.276 206.031ZM376.657 192.489C375.573 192.279 374.566 192.769 374.409 193.582C374.251 194.395 375.003 195.225 376.088 195.435C377.172 195.644 378.179 195.155 378.336 194.342C378.493 193.528 377.742 192.699 376.657 192.489ZM293.045 185.209C293.202 184.396 294.209 183.906 295.293 184.116C296.378 184.326 297.129 185.155 296.972 185.969C296.814 186.782 295.808 187.271 294.723 187.062C293.639 186.852 292.887 186.022 293.045 185.209ZM318.534 184.38C317.449 184.17 316.442 184.659 316.285 185.473C316.128 186.286 316.879 187.115 317.964 187.325C319.048 187.535 320.055 187.046 320.212 186.232C320.37 185.419 319.618 184.59 318.534 184.38ZM245.983 186.29C246.14 185.477 247.147 184.987 248.231 185.197C249.316 185.407 250.067 186.236 249.91 187.05C249.752 187.863 248.746 188.352 247.661 188.143C246.577 187.933 245.825 187.103 245.983 186.29ZM403.148 202.481C402.064 202.272 400.929 203.42 400.615 205.047C400.3 206.674 400.924 208.162 402.008 208.372C403.093 208.582 404.227 207.433 404.542 205.807C404.857 204.18 404.232 202.691 403.148 202.481ZM496.516 198.02C496.936 196.998 496.033 195.659 494.5 195.03C492.967 194.401 491.385 194.72 490.966 195.742C490.546 196.763 491.449 198.102 492.982 198.731C494.514 199.36 496.097 199.041 496.516 198.02ZM425.903 200.055C426.218 198.428 427.352 197.279 428.437 197.489C429.521 197.699 430.145 199.188 429.83 200.814C429.516 202.441 428.382 203.59 427.297 203.38C426.213 203.17 425.589 201.681 425.903 200.055ZM459.854 203.567C458.77 203.357 457.636 204.506 457.321 206.133C457.006 207.759 457.63 209.248 458.715 209.458C459.799 209.668 460.933 208.519 461.248 206.892C461.563 205.266 460.939 203.777 459.854 203.567ZM528.454 193.684C528.611 192.87 529.618 192.381 530.702 192.591C531.786 192.801 532.538 193.63 532.381 194.443C532.223 195.257 531.217 195.746 530.132 195.536C529.048 195.326 528.296 194.497 528.454 193.684ZM449.338 184.218C448.253 184.008 447.247 184.497 447.089 185.311C446.932 186.124 447.684 186.953 448.768 187.163C449.852 187.373 450.859 186.884 451.016 186.07C451.174 185.257 450.422 184.428 449.338 184.218ZM470.33 185.574C470.487 184.761 471.494 184.272 472.578 184.481C473.663 184.691 474.414 185.521 474.257 186.334C474.1 187.147 473.093 187.637 472.008 187.427C470.924 187.217 470.172 186.388 470.33 185.574ZM402.276 185.299C401.191 185.089 400.185 185.578 400.027 186.392C399.87 187.205 400.621 188.034 401.706 188.244C402.79 188.454 403.797 187.965 403.954 187.151C404.112 186.338 403.36 185.509 402.276 185.299ZM693.574 187.86C693.145 189.46 691.933 190.526 690.866 190.24C689.799 189.954 689.282 188.425 689.71 186.825C690.139 185.224 691.352 184.159 692.419 184.444C693.486 184.73 694.003 186.259 693.574 187.86ZM599.216 191.217C597.731 190.481 596.925 189.082 597.416 188.092C597.906 187.103 599.507 186.897 600.992 187.633C602.476 188.368 603.282 189.767 602.792 190.757C602.301 191.747 600.7 191.952 599.216 191.217ZM665.288 193.432C666.355 193.718 667.567 192.653 667.996 191.052C668.425 189.452 667.908 187.923 666.841 187.637C665.774 187.351 664.561 188.417 664.132 190.017C663.703 191.617 664.221 193.146 665.288 193.432ZM637.086 182.77C636.658 184.37 635.445 185.436 634.378 185.15C633.311 184.864 632.794 183.335 633.223 181.735C633.651 180.134 634.864 179.069 635.931 179.355C636.998 179.64 637.515 181.17 637.086 182.77ZM562.932 191.093C563.999 191.379 565.038 190.962 565.252 190.162C565.466 189.362 564.775 188.481 563.708 188.195C562.641 187.909 561.603 188.326 561.388 189.127C561.174 189.927 561.865 190.807 562.932 191.093ZM645.821 204.262C645.607 205.063 644.568 205.48 643.501 205.194C642.434 204.908 641.743 204.027 641.958 203.227C642.172 202.427 643.211 202.01 644.278 202.296C645.345 202.582 646.036 203.462 645.821 204.262ZM620.338 203.288C621.405 203.574 622.443 203.157 622.658 202.357C622.872 201.557 622.181 200.677 621.114 200.391C620.047 200.105 619.008 200.522 618.794 201.322C618.58 202.122 619.271 203.003 620.338 203.288ZM692.842 206.509C692.628 207.309 691.589 207.726 690.522 207.44C689.455 207.154 688.764 206.273 688.978 205.473C689.193 204.673 690.232 204.256 691.298 204.542C692.365 204.828 693.056 205.708 692.842 206.509Z" fill="#A0AB7B"/>
	<path d="M722.5 110.5V78.6703L829.564 110.5H722.5Z" fill="#F2802C" stroke="#252924"/>
	<path d="M116.5 110.5V78.6703L9.43639 110.5H116.5Z" fill="#F2802C" stroke="#252924"/>
	</svg>
