<svg width="32" height="32" viewBox="0 0 32 32" fill="none" xmlns="http://www.w3.org/2000/svg">
<path d="M3.99996 12.0003C4.35358 12.0003 4.69272 11.8598 4.94277 11.6098C5.19282 11.3598 5.33329 11.0206 5.33329 10.667V6.66699C5.33329 6.31337 5.47377 5.97423 5.72382 5.72418C5.97387 5.47413 6.313 5.33366 6.66663 5.33366H10.6666C11.0202 5.33366 11.3594 5.19318 11.6094 4.94313C11.8595 4.69309 12 4.35395 12 4.00033C12 3.6467 11.8595 3.30756 11.6094 3.05752C11.3594 2.80747 11.0202 2.66699 10.6666 2.66699H6.66663C5.60576 2.66699 4.58834 3.08842 3.8382 3.83857C3.08805 4.58871 2.66663 5.60613 2.66663 6.66699V10.667C2.66663 11.0206 2.8071 11.3598 3.05715 11.6098C3.3072 11.8598 3.64634 12.0003 3.99996 12.0003ZM10.6666 26.667H6.66663C6.313 26.667 5.97387 26.5265 5.72382 26.2765C5.47377 26.0264 5.33329 25.6873 5.33329 25.3337V21.3337C5.33329 20.98 5.19282 20.6409 4.94277 20.3909C4.69272 20.1408 4.35358 20.0003 3.99996 20.0003C3.64634 20.0003 3.3072 20.1408 3.05715 20.3909C2.8071 20.6409 2.66663 20.98 2.66663 21.3337V25.3337C2.66663 26.3945 3.08805 27.4119 3.8382 28.1621C4.58834 28.9122 5.60576 29.3337 6.66663 29.3337H10.6666C11.0202 29.3337 11.3594 29.1932 11.6094 28.9431C11.8595 28.6931 12 28.3539 12 28.0003C12 27.6467 11.8595 27.3076 11.6094 27.0575C11.3594 26.8075 11.0202 26.667 10.6666 26.667ZM16 10.667C14.9451 10.667 13.914 10.9798 13.0369 11.5658C12.1599 12.1519 11.4763 12.9848 11.0726 13.9593C10.6689 14.9339 10.5633 16.0062 10.7691 17.0408C10.9749 18.0754 11.4828 19.0257 12.2287 19.7716C12.9746 20.5174 13.9249 21.0254 14.9595 21.2312C15.994 21.437 17.0664 21.3314 18.0409 20.9277C19.0155 20.524 19.8484 19.8404 20.4345 18.9634C21.0205 18.0863 21.3333 17.0552 21.3333 16.0003C21.3333 14.5858 20.7714 13.2293 19.7712 12.2291C18.771 11.2289 17.4144 10.667 16 10.667ZM16 18.667C15.4725 18.667 14.957 18.5106 14.5184 18.2176C14.0799 17.9246 13.7381 17.5081 13.5363 17.0208C13.3344 16.5335 13.2816 15.9974 13.3845 15.4801C13.4874 14.9628 13.7414 14.4876 14.1143 14.1147C14.4873 13.7418 14.9624 13.4878 15.4797 13.3849C15.997 13.282 16.5332 13.3348 17.0204 13.5366C17.5077 13.7385 17.9242 14.0803 18.2172 14.5188C18.5102 14.9573 18.6666 15.4729 18.6666 16.0003C18.6666 16.7076 18.3857 17.3858 17.8856 17.8859C17.3855 18.386 16.7072 18.667 16 18.667ZM25.3333 2.66699H21.3333C20.9797 2.66699 20.6405 2.80747 20.3905 3.05752C20.1404 3.30756 20 3.6467 20 4.00033C20 4.35395 20.1404 4.69309 20.3905 4.94313C20.6405 5.19318 20.9797 5.33366 21.3333 5.33366H25.3333C25.6869 5.33366 26.0261 5.47413 26.2761 5.72418C26.5262 5.97423 26.6666 6.31337 26.6666 6.66699V10.667C26.6666 11.0206 26.8071 11.3598 27.0571 11.6098C27.3072 11.8598 27.6463 12.0003 28 12.0003C28.3536 12.0003 28.6927 11.8598 28.9428 11.6098C29.1928 11.3598 29.3333 11.0206 29.3333 10.667V6.66699C29.3333 5.60613 28.9119 4.58871 28.1617 3.83857C27.4116 3.08842 26.3942 2.66699 25.3333 2.66699ZM28 20.0003C27.6463 20.0003 27.3072 20.1408 27.0571 20.3909C26.8071 20.6409 26.6666 20.98 26.6666 21.3337V25.3337C26.6666 25.6873 26.5262 26.0264 26.2761 26.2765C26.0261 26.5265 25.6869 26.667 25.3333 26.667H21.3333C20.9797 26.667 20.6405 26.8075 20.3905 27.0575C20.1404 27.3076 20 27.6467 20 28.0003C20 28.3539 20.1404 28.6931 20.3905 28.9431C20.6405 29.1932 20.9797 29.3337 21.3333 29.3337H25.3333C26.3942 29.3337 27.4116 28.9122 28.1617 28.1621C28.9119 27.4119 29.3333 26.3945 29.3333 25.3337V21.3337C29.3333 20.98 29.1928 20.6409 28.9428 20.3909C28.6927 20.1408 28.3536 20.0003 28 20.0003Z" fill="#467C3F"/>
</svg>
