<svg width="32" height="32" viewBox="0 0 32 32" fill="none" xmlns="http://www.w3.org/2000/svg">
<path d="M26.6666 11.9203C26.6527 11.7978 26.6259 11.6772 26.5866 11.5603V11.4403C26.5225 11.3032 26.437 11.1772 26.3333 11.067L18.3333 3.06699C18.223 2.96328 18.097 2.87777 17.9599 2.81366H17.8399C17.7045 2.73598 17.5549 2.68612 17.3999 2.66699H9.33325C8.27239 2.66699 7.25497 3.08842 6.50482 3.83857C5.75468 4.58871 5.33325 5.60613 5.33325 6.66699V25.3337C5.33325 26.3945 5.75468 27.4119 6.50482 28.1621C7.25497 28.9122 8.27239 29.3337 9.33325 29.3337H22.6666C23.7274 29.3337 24.7449 28.9122 25.495 28.1621C26.2452 27.4119 26.6666 26.3945 26.6666 25.3337V12.0003C26.6666 12.0003 26.6666 12.0003 26.6666 11.9203ZM18.6666 7.21366L22.1199 10.667H19.9999C19.6463 10.667 19.3072 10.5265 19.0571 10.2765C18.8071 10.0264 18.6666 9.68728 18.6666 9.33366V7.21366ZM23.9999 25.3337C23.9999 25.6873 23.8594 26.0264 23.6094 26.2765C23.3593 26.5265 23.0202 26.667 22.6666 26.667H9.33325C8.97963 26.667 8.64049 26.5265 8.39044 26.2765C8.14039 26.0264 7.99992 25.6873 7.99992 25.3337V6.66699C7.99992 6.31337 8.14039 5.97423 8.39044 5.72418C8.64049 5.47413 8.97963 5.33366 9.33325 5.33366H15.9999V9.33366C15.9999 10.3945 16.4213 11.4119 17.1715 12.1621C17.9216 12.9122 18.9391 13.3337 19.9999 13.3337H23.9999V25.3337Z" fill="#467C3F"/>
</svg>
