<svg width="32" height="32" viewBox="0 0 32 32" fill="none" xmlns="http://www.w3.org/2000/svg">
<path d="M25.3333 2.66699H6.66663C5.60576 2.66699 4.58834 3.08842 3.8382 3.83857C3.08805 4.58871 2.66663 5.60613 2.66663 6.66699V20.0003C2.66663 21.0612 3.08805 22.0786 3.8382 22.8288C4.58834 23.5789 5.60576 24.0003 6.66663 24.0003H10.1866L9.41329 25.3337C9.17924 25.739 9.05603 26.1989 9.05603 26.667C9.05603 27.1351 9.17924 27.5949 9.41329 28.0003C9.64936 28.4092 9.98976 28.7482 10.3997 28.9824C10.8097 29.2167 11.2745 29.3379 11.7466 29.3337H20.36C20.8276 29.3332 21.2869 29.2097 21.6917 28.9757C22.0966 28.7417 22.4328 28.4053 22.6666 28.0003C22.9007 27.5949 23.0239 27.1351 23.0239 26.667C23.0239 26.1989 22.9007 25.739 22.6666 25.3337L21.88 24.0003H25.3333C26.3942 24.0003 27.4116 23.5789 28.1617 22.8288C28.9119 22.0786 29.3333 21.0612 29.3333 20.0003V6.66699C29.3333 5.60613 28.9119 4.58871 28.1617 3.83857C27.4116 3.08842 26.3942 2.66699 25.3333 2.66699ZM11.6933 26.667L13.3333 24.0003H18.6666L20.2666 26.667H11.6933ZM26.6666 20.0003C26.6666 20.3539 26.5262 20.6931 26.2761 20.9431C26.0261 21.1932 25.6869 21.3337 25.3333 21.3337H6.66663C6.313 21.3337 5.97387 21.1932 5.72382 20.9431C5.47377 20.6931 5.33329 20.3539 5.33329 20.0003V18.667H26.6666V20.0003ZM26.6666 16.0003H5.33329V6.66699C5.33329 6.31337 5.47377 5.97423 5.72382 5.72418C5.97387 5.47413 6.313 5.33366 6.66663 5.33366H25.3333C25.6869 5.33366 26.0261 5.47413 26.2761 5.72418C26.5262 5.97423 26.6666 6.31337 26.6666 6.66699V16.0003Z" fill="#467C3F"/>
</svg>
