<svg width="32" height="32" viewBox="0 0 32 32" fill="none" xmlns="http://www.w3.org/2000/svg">
<path d="M16.0001 8C8.40008 8 2.66675 10.8667 2.66675 14.6667C2.66675 17.9333 6.92008 20.5067 12.9467 21.1733L12.3867 21.72C12.2618 21.844 12.1626 21.9914 12.0949 22.1539C12.0272 22.3164 11.9924 22.4907 11.9924 22.6667C11.9924 22.8427 12.0272 23.017 12.0949 23.1794C12.1626 23.3419 12.2618 23.4894 12.3867 23.6133C12.5107 23.7383 12.6582 23.8375 12.8206 23.9052C12.9831 23.9729 13.1574 24.0077 13.3334 24.0077C13.5094 24.0077 13.6837 23.9729 13.8462 23.9052C14.0087 23.8375 14.1561 23.7383 14.2801 23.6133L16.9467 20.9467C17.0681 20.8199 17.1633 20.6703 17.2267 20.5067C17.3601 20.1821 17.3601 19.8179 17.2267 19.4933C17.1633 19.3297 17.0681 19.1801 16.9467 19.0533L14.2801 16.3867C14.029 16.1356 13.6885 15.9945 13.3334 15.9945C12.9783 15.9945 12.6378 16.1356 12.3867 16.3867C12.1357 16.6377 11.9946 16.9783 11.9946 17.3333C11.9946 17.6884 12.1357 18.0289 12.3867 18.28L12.5467 18.4267C8.00008 17.7867 5.33341 16 5.33341 14.6667C5.33341 13.04 9.49341 10.6667 16.0001 10.6667C22.5067 10.6667 26.6667 13.04 26.6667 14.6667C26.6667 15.7733 24.7334 17.3333 21.0534 18.1333C20.8792 18.1667 20.7135 18.2345 20.5658 18.3327C20.4181 18.4309 20.2915 18.5577 20.1935 18.7054C20.0954 18.8532 20.0277 19.019 19.9945 19.1932C19.9613 19.3674 19.9632 19.5465 20.0001 19.72C20.0365 19.8918 20.1065 20.0547 20.206 20.1994C20.3055 20.344 20.4327 20.4676 20.5801 20.563C20.7275 20.6584 20.8924 20.7237 21.0651 20.7552C21.2379 20.7868 21.4151 20.7838 21.5868 20.7467C26.4534 19.68 29.3334 17.4133 29.3334 14.6667C29.3334 10.8667 23.6001 8 16.0001 8Z" fill="#467C3F"/>
</svg>
