<svg width="32" height="32" viewBox="0 0 32 32" fill="none" xmlns="http://www.w3.org/2000/svg">
<path d="M26.1734 4.86675C26.0185 4.74145 25.8375 4.65245 25.6436 4.6063C25.4498 4.56016 25.2481 4.55803 25.0534 4.60009C23.6286 4.89868 22.1578 4.90248 20.7316 4.61126C19.3053 4.32005 17.9537 3.73997 16.76 2.90675C16.5369 2.75192 16.2717 2.66895 16 2.66895C15.7284 2.66895 15.4632 2.75192 15.24 2.90675C14.0464 3.73997 12.6948 4.32005 11.2685 4.61126C9.84226 4.90248 8.37147 4.89868 6.94671 4.60009C6.75197 4.55803 6.55027 4.56016 6.35645 4.6063C6.16263 4.65245 5.98162 4.74145 5.82671 4.86675C5.67202 4.99224 5.54741 5.1508 5.46204 5.33077C5.37667 5.51075 5.3327 5.70756 5.33338 5.90675V15.8401C5.3322 17.7517 5.78775 19.636 6.66209 21.336C7.53644 23.036 8.80429 24.5025 10.36 25.6134L15.2267 29.0801C15.4525 29.2409 15.7228 29.3273 16 29.3273C16.2773 29.3273 16.5476 29.2409 16.7734 29.0801L21.64 25.6134C23.1958 24.5025 24.4637 23.036 25.338 21.336C26.2124 19.636 26.6679 17.7517 26.6667 15.8401V5.90675C26.6674 5.70756 26.6234 5.51075 26.5381 5.33077C26.4527 5.1508 26.3281 4.99224 26.1734 4.86675ZM24 15.8401C24.0011 17.3264 23.6471 18.7915 22.9676 20.1134C22.2881 21.4354 21.3027 22.5759 20.0934 23.4401L16 26.3601L11.9067 23.4401C10.6974 22.5759 9.71203 21.4354 9.03251 20.1134C8.353 18.7915 7.99903 17.3264 8.00005 15.8401V7.44009C10.7953 7.67933 13.5948 7.03078 16 5.58675C18.4053 7.03078 21.2048 7.67933 24 7.44009V15.8401Z" fill="#467C3F"/>
</svg>
