<svg width="32" height="32" viewBox="0 0 32 32" fill="none" xmlns="http://www.w3.org/2000/svg">
<path d="M11.2904 11.1926L11.2874 11.195L11.2845 11.1978L11.2904 11.1926ZM24.5625 10.9439C24.4698 10.8545 24.3669 10.7763 24.2559 10.7108C24.0988 10.6184 23.9244 10.5591 23.7435 10.5367C23.5626 10.5144 23.3791 10.5293 23.2042 10.5807C23.0293 10.6321 22.8668 10.7188 22.7268 10.8355C22.5867 10.9521 22.4721 11.0963 22.39 11.259C21.9307 12.1639 21.2973 12.9693 20.526 13.6288C20.6439 12.9643 20.7034 12.2907 20.7037 11.6158C20.7062 9.56256 20.1646 7.54538 19.1339 5.76958C18.1033 3.99379 16.6205 2.52281 14.8365 1.50643C14.64 1.39503 14.4184 1.33538 14.1925 1.33308C13.9666 1.33078 13.7439 1.3859 13.5451 1.49329C13.3464 1.60067 13.1782 1.75678 13.0563 1.94698C12.9344 2.13718 12.8628 2.35522 12.8483 2.58066C12.7737 3.84489 12.4432 5.08081 11.8768 6.21354C11.3104 7.34628 10.52 8.35224 9.55337 9.17047L9.24608 9.42047C8.2353 10.1006 7.34061 10.939 6.59635 11.9035C5.43943 13.361 4.63801 15.068 4.25562 16.8891C3.87324 18.7102 3.92041 20.5954 4.39341 22.3951C4.8664 24.1948 5.75221 25.8596 6.98057 27.2574C8.20894 28.6551 9.74608 29.7475 11.4701 30.4478C11.6725 30.5305 11.8922 30.5622 12.1097 30.5399C12.3273 30.5177 12.536 30.4422 12.7175 30.3202C12.899 30.1983 13.0476 30.0335 13.1504 29.8405C13.2532 29.6475 13.3068 29.4321 13.3067 29.2134C13.3058 29.072 13.2834 28.9315 13.2403 28.7968C12.942 27.6755 12.8561 26.5083 12.987 25.3554C14.2487 27.735 16.2739 29.6212 18.737 30.7108C19.0377 30.8453 19.3776 30.8634 19.6908 30.7616C21.6369 30.1335 23.3901 29.0182 24.7837 27.5217C26.1773 26.0252 27.1652 24.1972 27.6533 22.2114C28.1415 20.2255 28.1138 18.1479 27.5728 16.1758C27.0319 14.2037 25.9956 12.4027 24.5625 10.9439ZM19.3562 28.052C18.1939 27.4629 17.1687 26.6359 16.347 25.6246C15.5254 24.6133 14.9258 23.4404 14.5873 22.1822C14.4839 21.7585 14.4039 21.3295 14.3477 20.897C14.3096 20.6216 14.1864 20.365 13.9953 20.1631C13.8042 19.9611 13.5548 19.824 13.2819 19.7707C13.1979 19.7541 13.1124 19.7459 13.0267 19.746C12.7924 19.7459 12.5621 19.8076 12.3593 19.9249C12.1564 20.0422 11.988 20.2109 11.8711 20.414C10.7648 22.3222 10.2084 24.4994 10.2637 26.7043C9.29067 25.9478 8.47748 25.0057 7.87125 23.9326C7.26502 22.8595 6.8778 21.6767 6.73204 20.4529C6.58628 19.229 6.68488 17.9884 7.02211 16.8029C7.35935 15.6174 7.92851 14.5107 8.69663 13.5468C9.27985 12.7893 9.98342 12.1325 10.7793 11.6028C10.8138 11.5806 10.8468 11.5562 10.8783 11.5299C10.8783 11.5299 11.2738 11.2026 11.2874 11.1951C13.187 9.58837 14.538 7.4291 15.1523 5.01816C16.6051 6.36114 17.5738 8.1462 17.908 10.0962C18.2422 12.0461 17.9233 14.0519 17.0007 15.802C16.8788 16.0356 16.8288 16.3 16.857 16.5619C16.8851 16.8238 16.9903 17.0715 17.1591 17.2737C17.3279 17.476 17.5528 17.6237 17.8055 17.6982C18.0581 17.7728 18.3272 17.7709 18.5788 17.6927C20.6212 17.0525 22.4184 15.8019 23.7285 14.1094C24.5159 15.2724 25.0307 16.5982 25.2345 17.9878C25.4383 19.3775 25.3259 20.7952 24.9056 22.1354C24.4854 23.4756 23.7681 24.7036 22.8072 25.7281C21.8463 26.7525 20.6667 27.5469 19.3561 28.052L19.3562 28.052Z" fill="#467C3F"/>
</svg>
