<svg width="32" height="32" viewBox="0 0 32 32" fill="none" xmlns="http://www.w3.org/2000/svg">
<path d="M14.3333 3C11.6963 3 9.11839 3.78199 6.92574 5.24707C4.73308 6.71216 3.02411 8.79454 2.01495 11.2309C1.00578 13.6672 0.741733 16.3481 1.2562 18.9345C1.77067 21.521 3.04055 23.8967 4.90525 25.7614C6.76995 27.6261 9.14572 28.896 11.7321 29.4105C14.3185 29.9249 16.9994 29.6609 19.4358 28.6517C21.8721 27.6426 23.9545 25.9336 25.4196 23.7409C26.8847 21.5483 27.6667 18.9704 27.6667 16.3333C27.6667 14.5824 27.3218 12.8486 26.6517 11.2309C25.9817 9.61321 24.9995 8.14336 23.7614 6.90524C22.5233 5.66713 21.0535 4.685 19.4358 4.01494C17.8181 3.34488 16.0843 3 14.3333 3ZM14.3333 27C12.2237 27 10.1614 26.3744 8.40726 25.2023C6.65313 24.0303 5.28596 22.3644 4.47862 20.4153C3.67129 18.4662 3.46005 16.3215 3.87163 14.2524C4.28321 12.1832 5.29911 10.2826 6.79087 8.79086C8.28263 7.2991 10.1832 6.2832 12.2524 5.87162C14.3215 5.46005 16.4662 5.67128 18.4153 6.47862C20.3644 7.28595 22.0303 8.65313 23.2023 10.4073C24.3744 12.1614 25 14.2237 25 16.3333C25 19.1623 23.8762 21.8754 21.8758 23.8758C19.8754 25.8762 17.1623 27 14.3333 27Z" fill="#467C3F"/>
<path d="M14.5 4.5V28.5" stroke="#467C3F" stroke-width="2.4"/>
<path d="M22.9852 8.01465L6.01467 24.9852" stroke="#467C3F" stroke-width="2.4"/>
<path d="M26.5 16.5L2.5 16.5" stroke="#467C3F" stroke-width="2.4"/>
<path d="M22.9852 24.9854L6.01467 8.01479" stroke="#467C3F" stroke-width="2.4"/>
</svg>
