<svg width="32" height="32" viewBox="0 0 32 32" fill="none" xmlns="http://www.w3.org/2000/svg">
<path d="M14.6666 2.66699C12.0295 2.66699 9.45164 3.44898 7.25899 4.91406C5.06633 6.37915 3.35737 8.46153 2.3482 10.8979C1.33903 13.3342 1.07498 16.0151 1.58945 18.6015C2.10392 21.1879 3.3738 23.5637 5.2385 25.4284C7.1032 27.2931 9.47897 28.563 12.0654 29.0775C14.6518 29.5919 17.3327 29.3279 19.769 28.3187C22.2054 27.3096 24.2878 25.6006 25.7529 23.4079C27.2179 21.2153 27.9999 18.6374 27.9999 16.0003C27.9999 14.2494 27.655 12.5156 26.985 10.8979C26.3149 9.2802 25.3328 7.81035 24.0947 6.57224C22.8566 5.33412 21.3867 4.35199 19.769 3.68193C18.1514 3.01187 16.4176 2.66699 14.6666 2.66699ZM14.6666 26.667C12.5569 26.667 10.4946 26.0414 8.74051 24.8693C6.98638 23.6973 5.61921 22.0314 4.81188 20.0823C4.00454 18.1332 3.79331 15.9885 4.20488 13.9194C4.61646 11.8502 5.63236 9.94961 7.12412 8.45785C8.61588 6.96609 10.5165 5.95019 12.5856 5.53862C14.6548 5.12704 16.7995 5.33828 18.7485 6.14561C20.6976 6.95295 22.3635 8.32012 23.5356 10.0742C24.7077 11.8284 25.3333 13.8907 25.3333 16.0003C25.3333 18.8293 24.2095 21.5424 22.2091 23.5428C20.2087 25.5432 17.4956 26.667 14.6666 26.667ZM14.6666 8.00033C14.313 8.00033 13.9738 8.1408 13.7238 8.39085C13.4737 8.6409 13.3333 8.98004 13.3333 9.33366V15.907L11.5066 19.067C11.3298 19.3746 11.2824 19.7399 11.3749 20.0825C11.4675 20.4251 11.6923 20.7168 11.9999 20.8937C12.3076 21.0705 12.6729 21.1178 13.0154 21.0253C13.358 20.9328 13.6498 20.708 13.8266 20.4003L15.8266 16.9337C15.9549 16.6926 16.0061 16.418 15.9733 16.147L15.9999 16.0003V9.33366C15.9999 8.98004 15.8594 8.6409 15.6094 8.39085C15.3594 8.1408 15.0202 8.00033 14.6666 8.00033Z" fill="#467C3F"/>
</svg>
