<svg width="105" height="1542" viewBox="0 0 105 1542" fill="none" xmlns="http://www.w3.org/2000/svg"><g opacity=".12"><mask id="mask0_2218_5622" style="mask-type:alpha" maskUnits="userSpaceOnUse" x="0" y="586" width="105" height="579"><path fill="#C4C4C4" d="M0 586h105v579H0z"/></mask><g mask="url(#mask0_2218_5622)" fill="#A0AB7B"><path d="M203.578 1041.04l-7.036-6.896-209.837 214.093 7.035 6.896zm-10.204-20.06l-7.036-6.896-209.837 214.093 7.035 6.896zm-10.204-20.05l-7.036-6.896-209.837 214.093 7.035 6.896zm-10.204-20.058l-7.036-6.896-209.837 214.093 7.035 6.896zm-10.204-20.056l-7.036-6.896-209.837 214.093 7.035 6.896zm-10.204-20.056l-7.036-6.896-224.492 229.045 7.036 6.896zm-10.204-20.057l-7.036-6.896-246.983 251.992 7.036 6.896zm-10.204-20.056l-7.036-6.896-262.434 267.756 7.036 6.896zm5.393-35.969l-7.036-6.896-300.104 306.19 7.036 6.896zm-1.719-28.713l-7.036-6.896-325.253 331.848 7.036 6.897zm-2.003-28.424l-7.036-6.896-352.908 360.065 7.036 6.896zm-2.712-27.701l-7.036-6.896-381.088 388.816 7.036 6.896zm-.982-29.464l-7.036-6.896-412.981 421.356 7.036 6.896zm1.683-32.185l-7.036-6.896-434.371 443.18 7.036 6.896zm-1.055-29.391l-7.036-6.896-435.093 443.916 7.036 6.896zm3.462-33.999l-7.036-6.896-440.702 449.639 7.036 6.896zm-2.26-28.161l-7.036-6.896-437.256 446.123 7.036 6.896zm-1.137-29.308l-7.036-6.896-434.14 442.944 7.036 6.896zm-.973-29.474l-7.036-6.896-434.177 442.982 7.036 6.896zm-21.346-8.689l-7.036-6.896-410.867 419.198 7.036 6.897zm-27.175-2.74l-7.036-6.896-383.944 391.73 7.036 6.896zm-29.536-.333l-7.035-6.896-353.435 360.602 7.036 6.896zm-32.487 2.679l-7.036-6.896-321.334 327.85 7.036 6.897z"/></g></g><g opacity=".12"><mask id="mask1_2218_5622" style="mask-type:alpha" maskUnits="userSpaceOnUse" x="0" y="0" width="105" height="586"><path fill="#C4C4C4" d="M0 0h105v586H0z"/></mask><g mask="url(#mask1_2218_5622)" fill="#A0AB7B"><path d="M203.578 462.041l-7.036-6.896-209.837 214.093 7.035 6.896zm-10.204-20.057l-7.036-6.896L-23.499 649.18l7.035 6.896zm-10.204-20.056l-7.036-6.896-209.837 214.093 7.035 6.896zm-10.204-20.056l-7.036-6.896-209.837 214.093 7.035 6.896zm-10.204-20.056l-7.036-6.896-209.837 214.093 7.035 6.896zm-10.204-20.056l-7.036-6.896L-78.97 583.909l7.036 6.896zm-10.204-20.057l-7.036-6.896-246.983 251.992 7.036 6.896zm-10.204-20.056l-7.036-6.896-262.434 267.756 7.036 6.896zm5.393-35.969l-7.036-6.896-300.104 306.19 7.036 6.896zm-1.719-28.713l-7.036-6.896-325.253 331.848 7.036 6.897zm-2.003-28.424l-7.036-6.896-352.908 360.065 7.036 6.896zm-2.712-27.701l-7.036-6.896-381.088 388.816 7.036 6.896zm-.982-29.464l-7.036-6.896-412.981 421.356 7.036 6.896zm1.683-32.185l-7.036-6.896-434.371 443.18 7.036 6.896zm-1.055-29.391l-7.036-6.896-435.093 443.916 7.036 6.896zm3.462-34l-7.036-6.895-440.702 449.638 7.036 6.896zm-2.26-28.16l-7.036-6.896-437.256 446.123 7.036 6.896zm-1.137-29.308l-7.036-6.896-434.14 442.944 7.036 6.897zm-.973-29.474l-7.036-6.896-434.177 442.982 7.036 6.896zm-21.346-8.688l-7.036-6.897-410.867 419.199 7.036 6.896zm-27.175-2.74l-7.036-6.897-383.944 391.73 7.036 6.897zm-29.536-.334L44.756-29.8-308.68 330.802l7.036 6.896zm-32.487 2.679l-7.036-6.896-321.334 327.85 7.036 6.897z"/></g></g><g opacity=".12"><mask id="mask2_2218_5622" style="mask-type:alpha" maskUnits="userSpaceOnUse" x="0" y="1165" width="105" height="377"><path fill="#C4C4C4" d="M0 1165h105v377H0z"/></mask><g mask="url(#mask2_2218_5622)" fill="#A0AB7B"><path d="M162.762 1539.82l-7.036-6.896-209.837 214.093 7.035 6.896zm-10.204-20.06l-7.036-6.896-224.492 229.045 7.036 6.896zm-10.204-20.06l-7.036-6.896-246.983 251.992 7.036 6.896zm-10.204-20.05l-7.036-6.896-262.434 267.756 7.036 6.896zm5.393-35.97l-7.036-6.896-300.104 306.19 7.036 6.896zm-1.719-28.72l-7.036-6.896-325.253 331.848 7.036 6.897zm-2.003-28.42l-7.036-6.896-352.908 360.065 7.036 6.896zm-2.712-27.7l-7.036-6.896-381.088 388.816 7.036 6.896zm-.982-29.46l-7.036-6.896-412.981 421.356 7.036 6.896zm1.683-32.19l-7.036-6.896-434.371 443.18 7.036 6.896zm-1.055-29.39l-7.036-6.896-435.093 443.916 7.036 6.896zm3.462-34l-7.036-6.896-440.702 449.639 7.036 6.896zm-2.26-28.16l-7.036-6.896-437.256 446.123 7.036 6.896zm-1.137-29.31l-7.036-6.896-434.14 442.944 7.036 6.896zm-.973-29.47l-7.036-6.896-434.177 442.982 7.036 6.896zm-21.346-8.69l-7.036-6.896-410.867 419.198 7.036 6.897zm-27.175-2.74l-7.036-6.896-383.944 391.73 7.036 6.896zm-29.536-.33l-7.035-6.896-353.435 360.602 7.036 6.896zm-32.487 2.68l-7.036-6.896-321.334 327.85 7.036 6.897z"/></g></g></svg>