<svg xmlns="http://www.w3.org/2000/svg" viewBox="0 0 75 51.54"><g id="b94cc467-02eb-4d11-87ad-b58a9310f952" data-name="Слой 2"><path d="M55.18 48.32a7.88 7.88 0 01-1-4V30.58h-7.56a8.07 8.07 0 00-4.76 1.78v-16c0-5.14 2.48-11.19 11.37-11.19h3.87c2.9 0 3.9 1.09 3.9 1.09h-7.77C45.48 6.26 43 11.68 43 16.39v13.82a5.9 5.9 0 013.21-.86h14.4c5.06 0 5.43 3.92 5.43 4.88v.52c0 7.56-4.89 7.89-4.89 7.89l2.15 3a11.93 11.93 0 006.11-6.27 21.7 21.7 0 001.36-7.81V15.12Q70.77.89 56.54.89h-1.65a5.66 5.66 0 01-1.2.13A5 5 0 0151.45.5a5.25 5.25 0 01-1.36.19 5.23 5.23 0 01-1.73-.28 3.54 3.54 0 01-.18.48H26.93a3.33 3.33 0 01-.34-.8h-.37a5.18 5.18 0 01-1.82.3 6.06 6.06 0 01-.76 0 5.87 5.87 0 01-.74 0 5.15 5.15 0 01-2-.39l-.46.07a4.5 4.5 0 01-.44 1.1C12.77 2.31 8.53 7 8.53 15.12v29.23a7.34 7.34 0 01-1.08 3.93H0v3.22h75v-3.18zm7.7-30.1a1.45 1.45 0 11.34 1.78 1.3 1.3 0 01-.34-1.78zM46.56 43.67v.69c-.06 3.1-1.16 4-1.16 4H17.08s-1-1.14-1-4V41.1a4.42 4.42 0 014.74-4.38h21a4.38 4.38 0 014.75 4.74c.01 1.33 0 1.66-.01 2.21z" id="a1eedd03-b0bc-44b5-bee1-d525fbedb9bf" data-name="Слой 1"/></g></svg>