<svg width="32" height="32" viewBox="0 0 32 32" fill="none" xmlns="http://www.w3.org/2000/svg"><path d="M26.666 11.92a1.741 1.741 0 00-.08-.36v-.12a1.426 1.426 0 00-.253-.373l-8-8a1.426 1.426 0 00-.373-.254h-.12a1.174 1.174 0 00-.44-.146H9.333a4 4 0 00-4 4v18.666a4 4 0 004 4h13.333a4 4 0 004-4V11.92zm-8-4.707l3.454 3.454H20a1.333 1.333 0 01-1.334-1.334v-2.12zM24 25.333a1.333 1.333 0 01-1.334 1.334H9.333A1.334 1.334 0 018 25.333V6.667a1.333 1.333 0 011.333-1.334H16v4a4 4 0 004 4h4v12z" fill="#467C3F"/></svg>