<svg width="78" height="130" viewBox="0 0 78 130" xmlns="http://www.w3.org/2000/svg"><path fill-rule="evenodd" clip-rule="evenodd" d="M47.77 102.196c-.06 3.107-1.159 3.967-1.159 3.967h-28.3s-.962-1.143-.962-4.008v-3.212s.005-4.382 4.742-4.382h20.97c4.742 0 4.746 4.122 4.746 4.74 0 1.33-.008 1.659-.022 2.207-.004.187-.01.4-.015.688zM31.019 50.511h15.413c3.49 0 3.492 3.223 3.492 3.223v2.361c0 1.394-.31 2.226-.521 2.632H28.157c-.241-.382-.573-1.167-.598-2.603l-.014-.567a47.97 47.97 0 01-.016-1.561c0-.453.004-3.485 3.49-3.485zm-4.952-26.347s-.49-.583-.49-2.042v-1.633s0-2.236 2.416-2.236h10.68c2.418 0 2.418 2.105 2.418 2.418 0 .716-.003.86-.01 1.17l-.005.302c-.03 1.585-.595 2.021-.595 2.021H26.067zM15.488 38.447c-.592.503-1.406.524-1.808.053-.403-.475-.25-1.272.34-1.778.596-.503 1.407-.529 1.808-.056.41.474.253 1.27-.34 1.78zM48.973 8.462c.364-.426 1.097-.404 1.638.057.536.455.679 1.175.309 1.608-.367.426-1.103.41-1.64-.053-.537-.455-.678-1.178-.307-1.612zm15.131 67.596c.407-.477 1.218-.452 1.819.054.592.51.746 1.308.338 1.784-.402.476-1.216.451-1.812-.055-.595-.51-.747-1.306-.345-1.783zm-7.7 30.105s-1.005-1.541-1.005-4.048v-13.7l-.859-.001-6.696-.005c-2.698 0-4.752 1.781-4.752 1.781s-.015-10.858-.015-15.96c0-5.105 2.491-11.221 11.384-11.221h3.871c2.923 0 3.92 1.092 3.92 1.092H54.46c-7.755 0-10.218 5.414-10.218 10.128 0 4.707-.008 13.817-.008 13.817s1.216-.855 3.214-.855h14.39c5.063 0 5.424 3.915 5.424 4.875v.52c0 7.565-4.884 7.893-4.884 7.893l2.152 3c2.371-1.17 4.905-3.133 6.102-6.272.758-1.991 1.37-4.52 1.37-7.806V72.959c0-9.49-4.745-14.232-14.235-14.232h-1.651a5.61 5.61 0 01-.614-2.575V34.625c0-6.585-3.746-10.06-10.036-10.43h-.009a4.657 4.657 0 01-.497-2.091v-6.432h-.387l-2.903-.003c-1.929 0-3.529 1.037-3.529 1.037s-.007-6.213-.007-8.814c0-2.77 1.471-6.18 6.015-6.18h2.302c1.49 0 2 1.022 2 1.022h-3.967c-3.955 0-5.206 2.76-5.206 5.158 0 2.403-.007 7.069-.007 7.069s.853-.465 2.577-.465h6.393c2.58 0 2.762 2 2.762 2.488v.265c0 3.853-2.489 4.02-2.489 4.02l1.098 1.525c1.21-.595 2.498-1.59 3.11-3.194.388-1.012.694-2.303.694-3.975V7.248C53.417 2.415 51 0 46.167 0H29.452c-4.833 0-7.742 2.415-7.742 7.248v7.248h-.001v7.668c0 1.213-.545 2-.545 2h-.959c-6.974 0-10.462 3.49-10.462 10.46v12.093c0 2.418.448 4.271 1.007 5.737.879 2.307 2.736 3.747 4.482 4.611l1.585-2.209s-3.586-.238-3.586-5.798v-.383c0-.702.255-3.582 3.983-3.582h10.485c1.576 0 2.455.426 2.455.426s-.003-6.495-.003-9.962c0-3.461-1.812-7.441-7.513-7.441h-5.727s.735-1.106 2.882-1.106h3.013c6.21 0 8.549 4.554 8.549 8.547 0 3.755-.014 12.052-.014 12.052s-1.408-1.274-3.516-1.274h-.002c-.684 0-5.82 0-5.876.005v9.724c0 1.718-.636 2.811-.72 2.948-7.229 1.135-11.47 5.778-11.47 13.947V87.19h-.003v15.042c0 2.389-1.075 3.93-1.075 3.93H1.227v3.213h74.996v-3.213H56.405zm-41.352 9.808v3.311s-2.404-3.825-3.386-5.353c-.981-1.528-2.403-2.075-3.928-2.075H0c.983.659 1.31 2.406 1.31 3.493v9.933c0 1.281-.354 3.716-.354 3.716H5.87c-.07-.513-.127-.914-.174-1.242-.169-1.181-.2-1.407-.2-2.474v-4.142s5.299 6.384 5.843 7.148c.543.766 1.529.655 1.529.655h4.734c.873 0 1.268-.873 1.268-1.309v-11.274c0-2.39.29-4.504.29-4.504h-4.68s.572 1.593.572 4.117zm38.28-4.117c2.154 0 2.425.5 2.425 2.773v9.022c0 2.621.898 5.292.898 5.292h-10.96s.944-2.225.944-5.292v-7.846c0-1.264-2.486-3.949-2.486-3.949h9.179zm18.328 4.833c0-.577.38-.791.87-.791 1.286 0 3.73 1.407 3.73 1.407v-5.272s-3.653-.543-7.691-.543c-4.611 0-7.969.83-7.969 5.043 0 2.765 2.011 3.765 3.616 4.563 1.065.529 1.95.969 1.95 1.778 0 .464-.301.8-.81.803-.802.01-2.374-.213-4.643-1.934v6.721s3.347.825 7.498.825c6.17 0 9.091-1.219 9.091-5.809 0-2.826-2.197-4.13-3.85-5.11-.994-.59-1.792-1.063-1.792-1.681zm-50.592 12.179a877.288 877.288 0 014.24-9.977c.499-1.156.73-1.689.902-2.148l.208-.551c.297-.777.558-1.459.558-1.967 0-.767-1.2-2.471-1.2-2.471h7.219c2.895 0 3.793.737 4.557 2.596.764 1.856 3.64 9.274 4.186 10.693.542 1.42 2.097 3.818 2.097 3.818H33.346s.38-.696.326-1.529c-.043-.652-.732-2.046-.732-2.046h-5.815s-.392 1.154-.461 1.918c-.084.991.19 1.661.19 1.661l-5.786.003zm8.846-10.354l1.738 3.784h-3.256l1.518-3.784z"/></svg>