<svg width="43" height="58" viewBox="0 0 43 58" fill="none" xmlns="http://www.w3.org/2000/svg"><path d="M21.095 0C9.463 0 0 9.302 0 20.736c0 14.19 18.878 35.022 19.681 35.902a1.922 1.922 0 002.827 0c.804-.88 19.681-21.712 19.681-35.902C42.19 9.302 32.726 0 21.095 0zm0 31.17c-5.852 0-10.613-4.681-10.613-10.434 0-5.753 4.76-10.433 10.613-10.433 5.852 0 10.613 4.68 10.613 10.433S26.947 31.17 21.095 31.17z" fill="#F0F0ED" stroke="#BABABA"/><circle cx="21.597" cy="21.597" r="14.565" fill="#A0AB7B"/></svg>