<svg fill="none" viewBox="0 0 105 580" version="1.1" id="svg76" xmlns="http://www.w3.org/2000/svg"><g mask="url(#a)" fill="#A0AB7B" id="g74"><path opacity=".12" d="M106.273 455.843l7.036 6.896L-1.03 579.396l-7.036-6.896 114.339-116.657z" id="path42"/><path opacity=".12" d="M106.273 425.843l7.036 6.896L-1.03 549.396l-7.036-6.896 114.339-116.657z" id="path44"/><path opacity=".12" d="M106.273 394.843l7.036 6.896L-1.03 518.396l-7.036-6.896 114.339-116.657z" id="path46"/><path opacity=".12" d="M106.273 364.843l7.036 6.896L-1.03 488.396l-7.036-6.896 114.339-116.657z" id="path48"/><path opacity=".12" d="M106.273 333.843l7.036 6.896L-1.03 457.396l-7.036-6.896 114.339-116.657z" id="path50"/><path opacity=".12" d="M106.273 303.843l7.036 6.896L-1.03 427.396l-7.036-6.896 114.339-116.657z" id="path52"/><path opacity=".12" d="M106.273 272.843l7.036 6.896L-1.03 396.396l-7.036-6.896 114.339-116.657z" id="path54"/><path opacity=".12" d="M106.273 242.843l7.036 6.896L-1.03 366.396l-7.036-6.896 114.339-116.657z" id="path56"/><path opacity=".12" d="M106.273 211.843l7.036 6.896L-1.03 335.396l-7.036-6.896 114.339-116.657z" id="path58"/><path opacity=".12" d="M106.273 181.843l7.036 6.896L-1.03 305.396l-7.036-6.896 114.339-116.657z" id="path60"/><path opacity=".12" d="M106.273 150.843l7.036 6.896L-1.03 274.396l-7.036-6.896 114.339-116.657z" id="path62"/><path opacity=".12" d="M106.273 120.843l7.036 6.896L-1.03 244.396l-7.036-6.896 114.339-116.657z" id="path64"/><path opacity=".12" d="M106.273 89.843l7.036 6.896L-1.03 213.396l-7.036-6.896L106.273 89.843z" id="path66"/><path opacity=".12" d="M106.273 59.843l7.036 6.896L-1.03 183.396l-7.036-6.896L106.273 59.843z" id="path68"/><path opacity=".12" d="M106.273 28.843l7.036 6.896L-1.03 152.396l-7.036-6.896L106.273 28.843z" id="path70"/><path opacity=".12" d="M106.273-1.157l7.036 6.896L-1.03 122.396l-7.036-6.896L106.273-1.157z" id="path72"/></g><path d="M-.106 578.74l105.36-107.202.371-471.85v-.352L-.233 106.94z" id="path357" fill="#000"/></svg>