<svg fill="none" xmlns="http://www.w3.org/2000/svg" viewBox="0 0 105 580"><g mask="url(#a)" fill="#A0AB7B"><path opacity=".12" d="M106.273 455.843l7.036 6.896L-1.03 579.396l-7.036-6.896 114.339-116.657zm0-30l7.036 6.896L-1.03 549.396l-7.036-6.896 114.339-116.657zm0-31l7.036 6.896L-1.03 518.396l-7.036-6.896 114.339-116.657zm0-30l7.036 6.896L-1.03 488.396l-7.036-6.896 114.339-116.657zm0-31l7.036 6.896L-1.03 457.396l-7.036-6.896 114.339-116.657zm0-30l7.036 6.896L-1.03 427.396l-7.036-6.896 114.339-116.657zm0-31l7.036 6.896L-1.03 396.396l-7.036-6.896 114.339-116.657zm0-30l7.036 6.896L-1.03 366.396l-7.036-6.896 114.339-116.657zm0-31l7.036 6.896L-1.03 335.396l-7.036-6.896 114.339-116.657zm0-30l7.036 6.896L-1.03 305.396l-7.036-6.896 114.339-116.657zm0-31l7.036 6.896L-1.03 274.396l-7.036-6.896 114.339-116.657zm0-30l7.036 6.896L-1.03 244.396l-7.036-6.896 114.339-116.657zm0-31l7.036 6.896L-1.03 213.396l-7.036-6.896L106.273 89.843zm0-30l7.036 6.896L-1.03 183.396l-7.036-6.896L106.273 59.843zm0-31l7.036 6.896L-1.03 152.396l-7.036-6.896L106.273 28.843zm0-30l7.036 6.896L-1.03 122.396l-7.036-6.896L106.273-1.157z"/></g></svg>