<svg width="24" height="24" viewBox="0 0 24 24" fill="none" xmlns="http://www.w3.org/2000/svg"><path d="M5.572 7.887C5.286 6 6.616 4.305 8.65 3.684a1.482 1.482 0 011.82.897l.653 1.74a1.5 1.5 0 01-.39 1.632L8.792 9.73a.752.752 0 00-.229.705l.018.079.047.195c.241.947.609 1.858 1.093 2.707a10.897 10.897 0 001.944 2.44l.06.055a.75.75 0 00.723.154l2.51-.79a1.501 1.501 0 011.608.478l1.188 1.442a1.47 1.47 0 01-.134 2.011c-1.555 1.45-3.694 1.747-5.182.552a19.1 19.1 0 01-4.536-5.293A18.648 18.648 0 015.57 7.886h.001zm4.565 2.647l1.608-1.476a3 3 0 00.781-3.263l-.65-1.74A2.982 2.982 0 008.21 2.25c-2.525.772-4.551 3.036-4.122 5.864.3 1.973.991 4.484 2.517 7.106a20.599 20.599 0 004.893 5.708c2.232 1.793 5.21 1.18 7.146-.623a2.971 2.971 0 00.268-4.061L17.725 14.8a3 3 0 00-3.216-.954l-2.083.656a9.91 9.91 0 01-1.404-1.835 9.407 9.407 0 01-.885-2.131v-.002z" fill="#467C3F" stroke="#467C3F"/></svg>