<svg xmlns="http://www.w3.org/2000/svg" xmlns:xlink="http://www.w3.org/1999/xlink"><symbol id="bofer" viewBox="0 0 38 12"><path d="M0 11.848V.768h3.98c1.425 0 2.508.262 3.249.784.746.523 1.119 1.281 1.119 2.276 0 .573-.132 1.062-.396 1.468-.264.406-.652.705-1.164.898.578.152 1.022.436 1.331.852.31.416.464.924.464 1.522 0 1.086-.345 1.902-1.034 2.45-.685.543-1.702.82-3.052.83H0zm2.67-4.71v2.655h1.751c.482 0 .852-.109 1.111-.327.259-.223.388-.535.388-.936 0-.923-.459-1.387-1.377-1.392H2.67zm0-1.75h1.393c.584-.006 1-.112 1.248-.32.249-.208.373-.515.373-.92 0-.468-.134-.802-.403-1.005-.269-.208-.703-.312-1.301-.312H2.67v2.556zm6.948 2.267c0-.822.16-1.552.48-2.191a3.423 3.423 0 011.377-1.484c.599-.345 1.301-.518 2.108-.518 1.232 0 2.204.383 2.914 1.15.71.76 1.066 1.798 1.066 3.112v.09c0 1.284-.358 2.304-1.073 3.06-.71.75-1.674 1.126-2.892 1.126-1.172 0-2.113-.35-2.823-1.05-.71-.705-1.093-1.659-1.15-2.861l-.007-.434zm2.565.16c0 .76.119 1.319.357 1.674.239.355.591.533 1.058.533.913 0 1.38-.703 1.4-2.108v-.259c0-1.476-.472-2.214-1.415-2.214-.858 0-1.322.636-1.393 1.91l-.007.464zm7.077 4.033V5.395h-1.195v-1.78h1.194V2.96c0-.938.277-1.666.83-2.184C20.642.26 21.418 0 22.417 0c.365 0 .766.053 1.202.16l.008 1.887a2.342 2.342 0 00-.631-.069c-.777 0-1.165.335-1.165 1.005v.631h1.606v1.781H21.83v6.453h-2.57zm8.88.152c-1.264 0-2.286-.375-3.067-1.126-.781-.756-1.172-1.738-1.172-2.945v-.213c0-.842.155-1.585.464-2.23a3.425 3.425 0 011.37-1.491c.599-.355 1.309-.533 2.13-.533 1.157 0 2.07.36 2.74 1.08.67.716 1.004 1.715 1.004 2.999v.997h-5.098c.091.461.292.824.601 1.088.31.264.71.396 1.203.396.811 0 1.445-.285 1.902-.853l1.172 1.385c-.32.442-.774.794-1.362 1.058A4.602 4.602 0 0128.14 12zm-.29-6.56c-.75 0-1.197.498-1.339 1.492h2.587v-.198c.01-.41-.094-.728-.312-.95-.218-.23-.53-.343-.936-.343zm9.778.495l-.844-.06c-.807 0-1.324.253-1.553.76v5.213h-2.564V3.614h2.405l.083 1.058c.432-.806 1.033-1.21 1.804-1.21.274 0 .512.03.715.092l-.046 2.381z"/></symbol><symbol id="burn" viewBox="0 0 24 30"><path d="M7.29 10.193l-.003.002-.002.003.005-.005zm13.273-.249a1.646 1.646 0 00-.307-.233 1.333 1.333 0 00-1.866.548 7.708 7.708 0 01-1.864 2.37A11.618 11.618 0 0010.836.507 1.333 1.333 0 008.848 1.58a9.356 9.356 0 01-3.295 6.59l-.307.25a11.35 11.35 0 00-2.65 2.483A11.977 11.977 0 007.47 29.448a1.33 1.33 0 001.837-1.234 1.4 1.4 0 00-.067-.417 9.302 9.302 0 01-.253-3.442 12.006 12.006 0 005.75 5.356c.3.135.64.153.954.05a11.993 11.993 0 004.871-19.817zm-5.207 17.108a9.285 9.285 0 01-4.769-5.87 11.878 11.878 0 01-.24-1.285 1.334 1.334 0 00-2.476-.483 11.945 11.945 0 00-1.607 6.29 9.314 9.314 0 01-1.567-13.157 8.74 8.74 0 012.082-1.944.989.989 0 00.1-.073s.395-.327.408-.335a11.957 11.957 0 003.865-6.177 8.981 8.981 0 011.849 10.784 1.334 1.334 0 001.578 1.89c2.042-.64 3.84-1.89 5.15-3.582a9.334 9.334 0 01-4.373 13.942z"/></symbol><symbol id="chevron-down" viewBox="0 0 17 11"><path d="M14.995 0L8.5 6.802 2.005 0 0 2.1 8.5 11 17 2.1 14.995 0z"/></symbol><symbol id="chevron-left" viewBox="0 0 13 20"><path d="M11 2l-8 8 8 8" fill="none"/></symbol><symbol id="chevron-right" viewBox="0 0 13 20"><path d="M2 2l8 8-8 8" fill="none"/></symbol><symbol id="chevron-up" viewBox="0 0 22 14"><path d="M2 12l9-9 9 9" fill="transparent"/></symbol><symbol id="clock" viewBox="0 0 27 28"><path d="M13.667.667a13.333 13.333 0 100 26.666 13.333 13.333 0 000-26.666zm0 24a10.667 10.667 0 110-21.335 10.667 10.667 0 010 21.335zm0-18.667a1.333 1.333 0 00-1.333 1.333v6.574l-1.827 3.16a1.338 1.338 0 002.32 1.333l2-3.467c.128-.24.18-.515.146-.786L15 14V7.333A1.333 1.333 0 0013.667 6z"/></symbol><symbol id="file" viewBox="0 0 16 21"><path d="M16 7.44a1.307 1.307 0 00-.06-.27v-.09a1.07 1.07 0 00-.19-.28l-6-6a1.07 1.07 0 00-.28-.19h-.09A.88.88 0 009.05.5H3a3 3 0 00-3 3v14a3 3 0 003 3h10a3 3 0 003-3V7.44zm-6-3.53l2.59 2.59H11a1 1 0 01-1-1V3.91zm4 13.59a1 1 0 01-1 1H3a1 1 0 01-1-1v-14a1 1 0 011-1h5v3a3 3 0 003 3h3v9z"/></symbol><symbol id="logo" viewBox="0 0 78 130"><path fill-rule="evenodd" clip-rule="evenodd" d="M47.77 102.196c-.06 3.107-1.159 3.967-1.159 3.967h-28.3s-.962-1.143-.962-4.008v-3.212s.005-4.382 4.742-4.382h20.97c4.742 0 4.746 4.122 4.746 4.74 0 1.33-.008 1.659-.022 2.207-.004.187-.01.4-.015.688zM31.019 50.511h15.413c3.49 0 3.492 3.223 3.492 3.223v2.361c0 1.394-.31 2.226-.521 2.632H28.157c-.241-.382-.573-1.167-.598-2.603l-.014-.567a47.97 47.97 0 01-.016-1.561c0-.453.004-3.485 3.49-3.485zm-4.952-26.347s-.49-.583-.49-2.042v-1.633s0-2.236 2.416-2.236h10.68c2.418 0 2.418 2.105 2.418 2.418 0 .716-.003.86-.01 1.17l-.005.302c-.03 1.585-.595 2.021-.595 2.021H26.067zM15.488 38.447c-.592.503-1.406.524-1.808.053-.403-.475-.25-1.272.34-1.778.596-.503 1.407-.529 1.808-.056.41.474.253 1.27-.34 1.78zM48.973 8.462c.364-.426 1.097-.404 1.638.057.536.455.679 1.175.309 1.608-.367.426-1.103.41-1.64-.053-.537-.455-.678-1.178-.307-1.612zm15.131 67.596c.407-.477 1.218-.452 1.819.054.592.51.746 1.308.338 1.784-.402.476-1.216.451-1.812-.055-.595-.51-.747-1.306-.345-1.783zm-7.7 30.105s-1.005-1.541-1.005-4.048v-13.7l-.859-.001-6.696-.005c-2.698 0-4.752 1.781-4.752 1.781s-.015-10.858-.015-15.96c0-5.105 2.491-11.221 11.384-11.221h3.871c2.923 0 3.92 1.092 3.92 1.092H54.46c-7.755 0-10.218 5.414-10.218 10.128 0 4.707-.008 13.817-.008 13.817s1.216-.855 3.214-.855h14.39c5.063 0 5.424 3.915 5.424 4.875v.52c0 7.565-4.884 7.893-4.884 7.893l2.152 3c2.371-1.17 4.905-3.133 6.102-6.272.758-1.991 1.37-4.52 1.37-7.806V72.959c0-9.49-4.745-14.232-14.235-14.232h-1.651a5.61 5.61 0 01-.614-2.575V34.625c0-6.585-3.746-10.06-10.036-10.43h-.009a4.657 4.657 0 01-.497-2.091v-6.432h-.387l-2.903-.003c-1.929 0-3.529 1.037-3.529 1.037s-.007-6.213-.007-8.814c0-2.77 1.471-6.18 6.015-6.18h2.302c1.49 0 2 1.022 2 1.022h-3.967c-3.955 0-5.206 2.76-5.206 5.158 0 2.403-.007 7.069-.007 7.069s.853-.465 2.577-.465h6.393c2.58 0 2.762 2 2.762 2.488v.265c0 3.853-2.489 4.02-2.489 4.02l1.098 1.525c1.21-.595 2.498-1.59 3.11-3.194.388-1.012.694-2.303.694-3.975V7.248C53.417 2.415 51 0 46.167 0H29.452c-4.833 0-7.742 2.415-7.742 7.248v7.248h-.001v7.668c0 1.213-.545 2-.545 2h-.959c-6.974 0-10.462 3.49-10.462 10.46v12.093c0 2.418.448 4.271 1.007 5.737.879 2.307 2.736 3.747 4.482 4.611l1.585-2.209s-3.586-.238-3.586-5.798v-.383c0-.702.255-3.582 3.983-3.582h10.485c1.576 0 2.455.426 2.455.426s-.003-6.495-.003-9.962c0-3.461-1.812-7.441-7.513-7.441h-5.727s.735-1.106 2.882-1.106h3.013c6.21 0 8.549 4.554 8.549 8.547 0 3.755-.014 12.052-.014 12.052s-1.408-1.274-3.516-1.274h-.002c-.684 0-5.82 0-5.876.005v9.724c0 1.718-.636 2.811-.72 2.948-7.229 1.135-11.47 5.778-11.47 13.947V87.19h-.003v15.042c0 2.389-1.075 3.93-1.075 3.93H1.227v3.213h74.996v-3.213H56.405zm-41.352 9.808v3.311s-2.404-3.825-3.386-5.353c-.981-1.528-2.403-2.075-3.928-2.075H0c.983.659 1.31 2.406 1.31 3.493v9.933c0 1.281-.354 3.716-.354 3.716H5.87c-.07-.513-.127-.914-.174-1.242-.169-1.181-.2-1.407-.2-2.474v-4.142s5.299 6.384 5.843 7.148c.543.766 1.529.655 1.529.655h4.734c.873 0 1.268-.873 1.268-1.309v-11.274c0-2.39.29-4.504.29-4.504h-4.68s.572 1.593.572 4.117zm38.28-4.117c2.154 0 2.425.5 2.425 2.773v9.022c0 2.621.898 5.292.898 5.292h-10.96s.944-2.225.944-5.292v-7.846c0-1.264-2.486-3.949-2.486-3.949h9.179zm18.328 4.833c0-.577.38-.791.87-.791 1.286 0 3.73 1.407 3.73 1.407v-5.272s-3.653-.543-7.691-.543c-4.611 0-7.969.83-7.969 5.043 0 2.765 2.011 3.765 3.616 4.563 1.065.529 1.95.969 1.95 1.778 0 .464-.301.8-.81.803-.802.01-2.374-.213-4.643-1.934v6.721s3.347.825 7.498.825c6.17 0 9.091-1.219 9.091-5.809 0-2.826-2.197-4.13-3.85-5.11-.994-.59-1.792-1.063-1.792-1.681zm-50.592 12.179a877.288 877.288 0 014.24-9.977c.499-1.156.73-1.689.902-2.148l.208-.551c.297-.777.558-1.459.558-1.967 0-.767-1.2-2.471-1.2-2.471h7.219c2.895 0 3.793.737 4.557 2.596.764 1.856 3.64 9.274 4.186 10.693.542 1.42 2.097 3.818 2.097 3.818H33.346s.38-.696.326-1.529c-.043-.652-.732-2.046-.732-2.046h-5.815s-.392 1.154-.461 1.918c-.084.991.19 1.661.19 1.661l-5.786.003zm8.846-10.354l1.738 3.784h-3.256l1.518-3.784z"/></symbol><symbol id="phone" viewBox="0 0 27 27"><path d="M24.868 17.777c-1.665 0-3.296-.26-4.842-.77-.755-.26-1.612-.06-2.108.446l-3.065 2.315c-3.517-1.877-5.768-4.127-7.62-7.618l2.253-2.993a2.15 2.15 0 00.527-2.174 15.429 15.429 0 01-.776-4.851A2.134 2.134 0 007.105 0H2.132A2.134 2.134 0 000 2.132C0 15.843 11.157 27 24.868 27A2.134 2.134 0 0027 24.868V19.91a2.134 2.134 0 00-2.132-2.132z"/></symbol><symbol id="place" viewBox="0 0 32 32"><path d="M16 22.667L17.332 20v-6.856c2.294-.596 4-2.667 4-5.144a5.339 5.339 0 00-5.334-5.333A5.339 5.339 0 0010.666 8c0 2.477 1.705 4.548 4 5.144V20l1.333 2.667zM13.332 8a2.67 2.67 0 012.666-2.667A2.67 2.67 0 0118.666 8a2.67 2.67 0 01-2.667 2.667A2.67 2.67 0 0113.333 8z"/><path d="M21.689 14.084l-.711 2.57c3.455.955 5.688 2.791 5.688 4.68 0 2.522-4.38 5.333-10.667 5.333-6.286 0-10.666-2.811-10.666-5.334 0-1.888 2.233-3.724 5.689-4.68l-.71-2.57c-4.717 1.304-7.646 4.081-7.646 7.25 0 4.486 5.857 8 13.333 8s13.334-3.514 13.334-8c0-3.169-2.93-5.946-7.644-7.249z"/></symbol><symbol id="play" viewBox="0 0 23 26"><path d="M21.52 14.724L3.493 25.184C1.963 26.07 0 24.997 0 23.209V2.29C0 .505 1.96-.57 3.493.318l18.027 10.46a2.272 2.272 0 010 3.946z"/></symbol><symbol id="preloader" viewBox="0 0 153 18"><g opacity=".1"><mask id="mask0_2335_5587" style="mask-type:alpha" maskUnits="userSpaceOnUse" x="0" y="0" width="25" height="18"><path fill="#467C3F" d="M0 0h25v18H0z"/></mask><g mask="url(#mask0_2335_5587)"><path fill-rule="evenodd" clip-rule="evenodd" d="M19.515 71.56c-.04 2.115-.789 2.7-.789 2.7H-.536s-.655-.778-.655-2.728v-2.186s.003-2.982 3.227-2.982H16.31c3.229 0 3.231 2.805 3.231 3.226 0 1.215-.01 1.203-.025 1.97zM8.113 36.38h10.492c2.374 0 2.376 2.195 2.376 2.195v1.606c0 .949-.212 1.516-.355 1.792H6.165c-.164-.26-.39-.794-.407-1.772-.011-.567-.02-.557-.02-1.448 0-.309.003-2.373 2.375-2.373zm-3.37-17.933s-.334-.396-.334-1.39v-1.11s0-1.523 1.645-1.523h7.269c1.646 0 1.646 1.433 1.646 1.646 0 .619-.003.61-.01 1.002-.021 1.078-.405 1.375-.405 1.375H4.742zm-7.201 9.722c-.403.342-.957.357-1.23.036-.275-.323-.17-.865.231-1.21.406-.343.957-.36 1.23-.038.28.322.173.864-.231 1.212zM20.333 7.76c.249-.29.747-.274 1.115.04.365.31.462.8.211 1.094-.25.29-.751.279-1.116-.036-.366-.31-.462-.802-.21-1.097zm10.3 46.01c.277-.324.829-.308 1.238.037.403.348.507.89.23 1.214-.274.324-.828.307-1.233-.037-.406-.348-.51-.89-.235-1.213zm-5.24 20.491s-.686-1.049-.686-2.755V62.18l-5.142-.004c-1.836 0-3.234 1.213-3.234 1.213s-.01-7.391-.01-10.864c0-3.475 1.695-7.638 7.748-7.638h2.635c1.99 0 2.668.744 2.668.744h-5.303c-5.278 0-6.954 3.685-6.954 6.894 0 3.203-.006 9.404-.006 9.404s.827-.582 2.188-.582h9.794c3.446 0 3.692 2.665 3.692 3.318v.354c0 5.149-3.324 5.372-3.324 5.372l1.464 2.042c1.614-.796 3.34-2.132 4.154-4.269.515-1.355.932-3.076.932-5.313V51.66c0-6.46-3.23-9.687-9.689-9.687h-1.124a3.818 3.818 0 01-.418-1.753V25.568c0-4.482-2.55-6.848-6.831-7.099h-.006a3.171 3.171 0 01-.338-1.424v-4.378l-2.24-.002c-1.312 0-2.401.706-2.401.706s-.005-4.23-.005-6c0-1.884 1.001-4.206 4.094-4.206h1.567c1.014 0 1.361.696 1.361.696h-2.7c-2.692 0-3.544 1.878-3.544 3.51 0 1.636-.005 4.812-.005 4.812s.581-.316 1.755-.316h4.352c1.756 0 1.88 1.361 1.88 1.693v.18c0 2.623-1.695 2.737-1.695 2.737l.747 1.038c.824-.405 1.7-1.082 2.117-2.175.264-.688.473-1.566.473-2.705V6.933C23.358 3.644 21.713 2 18.424 2H7.046c-3.29 0-5.269 1.644-5.269 4.933v10.153c0 .826-.372 1.361-.372 1.361H.753c-4.747 0-7.121 2.376-7.121 7.12v8.231c0 1.646.305 2.907.685 3.905.598 1.57 1.863 2.55 3.05 3.139l1.08-1.504s-2.441-.162-2.441-3.946v-.26c0-.479.174-2.44 2.71-2.44h7.138c1.072 0 1.67.29 1.67.29l-.002-6.78c0-2.356-1.233-5.065-5.113-5.065H-1.49s.5-.752 1.961-.752h2.051c4.227 0 5.819 3.1 5.819 5.817 0 2.556-.01 8.203-.01 8.203s-.958-.867-2.393-.867c-.461 0-3.963 0-4 .003v6.62c0 1.168-.433 1.913-.491 2.006-4.92.773-7.807 3.933-7.807 9.493v9.687h-.002v10.238c0 1.626-.732 2.675-.732 2.675h-5.072v2.187H38.88V74.26H25.392z" fill="#467C3F"/></g></g><g opacity=".25"><mask id="mask1_2335_5587" style="mask-type:alpha" maskUnits="userSpaceOnUse" x="32" y="0" width="25" height="18"><path fill="#467C3F" d="M32 0h25v18H32z"/></mask><g mask="url(#mask1_2335_5587)"><path fill-rule="evenodd" clip-rule="evenodd" d="M51.515 71.56c-.04 2.115-.789 2.7-.789 2.7H31.464s-.655-.778-.655-2.728v-2.186s.003-2.982 3.227-2.982H48.31c3.229 0 3.231 2.805 3.231 3.226 0 1.215-.01 1.203-.025 1.97zM40.113 36.38h10.492c2.374 0 2.376 2.195 2.376 2.195v1.606c0 .949-.212 1.516-.355 1.792H38.165c-.164-.26-.39-.794-.407-1.772-.01-.567-.02-.557-.02-1.448 0-.309.003-2.373 2.375-2.373zm-3.37-17.933s-.334-.396-.334-1.39v-1.11s0-1.523 1.645-1.523h7.269c1.646 0 1.646 1.433 1.646 1.646 0 .619-.003.61-.01 1.002-.021 1.078-.406 1.375-.406 1.375h-9.81zm-7.201 9.722c-.403.342-.957.357-1.23.036-.275-.323-.17-.865.231-1.21.405-.343.957-.36 1.23-.038.28.322.173.864-.231 1.212zM52.333 7.76c.249-.29.747-.274 1.115.04.365.31.462.8.211 1.094-.25.29-.751.279-1.116-.036-.366-.31-.462-.802-.21-1.097zm10.3 46.01c.277-.324.829-.308 1.238.037.403.348.507.89.23 1.214-.274.324-.828.307-1.233-.037-.406-.348-.51-.89-.235-1.213zm-5.24 20.491s-.685-1.049-.685-2.755V62.18l-5.143-.004c-1.836 0-3.234 1.213-3.234 1.213s-.01-7.391-.01-10.864c0-3.475 1.695-7.638 7.748-7.638h2.635c1.99 0 2.668.744 2.668.744h-5.303c-5.279 0-6.955 3.685-6.955 6.894 0 3.203-.005 9.404-.005 9.404s.827-.582 2.188-.582h9.794c3.446 0 3.692 2.665 3.692 3.318v.354c0 5.149-3.324 5.372-3.324 5.372l1.464 2.042c1.614-.796 3.34-2.132 4.154-4.269.515-1.355.932-3.076.932-5.313V51.66c0-6.46-3.23-9.687-9.689-9.687h-1.124a3.818 3.818 0 01-.418-1.753V25.568c0-4.482-2.55-6.848-6.831-7.099h-.006a3.171 3.171 0 01-.338-1.424v-4.378l-2.24-.002c-1.312 0-2.401.706-2.401.706s-.005-4.23-.005-6c0-1.884 1.001-4.206 4.094-4.206h1.567c1.014 0 1.361.696 1.361.696h-2.7c-2.692 0-3.544 1.878-3.544 3.51 0 1.636-.005 4.812-.005 4.812s.581-.316 1.755-.316h4.352c1.756 0 1.88 1.361 1.88 1.693v.18c0 2.623-1.695 2.737-1.695 2.737l.747 1.038c.824-.405 1.7-1.082 2.117-2.175.264-.688.472-1.566.472-2.705V6.933C55.358 3.644 53.715 2 50.425 2H39.046c-3.29 0-5.269 1.644-5.269 4.933v10.153c0 .826-.372 1.361-.372 1.361h-.652c-4.747 0-7.121 2.376-7.121 7.12v8.231c0 1.646.305 2.907.685 3.905.598 1.57 1.863 2.55 3.05 3.139l1.08-1.504s-2.441-.162-2.441-3.946v-.26c0-.479.174-2.44 2.71-2.44h7.138c1.072 0 1.67.29 1.67.29l-.002-6.78c0-2.356-1.233-5.065-5.113-5.065H30.51s.5-.752 1.961-.752h2.051c4.226 0 5.819 3.1 5.819 5.817 0 2.556-.01 8.203-.01 8.203s-.958-.867-2.393-.867c-.461 0-3.963 0-4 .003v6.62c0 1.168-.433 1.913-.491 2.006-4.92.773-7.807 3.933-7.807 9.493v9.687h-.002v10.238c0 1.626-.732 2.675-.732 2.675h-5.072v2.187H70.88V74.26H57.392z" fill="#467C3F"/></g></g><g opacity=".45"><mask id="mask2_2335_5587" style="mask-type:alpha" maskUnits="userSpaceOnUse" x="64" y="0" width="25" height="18"><path fill="#467C3F" d="M64 0h25v18H64z"/></mask><g mask="url(#mask2_2335_5587)"><path fill-rule="evenodd" clip-rule="evenodd" d="M83.515 71.56c-.04 2.115-.789 2.7-.789 2.7H63.464s-.655-.778-.655-2.728v-2.186s.003-2.982 3.227-2.982H80.31c3.229 0 3.231 2.805 3.231 3.226 0 1.215-.01 1.203-.025 1.97zM72.113 36.38h10.492c2.374 0 2.376 2.195 2.376 2.195v1.606c0 .949-.212 1.516-.355 1.792H70.165c-.164-.26-.39-.794-.407-1.772-.01-.567-.02-.557-.02-1.448 0-.309.003-2.373 2.375-2.373zm-3.37-17.933s-.334-.396-.334-1.39v-1.11s0-1.523 1.645-1.523h7.269c1.646 0 1.646 1.433 1.646 1.646 0 .619-.003.61-.01 1.002-.021 1.078-.406 1.375-.406 1.375h-9.81zm-7.201 9.722c-.403.342-.957.357-1.23.036-.275-.323-.17-.865.231-1.21.406-.343.957-.36 1.23-.038.28.322.173.864-.231 1.212zM84.333 7.76c.249-.29.747-.274 1.115.04.365.31.463.8.211 1.094-.25.29-.751.279-1.116-.036-.366-.31-.462-.802-.21-1.097zm10.3 46.01c.277-.324.829-.308 1.238.037.403.348.507.89.23 1.214-.274.324-.828.307-1.233-.037-.406-.348-.51-.89-.235-1.213zm-5.24 20.491s-.686-1.049-.686-2.755V62.18l-5.142-.004c-1.836 0-3.234 1.213-3.234 1.213s-.01-7.391-.01-10.864c0-3.475 1.695-7.638 7.748-7.638h2.635c1.99 0 2.668.744 2.668.744h-5.303c-5.279 0-6.954 3.685-6.954 6.894 0 3.203-.006 9.404-.006 9.404s.827-.582 2.188-.582h9.794c3.446 0 3.692 2.665 3.692 3.318v.354c0 5.149-3.324 5.372-3.324 5.372l1.464 2.042c1.614-.796 3.34-2.132 4.154-4.269.515-1.355.932-3.076.932-5.313V51.66c0-6.46-3.23-9.687-9.689-9.687h-1.124a3.818 3.818 0 01-.418-1.753V25.568c0-4.482-2.55-6.848-6.831-7.099h-.006a3.171 3.171 0 01-.338-1.424v-4.378l-2.24-.002c-1.312 0-2.401.706-2.401.706s-.005-4.23-.005-6c0-1.884 1.001-4.206 4.094-4.206h1.567c1.014 0 1.361.696 1.361.696h-2.7c-2.692 0-3.544 1.878-3.544 3.51 0 1.636-.004 4.812-.004 4.812s.58-.316 1.754-.316h4.352c1.756 0 1.88 1.361 1.88 1.693v.18c0 2.623-1.695 2.737-1.695 2.737l.747 1.038c.824-.405 1.7-1.082 2.117-2.175.264-.688.473-1.566.473-2.705V6.933C87.359 3.644 85.714 2 82.424 2H71.046c-3.29 0-5.269 1.644-5.269 4.933v10.153c0 .826-.372 1.361-.372 1.361h-.652c-4.747 0-7.121 2.376-7.121 7.12v8.231c0 1.646.305 2.907.685 3.905.598 1.57 1.862 2.55 3.05 3.139l1.08-1.504s-2.441-.162-2.441-3.946v-.26c0-.479.173-2.44 2.71-2.44h7.138c1.072 0 1.67.29 1.67.29l-.002-6.78c0-2.356-1.233-5.065-5.113-5.065H62.51s.5-.752 1.961-.752h2.051c4.227 0 5.819 3.1 5.819 5.817 0 2.556-.01 8.203-.01 8.203s-.958-.867-2.393-.867c-.461 0-3.963 0-4 .003v6.62c0 1.168-.433 1.913-.491 2.006-4.92.773-7.807 3.933-7.807 9.493v9.687h-.002v10.238c0 1.626-.732 2.675-.732 2.675h-5.072v2.187h51.046V74.26H89.392z" fill="#467C3F"/></g></g><g opacity=".65"><mask id="mask3_2335_5587" style="mask-type:alpha" maskUnits="userSpaceOnUse" x="96" y="0" width="25" height="18"><path fill="#467C3F" d="M96 0h25v18H96z"/></mask><g mask="url(#mask3_2335_5587)"><path fill-rule="evenodd" clip-rule="evenodd" d="M115.515 71.56c-.041 2.115-.789 2.7-.789 2.7H95.464s-.655-.778-.655-2.728v-2.186s.003-2.982 3.227-2.982h14.274c3.228 0 3.23 2.805 3.23 3.226 0 1.215-.01 1.203-.025 1.97zm-11.402-35.18h10.492c2.374 0 2.376 2.195 2.376 2.195v1.606c0 .949-.212 1.516-.355 1.792h-14.461c-.164-.26-.39-.794-.407-1.772-.011-.567-.02-.557-.02-1.448 0-.309.003-2.373 2.375-2.373zm-3.37-17.933s-.334-.396-.334-1.39v-1.11s0-1.523 1.645-1.523h7.269c1.646 0 1.646 1.433 1.646 1.646 0 .619-.003.61-.011 1.002-.02 1.078-.404 1.375-.404 1.375h-9.811zm-7.201 9.722c-.403.342-.957.357-1.23.036-.275-.323-.17-.865.231-1.21.405-.343.957-.36 1.23-.038.28.322.173.864-.231 1.212zm22.791-20.41c.249-.29.747-.274 1.115.04.365.31.463.8.211 1.094-.25.29-.751.279-1.116-.036-.366-.31-.462-.802-.21-1.097zm10.3 46.01c.277-.324.829-.308 1.238.037.403.348.507.89.23 1.214-.274.324-.828.307-1.233-.037-.406-.348-.509-.89-.235-1.213zm-5.241 20.491s-.684-1.049-.684-2.755V62.18l-5.143-.004c-1.836 0-3.234 1.213-3.234 1.213s-.01-7.391-.01-10.864c0-3.475 1.695-7.638 7.748-7.638h2.635c1.99 0 2.668.744 2.668.744h-5.303c-5.278 0-6.954 3.685-6.954 6.894 0 3.203-.006 9.404-.006 9.404s.827-.582 2.188-.582h9.794c3.446 0 3.692 2.665 3.692 3.318v.354c0 5.149-3.324 5.372-3.324 5.372l1.464 2.042c1.614-.796 3.339-2.132 4.154-4.269.515-1.355.932-3.076.932-5.313V51.66c0-6.46-3.23-9.687-9.689-9.687h-1.124a3.823 3.823 0 01-.418-1.753V25.568c0-4.482-2.549-6.848-6.831-7.099h-.006a3.181 3.181 0 01-.338-1.424v-4.378l-2.24-.002c-1.312 0-2.401.706-2.401.706s-.005-4.23-.005-6c0-1.884 1.001-4.206 4.094-4.206h1.567c1.014 0 1.361.696 1.361.696h-2.7c-2.692 0-3.544 1.878-3.544 3.51 0 1.636-.005 4.812-.005 4.812s.581-.316 1.755-.316h4.351c1.757 0 1.88 1.361 1.88 1.693v.18c0 2.623-1.694 2.737-1.694 2.737l.747 1.038c.824-.405 1.701-1.082 2.117-2.175.264-.688.472-1.566.472-2.705V6.933c0-3.289-1.644-4.933-4.934-4.933h-11.378c-3.29 0-5.269 1.644-5.269 4.933v10.153c0 .826-.372 1.361-.372 1.361h-.652c-4.747 0-7.121 2.376-7.121 7.12v8.231c0 1.646.305 2.907.685 3.905.598 1.57 1.863 2.55 3.05 3.139l1.08-1.504s-2.441-.162-2.441-3.946v-.26c0-.479.174-2.44 2.71-2.44h7.138c1.072 0 1.67.29 1.67.29l-.002-6.78c0-2.356-1.233-5.065-5.113-5.065H94.51s.5-.752 1.961-.752h2.051c4.227 0 5.819 3.1 5.819 5.817 0 2.556-.01 8.203-.01 8.203s-.958-.867-2.393-.867c-.461 0-3.963 0-4 .003v6.62c0 1.168-.433 1.913-.491 2.006-4.92.773-7.807 3.933-7.807 9.493v9.687h-.002v10.238c0 1.626-.732 2.675-.732 2.675h-5.072v2.187h51.046V74.26h-13.489z" fill="#467C3F"/></g></g><mask id="mask4_2335_5587" style="mask-type:alpha" maskUnits="userSpaceOnUse" x="128" y="0" width="25" height="18"><path fill="#467C3F" d="M128 0h25v18h-25z"/></mask><g mask="url(#mask4_2335_5587)"><path fill-rule="evenodd" clip-rule="evenodd" d="M147.515 71.56c-.041 2.115-.789 2.7-.789 2.7h-19.262s-.655-.778-.655-2.728v-2.186s.003-2.982 3.227-2.982h14.274c3.228 0 3.23 2.805 3.23 3.226 0 1.215-.01 1.203-.025 1.97zm-11.402-35.18h10.492c2.374 0 2.376 2.195 2.376 2.195v1.606c0 .949-.212 1.516-.355 1.792h-14.461c-.164-.26-.39-.794-.407-1.772-.011-.567-.02-.557-.02-1.448 0-.309.003-2.373 2.375-2.373zm-3.37-17.933s-.334-.396-.334-1.39v-1.11s0-1.523 1.645-1.523h7.269c1.646 0 1.646 1.433 1.646 1.646 0 .619-.003.61-.011 1.002-.02 1.078-.404 1.375-.404 1.375h-9.811zm-7.201 9.722c-.403.342-.957.357-1.231.036-.274-.323-.17-.865.232-1.21.406-.343.957-.36 1.231-.038.278.322.172.864-.232 1.212zm22.791-20.41c.249-.29.747-.274 1.115.04.365.31.463.8.211 1.094-.25.29-.751.279-1.116-.036-.366-.31-.462-.802-.21-1.097zm10.3 46.01c.277-.324.829-.308 1.238.037.403.348.507.89.23 1.214-.274.324-.828.307-1.233-.037-.406-.348-.509-.89-.235-1.213zm-5.241 20.491s-.684-1.049-.684-2.755V62.18l-5.143-.004c-1.836 0-3.234 1.213-3.234 1.213s-.01-7.391-.01-10.864c0-3.475 1.695-7.638 7.748-7.638h2.635c1.99 0 2.668.744 2.668.744h-5.303c-5.278 0-6.954 3.685-6.954 6.894 0 3.203-.006 9.404-.006 9.404s.827-.582 2.188-.582h9.794c3.446 0 3.692 2.665 3.692 3.318v.354c0 5.149-3.324 5.372-3.324 5.372l1.464 2.042c1.614-.796 3.339-2.132 4.154-4.269.515-1.355.932-3.076.932-5.313V51.66c0-6.46-3.23-9.687-9.689-9.687h-1.124a3.823 3.823 0 01-.418-1.753V25.568c0-4.482-2.549-6.848-6.831-7.099h-.006a3.181 3.181 0 01-.338-1.424v-4.378l-2.24-.002c-1.312 0-2.401.706-2.401.706s-.005-4.23-.005-6c0-1.884 1.001-4.206 4.094-4.206h1.567c1.014 0 1.361.696 1.361.696h-2.7c-2.692 0-3.544 1.878-3.544 3.51 0 1.636-.005 4.812-.005 4.812s.581-.316 1.755-.316h4.351c1.757 0 1.88 1.361 1.88 1.693v.18c0 2.623-1.694 2.737-1.694 2.737l.747 1.038c.824-.405 1.701-1.082 2.117-2.175.264-.688.472-1.566.472-2.705V6.933c0-3.289-1.644-4.933-4.934-4.933h-11.378c-3.289 0-5.269 1.644-5.269 4.933v4.934h-.001v5.219c0 .826-.371 1.361-.371 1.361h-.652c-4.747 0-7.121 2.376-7.121 7.12v8.231c0 1.646.305 2.907.685 3.905.598 1.57 1.863 2.55 3.05 3.139l1.08-1.504s-2.441-.162-2.441-3.946v-.26c0-.479.174-2.44 2.711-2.44h7.137c1.072 0 1.67.29 1.67.29l-.002-6.78c0-2.356-1.233-5.065-5.113-5.065h-3.898s.5-.752 1.961-.752h2.051c4.227 0 5.819 3.1 5.819 5.817 0 2.556-.01 8.203-.01 8.203s-.958-.867-2.393-.867c-.461 0-3.963 0-4 .003v6.62c0 1.168-.433 1.913-.491 2.006-4.92.773-7.807 3.933-7.807 9.493v9.687h-.002v10.238c0 1.626-.732 2.675-.732 2.675h-5.072v2.187h51.046V74.26h-13.489z" fill="#467C3F"/></g></symbol><symbol id="refresh" viewBox="0 0 28 17"><path d="M14 0C6.4 0 .667 2.867.667 6.667c0 3.266 4.253 5.84 10.28 6.506l-.56.547a1.333 1.333 0 000 1.893 1.333 1.333 0 001.893 0l2.667-2.666c.12-.127.216-.277.28-.44a1.333 1.333 0 000-1.014 1.334 1.334 0 00-.28-.44L12.28 8.387a1.339 1.339 0 10-1.893 1.893l.16.147C6 9.787 3.332 8 3.332 6.667c0-1.627 4.16-4 10.667-4 6.506 0 10.666 2.373 10.666 4 0 1.106-1.933 2.666-5.613 3.466a1.335 1.335 0 10.534 2.614c4.866-1.067 7.746-3.334 7.746-6.08C27.333 2.867 21.6 0 14 0z"/></symbol><symbol id="screen" viewBox="0 0 28 28"><path d="M23.333.667H4.667a4 4 0 00-4 4V18a4 4 0 004 4h3.52l-.774 1.333a2.667 2.667 0 002.333 4h8.614a2.666 2.666 0 002.306-4L19.88 22h3.453a4 4 0 004-4V4.667a4 4 0 00-4-4zm-13.64 24L11.333 22h5.333l1.6 2.667H9.694zM24.666 18a1.334 1.334 0 01-1.333 1.333H4.667A1.333 1.333 0 013.332 18v-1.333h21.334V18zm0-4H3.334V4.667a1.333 1.333 0 011.333-1.334h18.667a1.333 1.333 0 011.334 1.334V14z" fill="#467C3F"/></symbol><symbol id="shield" viewBox="0 0 22 28"><path d="M21.174 2.867a1.333 1.333 0 00-1.12-.267A10.666 10.666 0 0111.76.907a1.333 1.333 0 00-1.52 0A10.667 10.667 0 011.947 2.6 1.333 1.333 0 00.334 3.907v9.933a12 12 0 005.026 9.773l4.867 3.467a1.334 1.334 0 001.546 0l4.867-3.467a12 12 0 005.027-9.773V3.907a1.333 1.333 0 00-.494-1.04zM19 13.84a9.334 9.334 0 01-3.906 7.6L11 24.36l-4.093-2.92A9.334 9.334 0 013 13.84v-8.4c2.795.24 5.595-.41 8-1.853a13.333 13.333 0 008 1.853v8.4z"/></symbol><symbol id="tab" viewBox="0 0 28 28"><path d="M2.001 10a1.333 1.333 0 001.334-1.333v-4a1.333 1.333 0 011.333-1.334h4a1.333 1.333 0 100-2.666h-4a4 4 0 00-4 4v4A1.333 1.333 0 002.001 10zm6.667 14.667h-4a1.334 1.334 0 01-1.333-1.334v-4a1.333 1.333 0 10-2.667 0v4a4 4 0 004 4h4a1.333 1.333 0 000-2.666zm5.333-16a5.333 5.333 0 100 10.666 5.333 5.333 0 000-10.666zm0 8a2.667 2.667 0 110-5.334 2.667 2.667 0 010 5.334zm9.334-16h-4a1.333 1.333 0 000 2.666h4a1.333 1.333 0 011.333 1.334v4a1.333 1.333 0 102.667 0v-4a4 4 0 00-4-4zM26 18a1.333 1.333 0 00-1.333 1.333v4a1.333 1.333 0 01-1.333 1.334h-4a1.334 1.334 0 000 2.666h4a4 4 0 004-4v-4A1.333 1.333 0 0026 18z"/></symbol><symbol id="theme-dark" viewBox="0 0 22 24"><path d="M11.54 23.345c4.416.046 8.45-2.46 10.31-6.402a8.931 8.931 0 01-3.716.722c-5.005-.006-9.061-3.999-9.067-8.927.05-3.333 1.918-6.381 4.89-7.98A17.5 17.5 0 0011.54.624C5.166.624 0 5.71 0 11.984c0 6.275 5.166 11.361 11.54 11.361z"/></symbol><symbol id="theme-light" viewBox="0 0 29 28"><path fill-rule="evenodd" clip-rule="evenodd" d="M11.912 4.5L14.44 0l2.526 4.5a9.211 9.211 0 00-2.526-.344 9.2 9.2 0 00-2.527.345zm2.527 1.297c-4.523 0-8.203 3.68-8.203 8.203s3.68 8.203 8.203 8.203 8.203-3.68 8.203-8.203-3.68-8.203-8.203-8.203zm8.515 13.125a9.89 9.89 0 01-3.61 3.61l4.939 1.328-1.33-4.938zM4.595 4.156l1.329 4.922a9.758 9.758 0 013.577-3.593L4.595 4.156zM.455 14l4.485-2.543A9.24 9.24 0 004.595 14c0 .886.115 1.74.345 2.543L.455 14zm5.469 4.922L4.595 23.86l4.938-1.329a9.892 9.892 0 01-3.609-3.61zm5.955 4.577c.82.23 1.674.345 2.56.345.886 0 1.739-.115 2.56-.345l-2.56 4.5-2.56-4.5zm7.49-18.006a9.903 9.903 0 013.583 3.587l1.336-4.922-4.918 1.335zm4.572 5.978l4.482 2.537-4.487 2.54A9.795 9.795 0 0024.283 14c0-.876-.126-1.72-.342-2.53z"/></symbol><symbol id="wheel" viewBox="0 0 27 27"><path d="M13.333 0a13.333 13.333 0 100 26.667 13.333 13.333 0 000-26.667zm0 24a10.666 10.666 0 110-21.333 10.666 10.666 0 010 21.333z" fill="#467C3F"/><path d="M13.5 1.5v24m8.485-20.485l-16.97 16.97M25.5 13.5h-24m20.485 8.485L5.015 5.015" stroke="#467C3F" stroke-width="2.4"/></symbol><symbol id="cow" viewBox="0 0 42 32"><path d="M.715 12.081c.075.421.178.839.227 1.263.107.944.298 1.896.254 2.836-.057 1.2-.312 2.392-.481 3.587l.189-.08.765 1.165-.386 1.24.364-.291.318 1.858.298-.246.154.813.1-.006.159-.638.15.005c.77 2.326 1.707 4.497 1.893 6.843 0 0-.135.422.166.614.3.19 3.388.218 3.66 0 .274-.219-.65-1.295-1.335-1.59-.215-.892-.467-1.67-.608-2.573a23.164 23.164 0 01-.24-2.78c-.032-.936.307-1.76.824-2.55.39-.597.67-1.276.927-1.946.269-.706.413-1.46.683-2.165.227-.596.517-.606 1.017-.196.51.418 1.008.917 1.601 1.153.73.29 1.55.354 2.335.497.459.084.926.194 1.386.182 1.406-.038 2.808-.147 4.213-.192.632-.02 1.065.317 1.179.939.172.937.215 1.9.418 2.828.202.927.166 1.888.635 2.788.506.969.703 2.069.36 3.169-.08.254-.281.511-.499.662 0 0-.255 1.281.036 1.573.292.29 1.822.182 2.66.11 0 0 2.112.436 2.95.181.838-.255.4-.765.328-1.056-.073-.291-.642-.362-.642-.362-.111-.216-.498-.312-.541-.54-.204-1.067-.139-2.122.138-3.18.344-1.312.593-2.65.957-3.957.127-.454.422-.892.736-1.254.585-.675 1.617-.829 2.058-1.696.006-.012.031-.017.048-.023.853-.3 1.218-.988 1.457-1.795.125-.422.307-.828.475-1.236.498-1.207 1.45-2.06 2.365-2.923.277-.26.758-.51 1.1-.46 1.052.156 2.082.421 3.12-.038.047-.022.108-.058.15-.045.743.24 1.385-.014 2-.4.18-.113.502-.24.5-.354-.012-.51-.016-1.061-.211-1.516-.288-.669-.774-1.248-1.102-1.903-.225-.449-.232-.96-.046-1.477.158.054.26.088.36.124.693.25 1.19-.15 1.12-.866a.918.918 0 01.16-.588c.626-.832.497-1.36-.484-1.746a1.5 1.5 0 00-.634-.073c-.392.027-.782.095-1.102.137-.21-.297-.326-.626-.551-.74-.377-.192-.61-.387-.492-.77l-1.931-.718.308-.162-.056-.151-1.714.522c.013.347-.007.702-.552.666-.087-.006-.198.091-.27.167-.316.327-.635.499-1.097.23-.138-.081-.4-.019-.577.05-.54.206-1.004.54-1.667.46-.461-.057-.96.214-1.446.316-1.12.233-2.219.273-3.246-.364a1.073 1.073 0 00-.516-.155c-.729-.017-1.46.013-2.188-.015-.49-.02-.977-.105-1.465-.163-.245-.03-.488-.076-.733-.095-.585-.043-1.2.025-1.746-.14a2.18 2.18 0 00-1.257.008c-.756.246-1.477.187-2.167-.021-2.205-.666-4.47-.988-6.742-1.27-.48-.057-.858-.233-1.236-.466C7.772.92 7.513.7 7.196.936 6.829.84 6.41.71 6.099.838c-.435.18-1.011-.059-1.328.446-.012.02-.101 0-.153-.011-.599-.124-1.08.2-1.5.511-.483.358-.954.546-1.52.416-.25.312-.2.84-.745.862-.046.002-.108.104-.127.169-.14.482-.23.984-.414 1.448-.36.905-.197 1.856-.298 2.782-.03.277-.01.567.036.843.212 1.26.441 2.518.665 3.776zm23.28 13.997l.145-.008c.078.561.198 1.12.221 1.684.023.575.134 1.18-.203 1.805-.392-1.217-.567-2.343-.164-3.481z"/></symbol><symbol id="elephant" viewBox="0 0 25 16"><path fill-rule="evenodd" clip-rule="evenodd" d="M19.515 70.06c-.04 2.115-.789 2.7-.789 2.7H-.536s-.655-.778-.655-2.728v-2.186s.003-2.982 3.227-2.982H16.31c3.229 0 3.231 2.805 3.231 3.226 0 1.215-.01 1.203-.025 1.97zM8.113 34.88h10.492c2.374 0 2.376 2.195 2.376 2.195v1.606c0 .949-.212 1.516-.355 1.792H6.165c-.164-.26-.39-.794-.407-1.772-.011-.567-.02-.557-.02-1.448 0-.309.003-2.373 2.375-2.373zm-3.37-17.933s-.334-.396-.334-1.39v-1.11s0-1.523 1.645-1.523h7.269c1.646 0 1.646 1.433 1.646 1.646 0 .619-.003.61-.01 1.002-.021 1.078-.405 1.375-.405 1.375H4.742zm-7.201 9.722c-.403.342-.957.357-1.23.036-.275-.323-.17-.865.231-1.21.406-.343.957-.36 1.23-.038.28.322.173.864-.231 1.212zM20.333 6.26c.249-.29.747-.274 1.115.04.365.31.462.8.211 1.094-.25.29-.751.279-1.116-.036-.366-.31-.462-.802-.21-1.097zm10.3 46.01c.277-.324.829-.308 1.238.037.403.348.507.89.23 1.214-.274.324-.828.307-1.233-.037-.406-.348-.51-.89-.235-1.213zm-5.24 20.491s-.686-1.049-.686-2.755V60.68l-5.142-.004c-1.836 0-3.234 1.213-3.234 1.213s-.01-7.391-.01-10.864c0-3.475 1.695-7.638 7.748-7.638h2.635c1.99 0 2.668.744 2.668.744h-5.303c-5.278 0-6.954 3.685-6.954 6.894 0 3.203-.006 9.404-.006 9.404s.827-.582 2.188-.582h9.794c3.446 0 3.692 2.665 3.692 3.318v.354c0 5.149-3.324 5.372-3.324 5.372l1.464 2.042c1.614-.796 3.34-2.132 4.154-4.269.515-1.355.932-3.076.932-5.313V50.16c0-6.46-3.23-9.687-9.689-9.687h-1.124a3.818 3.818 0 01-.418-1.753V24.067c0-4.481-2.55-6.847-6.831-7.098h-.006a3.171 3.171 0 01-.338-1.424v-4.378l-2.24-.002c-1.312 0-2.401.706-2.401.706s-.005-4.23-.005-6c0-1.884 1.001-4.206 4.094-4.206h1.567c1.014 0 1.361.696 1.361.696h-2.7c-2.692 0-3.544 1.878-3.544 3.51 0 1.636-.005 4.812-.005 4.812s.581-.316 1.755-.316h4.352c1.756 0 1.88 1.361 1.88 1.693v.18c0 2.623-1.695 2.736-1.695 2.736l.747 1.039c.824-.405 1.7-1.082 2.117-2.175.264-.688.473-1.566.473-2.705V5.433C23.358 2.144 21.713.5 18.424.5H7.046c-3.29 0-5.269 1.644-5.269 4.933v10.153c0 .826-.372 1.361-.372 1.361H.753c-4.747 0-7.121 2.376-7.121 7.12v8.231c0 1.646.305 2.907.685 3.905.598 1.57 1.863 2.55 3.05 3.139l1.08-1.504s-2.441-.162-2.441-3.946v-.26c0-.479.174-2.44 2.71-2.44h7.138c1.072 0 1.67.29 1.67.29l-.002-6.78c0-2.356-1.233-5.065-5.113-5.065H-1.49s.5-.752 1.961-.752h2.051c4.227 0 5.819 3.1 5.819 5.817 0 2.556-.01 8.203-.01 8.203s-.958-.867-2.393-.867c-.461 0-3.963 0-4 .003v6.62c0 1.168-.433 1.913-.491 2.006-4.92.773-7.807 3.933-7.807 9.493v9.687h-.002v10.238c0 1.626-.732 2.675-.732 2.675h-5.072v2.187H38.88V72.76H25.392z"/></symbol><symbol id="train" viewBox="0 0 38 24"><path fill-rule="evenodd" clip-rule="evenodd" d="M19.304 8.397H35.85a6.826 6.826 0 012.078 4.906 6.84 6.84 0 01-6.833 6.834H0V0h15.79v4.882a3.518 3.518 0 003.514 3.515zm-15.156.239h7.482v-6.42H4.148v6.42zm13.952 4.45h2.222v-2.223H18.1v2.223zm4.124 0h2.222v-2.223h-2.222v2.223zm4.123 0h2.223v-2.223h-2.223v2.223zM6.372 4.438h3.037v1.974H6.371V4.44zM26.037 1.6A9.22 9.22 0 0020.833 0h-2.821v4.881c0 .713.58 1.292 1.292 1.292h13.459L26.037 1.6zM0 21.778h31.484V24H0v-2.222z"/></symbol><symbol id="truck" viewBox="0 0 42 29"><path d="M1.448 19.322V1.766C1.448.791 2.238 0 3.214 0h17.547c.976 0 1.766.79 1.766 1.766v17.556a.589.589 0 01-.588.589H2.037a.589.589 0 01-.59-.589zm14.17 6.014a3.664 3.664 0 11-7.328 0 3.664 3.664 0 017.327 0zm-1.832 0a1.832 1.832 0 10-3.664 0 1.832 1.832 0 003.664 0zm-4.988-3.663H.588a.589.589 0 00-.588.589v1.786a.59.59 0 00.589.589h6.58a4.833 4.833 0 011.63-2.964zm25.988 3.663a3.664 3.664 0 11-7.328 0 3.664 3.664 0 017.328 0zm-1.832 0a1.832 1.832 0 10-3.664 0 1.832 1.832 0 003.664 0zm8.309-3.074v1.786a.589.589 0 01-.59.589h-4.766a4.844 4.844 0 00-4.785-4.142 4.844 4.844 0 00-4.785 4.142h-9.599a4.833 4.833 0 00-1.629-2.964h9.102V4.83c0-.65.527-1.177 1.177-1.177h5.56a4.71 4.71 0 013.903 2.074l3.583 5.308a4.71 4.71 0 01.807 2.636v8h1.433a.59.59 0 01.589.59zm-5.974-11.09L32.424 7.1a.589.589 0 00-.482-.25h-4.47a.589.589 0 00-.588.589v4.072c0 .325.264.588.589.588h7.335a.589.589 0 00.481-.927z"/></symbol><symbol id="fb" viewBox="0 0 29 29"><path d="M14.5 0C6.492 0 0 6.492 0 14.5S6.492 29 14.5 29 29 22.508 29 14.5 22.508 0 14.5 0zm5.532 7.384l-2.006.001c-1.572 0-1.877.747-1.877 1.844v2.418h3.75l-.001 3.787H16.15v9.718h-3.912v-9.718h-3.27v-3.787h3.27V8.854c0-3.241 1.98-5.006 4.872-5.006l2.922.004v3.532z"/></symbol><symbol id="insta" viewBox="0 0 29 29"><path fill-rule="evenodd" clip-rule="evenodd" d="M0 14.5C0 6.493 6.493 0 14.5 0S29 6.493 29 14.5 22.507 29 14.5 29 0 22.507 0 14.5zm22.389 5.454c.206-.53.347-1.135.387-2.021.04-.888.05-1.172.05-3.433s-.01-2.545-.05-3.433c-.04-.886-.181-1.491-.387-2.02a4.08 4.08 0 00-.96-1.476 4.081 4.081 0 00-1.475-.96c-.53-.206-1.135-.346-2.021-.387-.888-.04-1.172-.05-3.433-.05s-2.545.01-3.433.05c-.886.04-1.491.181-2.02.387a4.078 4.078 0 00-1.476.96c-.423.416-.751.92-.96 1.475-.206.53-.347 1.135-.387 2.021-.04.888-.05 1.172-.05 3.433s.01 2.545.05 3.433c.04.886.181 1.491.387 2.02a4.08 4.08 0 00.96 1.476c.416.423.92.75 1.475.96.53.206 1.135.346 2.021.387.888.04 1.172.05 3.433.05s2.545-.01 3.433-.05c.886-.04 1.491-.181 2.02-.387a4.258 4.258 0 002.436-2.435zM20.991 9.589a2.58 2.58 0 00-.623-.957 2.578 2.578 0 00-.957-.623c-.294-.114-.735-.25-1.546-.286-.879-.04-1.142-.049-3.365-.049-2.223 0-2.487.008-3.365.049-.811.037-1.252.172-1.545.286a2.576 2.576 0 00-.958.623c-.276.269-.49.596-.623.957-.114.294-.25.735-.286 1.547-.04.878-.05 1.14-.05 3.364 0 2.223.01 2.487.05 3.365.037.812.172 1.252.286 1.546.134.361.346.688.623.957.269.277.596.49.957.623.294.114.735.25 1.546.287.878.04 1.141.048 3.365.048 2.223 0 2.487-.008 3.364-.048.812-.037 1.253-.173 1.546-.287.727-.28 1.3-.854 1.58-1.58.115-.294.25-.735.287-1.546.04-.878.049-1.142.049-3.365 0-2.223-.009-2.486-.049-3.364-.037-.812-.172-1.253-.286-1.547zM14.5 18.775a4.275 4.275 0 110-8.55 4.275 4.275 0 010 8.55zm4.445-7.72a1 1 0 110-1.999 1 1 0 010 1.999zm-1.67 3.445a2.775 2.775 0 11-5.55 0 2.775 2.775 0 015.55 0z"/></symbol></svg>