<svg width="839" height="214" viewBox="0 0 839 214" fill="none" xmlns="http://www.w3.org/2000/svg"><path fill="#2F322F" d="M0 0h839v162H0z"/><path fill-rule="evenodd" clip-rule="evenodd" d="M0 111h118v63h603v-63h118v103H0V111z" fill="#D4DBBB"/><mask id="path-3-inside-1_2534_5845" fill="#fff"><path fill-rule="evenodd" clip-rule="evenodd" d="M116 78h31v33h545V78h31v97H116V78z"/></mask><path fill-rule="evenodd" clip-rule="evenodd" d="M116 78h31v33h545V78h31v97H116V78z" fill="#F2802C"/><path d="M147 78h1v-1h-1v1zm-31 0v-1h-1v1h1zm31 33h-1v1h1v-1zm545 0v1h1v-1h-1zm0-33v-1h-1v1h1zm31 0h1v-1h-1v1zm0 97v1h1v-1h-1zm-607 0h-1v1h1v-1zm31-98h-31v2h31v-2zm1 34V78h-2v33h2zm544-1H147v2h545v-2zm1 1V78h-2v33h2zm-1-32h31v-2h-31v2zm30-1v97h2V78h-2zm1 96h-16v2h16v-2zm-16 0h-15v2h15v-2zm-560 2h545v-2H147v2zm-31 0h31v-2h-31v2zm-1-65v64h2v-64h-2zm0-33v33h2V78h-2z" fill="#252924" mask="url(#path-3-inside-1_2534_5845)"/><rect x="157.5" y="78.5" width="523" height="10" rx="1.5" stroke="#F0F0ED" stroke-width="3"/><path d="M194 79v9m38-9v9m38-9v9m38-9v9m38-9v9m38-9v9m38-9v9m38-9v9m38-9v9m38-9v9m38-9v9m38-9v9m38-9v9" stroke="#F0F0ED" stroke-width="3"/><path fill="#F0F0ED" d="M164 90h511v4H164z"/><mask id="path-20-outside-2_2534_5845" maskUnits="userSpaceOnUse" x="658" y="91" width="17" height="10" fill="#000"><path fill="#fff" d="M658 91h17v10h-17z"/><path d="M661 94h11v2a2 2 0 01-2 2h-7a2 2 0 01-2-2v-2z"/></mask><path d="M661 94v-3h-3v3h3zm11 0h3v-3h-3v3zm-11 3h11v-6h-11v6zm8-3v2h6v-2h-6zm1 1h-7v6h7v-6zm-6 1v-2h-6v2h6zm-1-1a1 1 0 011 1h-6a5 5 0 005 5v-6zm6 1a1 1 0 011-1v6a5 5 0 005-5h-6z" fill="#F0F0ED" mask="url(#path-20-outside-2_2534_5845)"/><mask id="path-22-outside-3_2534_5845" maskUnits="userSpaceOnUse" x="411" y="91" width="17" height="10" fill="#000"><path fill="#fff" d="M411 91h17v10h-17z"/><path d="M414 94h11v2a2 2 0 01-2 2h-7a2 2 0 01-2-2v-2z"/></mask><path d="M414 94v-3h-3v3h3zm11 0h3v-3h-3v3zm-11 3h11v-6h-11v6zm8-3v2h6v-2h-6zm1 1h-7v6h7v-6zm-6 1v-2h-6v2h6zm-1-1a1 1 0 011 1h-6a5 5 0 005 5v-6zm6 1a1 1 0 011-1v6a5 5 0 005-5h-6z" fill="#F0F0ED" mask="url(#path-22-outside-3_2534_5845)"/><mask id="path-24-outside-4_2534_5845" maskUnits="userSpaceOnUse" x="164" y="91" width="17" height="10" fill="#000"><path fill="#fff" d="M164 91h17v10h-17z"/><path d="M167 94h11v2a2 2 0 01-2 2h-7a2 2 0 01-2-2v-2z"/></mask><path d="M167 94v-3h-3v3h3zm11 0h3v-3h-3v3zm-11 3h11v-6h-11v6zm8-3v2h6v-2h-6zm1 1h-7v6h7v-6zm-6 1v-2h-6v2h6zm-1-1a1 1 0 011 1h-6a5 5 0 005 5v-6zm6 1a1 1 0 011-1v6a5 5 0 005-5h-6z" fill="#F0F0ED" mask="url(#path-24-outside-4_2534_5845)"/><mask id="path-26-outside-5_2534_5845" maskUnits="userSpaceOnUse" x="658" y="101" width="17" height="10" fill="#000"><path fill="#fff" d="M658 101h17v10h-17z"/><path d="M661 108h11v-2a2 2 0 00-2-2h-7a2 2 0 00-2 2v2z"/></mask><path d="M661 108v3h-3v-3h3zm11 0h3v3h-3v-3zm-11-3h11v6h-11v-6zm8 3v-2h6v2h-6zm1-1h-7v-6h7v6zm-6-1v2h-6v-2h6zm-1 1a1 1 0 001-1h-6a5 5 0 015-5v6zm6-1a1 1 0 001 1v-6a5 5 0 015 5h-6z" fill="#F0F0ED" mask="url(#path-26-outside-5_2534_5845)"/><mask id="path-28-outside-6_2534_5845" maskUnits="userSpaceOnUse" x="411" y="101" width="17" height="10" fill="#000"><path fill="#fff" d="M411 101h17v10h-17z"/><path d="M414 108h11v-2a2 2 0 00-2-2h-7a2 2 0 00-2 2v2z"/></mask><path d="M414 108v3h-3v-3h3zm11 0h3v3h-3v-3zm-11-3h11v6h-11v-6zm8 3v-2h6v2h-6zm1-1h-7v-6h7v6zm-6-1v2h-6v-2h6zm-1 1a1 1 0 001-1h-6a5 5 0 015-5v6zm6-1a1 1 0 001 1v-6a5 5 0 015 5h-6z" fill="#F0F0ED" mask="url(#path-28-outside-6_2534_5845)"/><mask id="path-30-outside-7_2534_5845" maskUnits="userSpaceOnUse" x="164" y="101" width="17" height="10" fill="#000"><path fill="#fff" d="M164 101h17v10h-17z"/><path d="M167 108h11v-2a2 2 0 00-2-2h-7a2 2 0 00-2 2v2z"/></mask><path d="M167 108v3h-3v-3h3zm11 0h3v3h-3v-3zm-11-3h11v6h-11v-6zm8 3v-2h6v2h-6zm1-1h-7v-6h7v6zm-6-1v2h-6v-2h6zm-1 1a1 1 0 001-1h-6a5 5 0 015-5v6zm6-1a1 1 0 001 1v-6a5 5 0 015 5h-6z" fill="#F0F0ED" mask="url(#path-30-outside-7_2534_5845)"/><path fill="#252924" d="M0 111h117v6H0z"/><path d="M94 137.5l21-24M73 137l21-24m-42 23.5l21-24M31 136l21-24m-42 23.5l21-24M.5 122l9.5-11" stroke="#252924"/><path fill="#252924" d="M839 111H722v6h117z"/><path d="M745 137.5l-21-24m42 23.5l-21-24m42 23.5l-21-24m42 23.5l-21-24m42 23.5l-21-24m30.5 10.5l-9.5-11" stroke="#252924"/><path fill-rule="evenodd" clip-rule="evenodd" d="M33.968 154c1.104 0 2-.672 2-1.5s-.896-1.5-2-1.5c-1.105 0-2 .672-2 1.5s.895 1.5 2 1.5zm36 6c0 1.657-.895 3-2 3s-2-1.343-2-3 .895-3 2-3 2 1.343 2 3zm-52.394 31.961c-1.625-.326-2.765-1.469-2.547-2.552.217-1.083 1.71-1.696 3.335-1.369 1.624.326 2.765 1.469 2.547 2.552-.218 1.083-1.71 1.696-3.335 1.369zM81.968 177c1.105 0 2-1.343 2-3s-.895-3-2-3-2 1.343-2 3 .895 3 2 3zm-30-3c0 1.657-.896 3-2 3-1.105 0-2-1.343-2-3s.895-3 2-3c1.104 0 2 1.343 2 3zm-34 0c1.105 0 2-.672 2-1.5s-.895-1.5-2-1.5-2 .672-2 1.5.895 1.5 2 1.5zm48 18.5c0 .828-.895 1.5-2 1.5s-2-.672-2-1.5.895-1.5 2-1.5 2 .672 2 1.5zm46-10c0 .828-.896 1.5-2 1.5-1.105 0-2-.672-2-1.5s.895-1.5 2-1.5c1.104 0 2 .672 2 1.5zm636-27.5c1.105 0 2-.672 2-1.5s-.895-1.5-2-1.5-2 .672-2 1.5.895 1.5 2 1.5zm36 6c0 1.657-.895 3-2 3s-2-1.343-2-3 .895-3 2-3 2 1.343 2 3zm-52.394 31.961c-1.625-.326-2.765-1.469-2.547-2.552.217-1.083 1.711-1.696 3.335-1.369 1.624.326 2.765 1.469 2.547 2.552-.218 1.083-1.711 1.696-3.335 1.369zM795.968 178c1.105 0 2-1.343 2-3s-.895-3-2-3-2 1.343-2 3 .895 3 2 3zm-30-3c0 1.657-.895 3-2 3s-2-1.343-2-3 .895-3 2-3 2 1.343 2 3zm-34 0c1.105 0 2-.672 2-1.5s-.895-1.5-2-1.5-2 .672-2 1.5.895 1.5 2 1.5zm48 18.5c0 .828-.895 1.5-2 1.5s-2-.672-2-1.5.895-1.5 2-1.5 2 .672 2 1.5zm46-10c0 .828-.895 1.5-2 1.5s-2-.672-2-1.5.895-1.5 2-1.5 2 .672 2 1.5zM196 184c1.105 0 2-.672 2-1.5s-.895-1.5-2-1.5c-1.104 0-2 .672-2 1.5s.896 1.5 2 1.5zm-26.032 12c1.104 0 2-1.343 2-3s-.896-3-2-3c-1.105 0-2 1.343-2 3s.895 3 2 3zm-76.574 5.961c-.217 1.083.923 2.226 2.547 2.552 1.625.327 3.118-.287 3.336-1.37.217-1.083-.923-2.225-2.547-2.552-1.625-.326-3.118.287-3.336 1.37zM185.968 207c0 1.657-.896 3-2 3-1.105 0-2-1.343-2-3s.895-3 2-3c1.104 0 2 1.343 2 3zm-34 3c1.104 0 2-1.343 2-3s-.896-3-2-3c-1.105 0-2 1.343-2 3s.895 3 2 3zm-30-4.5c0 .828-.896 1.5-2 1.5-1.105 0-2-.672-2-1.5s.895-1.5 2-1.5c1.104 0 2 .672 2 1.5zm16-20c0 .828-.896 1.5-2 1.5-1.105 0-2-.672-2-1.5s.895-1.5 2-1.5c1.104 0 2 .672 2 1.5zM216 205c1.105 0 2-.672 2-1.5s-.895-1.5-2-1.5c-1.104 0-2 .672-2 1.5s.896 1.5 2 1.5zm30.57-.055c.315-1.626 1.449-2.775 2.533-2.565 1.085.21 1.709 1.698 1.394 3.325-.315 1.627-1.449 2.775-2.533 2.566-1.085-.21-1.709-1.699-1.394-3.326zm93.886-10.016c1.532.629 2.435 1.967 2.016 2.989-.42 1.022-2.002 1.34-3.535.711-1.533-.629-2.436-1.967-2.016-2.989.419-1.022 2.002-1.34 3.535-.711zm-66.064 2.459c-1.085-.21-2.219.938-2.533 2.565-.315 1.627.309 3.116 1.393 3.325 1.085.21 2.219-.938 2.534-2.565.314-1.627-.31-3.116-1.394-3.325zm28.884 8.643c.315-1.626 1.449-2.775 2.534-2.565 1.084.209 1.708 1.698 1.393 3.325-.314 1.627-1.448 2.775-2.533 2.565-1.084-.209-1.708-1.698-1.394-3.325zm73.381-13.542c-1.084-.21-2.091.28-2.248 1.093-.158.813.594 1.643 1.679 1.853 1.084.209 2.091-.28 2.248-1.093.157-.814-.594-1.643-1.679-1.853zm-83.612-7.28c.157-.813 1.164-1.303 2.248-1.093 1.085.21 1.836 1.039 1.679 1.853-.158.813-1.164 1.302-2.249 1.093-1.084-.21-1.836-1.04-1.678-1.853zm25.489-.829c-1.085-.21-2.092.279-2.249 1.093-.157.813.594 1.642 1.679 1.852 1.084.21 2.091-.279 2.248-1.093.158-.813-.594-1.642-1.678-1.852zm-72.551 1.91c.157-.813 1.164-1.303 2.248-1.093 1.085.21 1.836 1.039 1.679 1.853-.158.813-1.164 1.302-2.249 1.093-1.084-.21-1.836-1.04-1.678-1.853zm157.165 16.191c-1.084-.209-2.219.939-2.533 2.566-.315 1.627.309 3.115 1.393 3.325 1.085.21 2.219-.939 2.534-2.565.315-1.627-.31-3.116-1.394-3.326zm93.368-4.461c.42-1.022-.483-2.361-2.016-2.99s-3.115-.31-3.534.712c-.42 1.021.483 2.36 2.016 2.989 1.532.629 3.115.31 3.534-.711zm-70.613 2.035c.315-1.627 1.449-2.776 2.534-2.566 1.084.21 1.708 1.699 1.393 3.325-.314 1.627-1.448 2.776-2.533 2.566-1.084-.21-1.708-1.699-1.394-3.325zm33.951 3.512c-1.084-.21-2.218.939-2.533 2.566-.315 1.626.309 3.115 1.394 3.325 1.084.21 2.218-.939 2.533-2.566.315-1.626-.309-3.115-1.394-3.325zm68.6-9.883c.157-.814 1.164-1.303 2.248-1.093 1.084.21 1.836 1.039 1.679 1.852-.158.814-1.164 1.303-2.249 1.093-1.084-.21-1.836-1.039-1.678-1.852zm-79.116-9.466c-1.085-.21-2.091.279-2.249 1.093-.157.813.595 1.642 1.679 1.852 1.084.21 2.091-.279 2.248-1.093.158-.813-.594-1.642-1.678-1.852zm20.992 1.356c.157-.813 1.164-1.302 2.248-1.093 1.085.21 1.836 1.04 1.679 1.853-.157.813-1.164 1.303-2.249 1.093-1.084-.21-1.836-1.039-1.678-1.853zm-68.054-.275c-1.085-.21-2.091.279-2.249 1.093-.157.813.594 1.642 1.679 1.852 1.084.21 2.091-.279 2.248-1.093.158-.813-.594-1.642-1.678-1.852zm291.298 2.561c-.429 1.6-1.641 2.666-2.708 2.38-1.067-.286-1.584-1.815-1.156-3.415.429-1.601 1.642-2.666 2.709-2.381 1.067.286 1.584 1.815 1.155 3.416zm-94.358 3.357c-1.485-.736-2.291-2.135-1.8-3.125.49-.989 2.091-1.195 3.576-.459 1.484.735 2.29 2.134 1.8 3.124-.491.99-2.092 1.195-3.576.46zm66.072 2.215c1.067.286 2.279-.779 2.708-2.38.429-1.6-.088-3.129-1.155-3.415-1.067-.286-2.28.78-2.709 2.38-.429 1.6.089 3.129 1.156 3.415zm-28.202-10.662c-.428 1.6-1.641 2.666-2.708 2.38-1.067-.286-1.584-1.815-1.155-3.415.428-1.601 1.641-2.666 2.708-2.38 1.067.285 1.584 1.815 1.155 3.415zm-74.154 8.323c1.067.286 2.106-.131 2.32-.931.214-.8-.477-1.681-1.544-1.967-1.067-.286-2.105.131-2.32.932-.214.8.477 1.68 1.544 1.966zm82.889 13.169c-.214.801-1.253 1.218-2.32.932-1.067-.286-1.758-1.167-1.543-1.967.214-.8 1.253-1.217 2.32-.931 1.067.286 1.758 1.166 1.543 1.966zm-25.483-.974c1.067.286 2.105-.131 2.32-.931.214-.8-.477-1.68-1.544-1.966-1.067-.286-2.106.131-2.32.931-.214.8.477 1.681 1.544 1.966zm72.504 3.221c-.214.8-1.253 1.217-2.32.931-1.067-.286-1.758-1.167-1.544-1.967.215-.8 1.254-1.217 2.32-.931 1.067.286 1.758 1.166 1.544 1.967z" fill="#A0AB7B"/><path d="M722.5 110.5V78.67l107.064 31.83H722.5zm-606 0V78.67L9.436 110.5H116.5z" fill="#F2802C" stroke="#252924"/></svg>