<svg width="38" height="12" viewBox="0 0 38 12" xmlns="http://www.w3.org/2000/svg">
<path d="M0 11.8478V0.768548H3.97971C5.4052 0.768548 6.48827 1.0298 7.22892 1.55231C7.97464 2.07483 8.3475 2.83323 8.3475 3.82752C8.3475 4.40076 8.2156 4.8903 7.95181 5.29613C7.68801 5.70197 7.29994 6.00127 6.78757 6.19404C7.36588 6.34623 7.80977 6.63031 8.11921 7.04629C8.42866 7.46227 8.58339 7.96956 8.58339 8.56817C8.58339 9.65377 8.23843 10.4705 7.54851 11.0184C6.86367 11.5612 5.84654 11.8377 4.49715 11.8478H0ZM2.67089 7.1376V9.79328H4.42105C4.90298 9.79328 5.2733 9.68421 5.53202 9.46607C5.79074 9.24287 5.9201 8.93088 5.9201 8.53012C5.9201 7.60685 5.461 7.14268 4.5428 7.1376H2.67089ZM2.67089 5.38744H4.06341C4.6468 5.38237 5.06278 5.27584 5.31135 5.06785C5.55992 4.85986 5.68421 4.55295 5.68421 4.14711C5.68421 3.68041 5.54978 3.34559 5.28091 3.14268C5.01205 2.93469 4.57831 2.83069 3.97971 2.83069H2.67089V5.38744Z" />
<path d="M9.61826 7.65504C9.61826 6.83323 9.77806 6.10273 10.0977 5.46354C10.4172 4.81928 10.8763 4.32467 11.475 3.97971C12.0736 3.63475 12.7762 3.46227 13.5828 3.46227C14.8155 3.46227 15.7869 3.84528 16.4971 4.61129C17.2074 5.37223 17.5625 6.40964 17.5625 7.72353V7.81484C17.5625 9.09829 17.2048 10.1179 16.4895 10.8738C15.7793 11.6246 14.8155 12 13.598 12C12.4261 12 11.4851 11.65 10.7749 10.9499C10.0647 10.2448 9.68167 9.29106 9.62587 8.08878L9.61826 7.65504ZM12.1826 7.81484C12.1826 8.57578 12.3018 9.1338 12.5403 9.4889C12.7787 9.84401 13.1313 10.0216 13.598 10.0216C14.5111 10.0216 14.9778 9.31896 14.9981 7.91376V7.65504C14.9981 6.17882 14.5263 5.44071 13.5828 5.44071C12.7254 5.44071 12.2613 6.07736 12.1902 7.35067L12.1826 7.81484Z" />
<path d="M19.2594 11.8478V5.39505H18.0647V3.61446H19.2594V2.96005C19.2594 2.02156 19.5358 1.2936 20.0888 0.776157C20.6417 0.258719 21.4179 0 22.4172 0C22.7825 0 23.1833 0.0532657 23.6195 0.159797L23.6271 2.04692C23.4699 2.00127 23.2594 1.97844 22.9956 1.97844C22.2194 1.97844 21.8313 2.31325 21.8313 2.98288V3.61446H23.4369V5.39505H21.8313V11.8478H19.2594Z" />
<path d="M28.1395 12C26.8763 12 25.8542 11.6246 25.0729 10.8738C24.2917 10.1179 23.9011 9.13633 23.9011 7.92898V7.71592C23.9011 6.87381 24.0558 6.13063 24.3652 5.48637C24.6798 4.84211 25.1363 4.34496 25.7349 3.99493C26.3335 3.63982 27.0438 3.46227 27.8656 3.46227C29.0222 3.46227 29.9353 3.82245 30.6049 4.5428C31.2746 5.25808 31.6094 6.25745 31.6094 7.5409V8.53773H26.5111C26.6024 8.99937 26.8028 9.36208 27.1122 9.62587C27.4217 9.88966 27.8224 10.0216 28.3145 10.0216C29.1262 10.0216 29.7603 9.73748 30.2169 9.16931L31.3887 10.5542C31.0691 10.9956 30.6151 11.3481 30.0266 11.6119C29.4432 11.8706 28.8142 12 28.1395 12ZM27.8503 5.44071C27.0996 5.44071 26.6531 5.93786 26.5111 6.93215H29.0983V6.73431C29.1084 6.3234 29.0044 6.00634 28.7863 5.78313C28.5682 5.55485 28.2562 5.44071 27.8503 5.44071Z" />
<path d="M37.6284 5.93532L36.7838 5.87444C35.9772 5.87444 35.4597 6.12809 35.2315 6.63538V11.8478H32.6671V3.61446H35.0717L35.1554 4.67216C35.5866 3.86557 36.1877 3.46227 36.9588 3.46227C37.2327 3.46227 37.4711 3.49271 37.6741 3.55358L37.6284 5.93532Z" />
</svg>
