<svg width="24" height="30" viewBox="0 0 24 30" xmlns="http://www.w3.org/2000/svg">
<path d="M7.2904 10.1927L7.2874 10.1952L7.28455 10.1979L7.2904 10.1927ZM20.5625 9.94402C20.4698 9.85461 20.3669 9.77639 20.2559 9.71094C20.0988 9.61849 19.9244 9.55924 19.7435 9.53686C19.5626 9.51448 19.3791 9.52944 19.2042 9.58082C19.0293 9.6322 18.8668 9.7189 18.7268 9.83557C18.5867 9.95224 18.4721 10.0964 18.39 10.2591C17.9307 11.164 17.2973 11.9694 16.526 12.6289C16.6439 11.9644 16.7034 11.2908 16.7037 10.6159C16.7062 8.56269 16.1646 6.5455 15.1339 4.7697C14.1033 2.99391 12.6205 1.52294 10.8365 0.506552C10.64 0.395148 10.4184 0.335498 10.1925 0.333199C9.96664 0.3309 9.74387 0.386027 9.54511 0.493407C9.34636 0.600788 9.17815 0.756902 9.05626 0.947099C8.93437 1.1373 8.86281 1.35534 8.84827 1.58078C8.77365 2.84501 8.44315 4.08093 7.87679 5.21367C7.31042 6.3464 6.51999 7.35236 5.55337 8.17059L5.24608 8.42059C4.2353 9.10071 3.34061 9.93913 2.59635 10.9037C1.43943 12.3611 0.638008 14.0681 0.255623 15.8892C-0.126761 17.7103 -0.0795857 19.5955 0.393408 21.3952C0.866402 23.1949 1.75221 24.8597 2.98057 26.2575C4.20894 27.6553 5.74608 28.7476 7.47009 29.4479C7.67252 29.5307 7.89219 29.5623 8.10972 29.54C8.32726 29.5178 8.53598 29.4423 8.71747 29.3204C8.89896 29.1984 9.04764 29.0336 9.1504 28.8406C9.25316 28.6476 9.30684 28.4322 9.30671 28.2136C9.30575 28.0721 9.28337 27.9316 9.24031 27.7969C8.942 26.6756 8.8561 25.5084 8.98704 24.3555C10.2487 26.7351 12.2739 28.6213 14.737 29.711C15.0377 29.8455 15.3776 29.8636 15.6908 29.7617C17.6369 29.1336 19.3901 28.0183 20.7837 26.5218C22.1773 25.0253 23.1652 23.1973 23.6533 21.2115C24.1415 19.2257 24.1138 17.148 23.5728 15.1759C23.0319 13.2038 21.9956 11.4028 20.5625 9.94402ZM15.3562 27.0521C14.1939 26.4631 13.1687 25.636 12.347 24.6247C11.5254 23.6134 10.9258 22.4405 10.5873 21.1823C10.4839 20.7586 10.4039 20.3296 10.3477 19.8972C10.3096 19.6218 10.1864 19.3651 9.99533 19.1632C9.80424 18.9613 9.55482 18.8241 9.28195 18.7708C9.19788 18.7543 9.11239 18.746 9.02671 18.7461C8.79236 18.746 8.56214 18.8077 8.35925 18.925C8.15637 19.0423 7.98799 19.211 7.87111 19.4141C6.7648 21.3223 6.20844 23.4995 6.26368 25.7045C5.29067 24.948 4.47748 24.0058 3.87125 22.9327C3.26502 21.8596 2.8778 20.6769 2.73204 19.453C2.58628 18.2291 2.68488 16.9885 3.02211 15.803C3.35935 14.6176 3.92851 13.5108 4.69663 12.5469C5.27985 11.7894 5.98342 11.1326 6.77929 10.6029C6.81376 10.5807 6.84681 10.5563 6.87825 10.53C6.87825 10.53 7.27384 10.2027 7.28736 10.1952C9.18696 8.58849 10.538 6.42922 11.1523 4.01829C12.6051 5.36126 13.5738 7.14633 13.908 9.0963C14.2422 11.0463 13.9233 13.052 13.0007 14.8021C12.8788 15.0357 12.8288 15.3001 12.857 15.562C12.8851 15.8239 12.9903 16.0716 13.1591 16.2739C13.3279 16.4761 13.5528 16.6238 13.8055 16.6984C14.0581 16.7729 14.3272 16.771 14.5788 16.6928C16.6212 16.0526 18.4184 14.802 19.7285 13.1095C20.5159 14.2725 21.0307 15.5983 21.2345 16.988C21.4383 18.3776 21.3259 19.7954 20.9056 21.1355C20.4854 22.4757 19.7681 23.7038 18.8072 24.7282C17.8463 25.7526 16.6667 26.547 15.3561 27.0521L15.3562 27.0521Z"/>
</svg>
