<svg width="27" height="28" viewBox="0 0 27 28" xmlns="http://www.w3.org/2000/svg">
<path d="M13.6668 0.666626C11.0298 0.666626 8.45189 1.44861 6.25923 2.9137C4.06658 4.37878 2.35761 6.46116 1.34844 8.89751C0.339273 11.3339 0.0752288 14.0148 0.589698 16.6012C1.10417 19.1876 2.37404 21.5634 4.23875 23.4281C6.10345 25.2928 8.47922 26.5626 11.0656 27.0771C13.652 27.5916 16.3329 27.3275 18.7693 26.3184C21.2056 25.3092 23.288 23.6002 24.7531 21.4076C26.2182 19.2149 27.0002 16.637 27.0002 14C27.0002 12.249 26.6553 10.5152 25.9852 8.89751C25.3152 7.27984 24.333 5.80998 23.0949 4.57187C21.8568 3.33375 20.387 2.35163 18.7693 1.68157C17.1516 1.0115 15.4178 0.666626 13.6668 0.666626ZM13.6668 24.6666C11.5572 24.6666 9.49488 24.041 7.74075 22.869C5.98663 21.6969 4.61946 20.031 3.81212 18.0819C3.00479 16.1328 2.79355 13.9881 3.20513 11.919C3.6167 9.84987 4.6326 7.94925 6.12436 6.45749C7.61612 4.96573 9.51674 3.94983 11.5859 3.53825C13.655 3.12667 15.7997 3.33791 17.7488 4.14524C19.6979 4.95258 21.3638 6.31975 22.5358 8.07388C23.7079 9.828 24.3335 11.8903 24.3335 14C24.3335 16.8289 23.2097 19.542 21.2093 21.5424C19.2089 23.5428 16.4958 24.6666 13.6668 24.6666ZM13.6668 5.99996C13.3132 5.99996 12.9741 6.14044 12.724 6.39048C12.474 6.64053 12.3335 6.97967 12.3335 7.33329V13.9066L10.5068 17.0666C10.33 17.3743 10.2827 17.7396 10.3752 18.0821C10.4677 18.4247 10.6925 18.7165 11.0002 18.8933C11.3078 19.0701 11.6731 19.1175 12.0157 19.0249C12.3582 18.9324 12.65 18.7076 12.8268 18.4L14.8268 14.9333C14.9551 14.6923 15.0063 14.4177 14.9735 14.1466L15.0002 14V7.33329C15.0002 6.97967 14.8597 6.64053 14.6096 6.39048C14.3596 6.14044 14.0205 5.99996 13.6668 5.99996Z"/>
</svg>
