<svg width="16" height="21" viewBox="0 0 16 21" xmlns="http://www.w3.org/2000/svg">
<path d="M16 7.44C15.9896 7.34814 15.9695 7.25763 15.94 7.17V7.08C15.8919 6.97718 15.8278 6.88267 15.75 6.8V6.8L9.75 0.8C9.66734 0.722216 9.57282 0.658081 9.47 0.61H9.38C9.27841 0.551741 9.16622 0.514344 9.05 0.5H3C2.20435 0.5 1.44129 0.816071 0.87868 1.37868C0.316071 1.94129 0 2.70435 0 3.5V17.5C0 18.2957 0.316071 19.0587 0.87868 19.6213C1.44129 20.1839 2.20435 20.5 3 20.5H13C13.7956 20.5 14.5587 20.1839 15.1213 19.6213C15.6839 19.0587 16 18.2957 16 17.5V7.5C16 7.5 16 7.5 16 7.44ZM10 3.91L12.59 6.5H11C10.7348 6.5 10.4804 6.39464 10.2929 6.20711C10.1054 6.01957 10 5.76522 10 5.5V3.91ZM14 17.5C14 17.7652 13.8946 18.0196 13.7071 18.2071C13.5196 18.3946 13.2652 18.5 13 18.5H3C2.73478 18.5 2.48043 18.3946 2.29289 18.2071C2.10536 18.0196 2 17.7652 2 17.5V3.5C2 3.23478 2.10536 2.98043 2.29289 2.79289C2.48043 2.60536 2.73478 2.5 3 2.5H8V5.5C8 6.29565 8.31607 7.05871 8.87868 7.62132C9.44129 8.18393 10.2044 8.5 11 8.5H14V17.5Z"/>
</svg>
