<svg width="78" height="130" viewBox="0 0 78 130" xmlns="http://www.w3.org/2000/svg">
<path fill-rule="evenodd" clip-rule="evenodd" d="M47.7697 102.196C47.71 105.303 46.6112 106.163 46.6112 106.163H18.3118C18.3118 106.163 17.3489 105.02 17.3489 102.155V98.9432C17.3489 98.9432 17.3538 94.5612 22.091 94.5612H22.2717H22.2798H26.2536H42.8836H43.0608C47.8033 94.5612 47.8073 98.6835 47.8073 99.3015C47.8073 100.631 47.7991 100.96 47.7855 101.508V101.508C47.7808 101.695 47.7755 101.908 47.7697 102.196ZM31.0186 50.5106H31.1483H43.3765H46.3022H46.4326C49.9212 50.5106 49.9243 53.7345 49.9243 53.7345V56.095C49.9243 57.4885 49.6131 58.3214 49.4027 58.7268H28.1567C27.9158 58.3447 27.5839 57.5603 27.5588 56.1237C27.5541 55.8807 27.5496 55.7099 27.5455 55.5573V55.5572C27.5357 55.187 27.5287 54.9236 27.5287 53.9959C27.5287 53.5429 27.5333 50.5106 31.0186 50.5106ZM26.0671 24.1641C26.0671 24.1641 25.5768 23.5814 25.5768 22.122V20.4894C25.5768 20.4894 25.5768 18.2531 27.9934 18.2531H28.084H30.1104H38.5868H38.673C41.0913 18.2531 41.0913 20.3575 41.0913 20.671C41.0913 21.3867 41.0882 21.5315 41.0817 21.8408V21.841C41.0799 21.9248 41.0779 22.0206 41.0756 22.143C41.0451 23.7276 40.4809 24.1641 40.4809 24.1641H26.0671ZM15.488 38.4469C14.896 38.9497 14.0824 38.9708 13.6801 38.4998C13.2773 38.0249 13.4302 37.2283 14.0209 36.7224C14.6161 36.2187 15.4266 36.1932 15.8284 36.6659C16.2379 37.1395 16.0814 37.9361 15.488 38.4469ZM48.9726 8.46208C49.3372 8.03554 50.0696 8.05798 50.6105 8.51905C51.1465 8.9743 51.2896 9.69414 50.92 10.1269C50.5531 10.5535 49.8166 10.5364 49.2807 10.0745C48.7429 9.61926 48.6021 8.89626 48.9726 8.46208ZM64.104 76.0582C64.5113 75.581 65.3217 75.6057 65.9227 76.1125C66.5148 76.6225 66.6686 77.4199 66.2614 77.8958C65.8586 78.3721 65.045 78.347 64.4489 77.8406C63.8538 77.3302 63.7017 76.5346 64.104 76.0582ZM56.4049 106.163C56.4049 106.163 55.3989 104.622 55.3989 102.115V88.4143L54.5401 88.4136C52.7167 88.4122 48.5677 88.409 47.8437 88.409C45.1459 88.409 43.0921 90.1904 43.0921 90.1904C43.0921 90.1904 43.0773 79.3319 43.0773 74.2292C43.0773 69.1251 45.5683 63.0088 54.461 63.0088H58.3321C61.2551 63.0088 62.2517 64.1014 62.2517 64.1014H54.461C46.7058 64.1014 44.2434 69.5149 44.2434 74.2292C44.2434 78.9363 44.2349 88.0465 44.2349 88.0465C44.2349 88.0465 45.4509 87.1908 47.4494 87.1908H61.8395C66.9023 87.1908 67.2625 91.1063 67.2625 92.0657V92.5855C67.2625 100.151 62.379 100.479 62.379 100.479L64.5305 103.479C66.9023 102.309 69.4364 100.346 70.6335 97.2069C71.3905 95.216 72.0023 92.6868 72.0023 89.401V87.1908V87.0656V72.9586C72.0023 63.4685 67.258 58.7268 57.7683 58.7268H56.1165C55.8823 58.2774 55.5029 57.3706 55.5029 56.1519V45.0925V34.6247C55.5029 28.0401 51.7574 24.565 45.4665 24.1959H45.458C45.3248 23.9429 44.9606 23.1513 44.9606 22.1036V15.6719L44.6054 15.6716L44.6037 15.6716L44.5733 15.6716C43.7849 15.6709 42.0379 15.6692 41.6708 15.6692C39.7422 15.6692 38.1424 16.7062 38.1424 16.7062C38.1424 16.7062 38.1352 10.4925 38.1352 7.89201C38.1352 5.1229 39.6063 1.71108 44.1502 1.71108H46.4524C47.9419 1.71108 48.4523 2.73411 48.4523 2.73411H44.4852C40.5298 2.73411 39.2789 5.49383 39.2789 7.89201C39.2789 10.2947 39.2717 14.961 39.2717 14.961C39.2717 14.961 40.1248 14.4959 41.8493 14.4959H48.2424C50.8227 14.4959 51.0043 16.4963 51.0043 16.9838V17.2493C51.0043 21.1021 48.5151 21.2685 48.5151 21.2685L49.6131 22.7943C50.8227 22.1986 52.1113 21.2043 52.723 19.5996C53.1105 18.5882 53.4169 17.2973 53.4169 15.6248V14.4959V14.4354V7.24751C53.4169 2.41526 51.0003 0 46.1671 0H31.0765H29.4516C24.6188 0 21.7102 2.41526 21.7102 7.24751V14.4959H21.7089V22.1637C21.7089 23.3774 21.1639 24.1641 21.1639 24.1641H20.2055C13.2311 24.1641 9.743 27.6544 9.743 34.6247V44.9975V45.0925V46.7166C9.743 49.1345 10.1911 50.9882 10.7504 52.4544C11.629 54.7615 13.4863 56.2012 15.2315 57.0651L16.8169 54.8562C16.8169 54.8562 13.2311 54.6176 13.2311 49.0583V48.6752C13.2311 47.9733 13.4863 45.0925 17.2139 45.0925H27.6992C29.2753 45.0925 30.1539 45.5191 30.1539 45.5191C30.1539 45.5191 30.1507 39.0237 30.1507 35.5571C30.1507 32.096 28.3391 28.1159 22.6381 28.1159H16.9115C16.9115 28.1159 17.6457 27.0103 19.7932 27.0103H22.8063C29.0155 27.0103 31.3545 31.5645 31.3545 35.5571C31.3545 39.3121 31.3406 47.6087 31.3406 47.6087C31.3406 47.6087 29.9327 46.3349 27.8252 46.3349H27.8235C27.1385 46.3349 22.0021 46.3349 21.9474 46.3395V56.0641C21.9474 57.7815 21.3114 58.8754 21.2266 59.0122C13.9984 60.1474 9.75684 64.7899 9.75684 72.9587V87.1909H9.75363V102.233C9.75363 104.622 8.67903 106.163 8.67903 106.163H1.22744V109.376H76.2227V106.163H56.4047L56.4049 106.163ZM15.0524 115.971V119.282C15.0524 119.282 12.6484 115.457 11.6655 113.929C10.6846 112.401 9.26339 111.854 7.73752 111.854H0C0.982774 112.513 1.30932 114.26 1.30932 115.347V125.28C1.30932 126.561 0.955842 128.996 0.955842 128.996H5.87026C5.80026 128.483 5.74298 128.082 5.6962 127.754C5.52744 126.573 5.4952 126.347 5.4952 125.28V121.138C5.4952 121.138 10.7946 127.522 11.339 128.286C11.8821 129.052 12.868 128.941 12.868 128.941H17.6024C18.4751 128.941 18.8704 128.068 18.8704 127.632V116.358C18.8704 113.968 19.1592 111.854 19.1592 111.854H14.4797C14.4797 111.854 15.0524 113.447 15.0524 115.971ZM53.3317 111.854C55.4864 111.854 55.7568 112.354 55.7568 114.627V123.649C55.7568 126.27 56.6548 128.941 56.6548 128.941H45.6957C45.6957 128.941 46.639 126.716 46.639 123.649V115.803C46.639 114.539 44.1528 111.854 44.1528 111.854H53.3317ZM71.6604 116.687C71.6604 116.11 72.04 115.896 72.5296 115.896C73.8156 115.896 76.2595 117.303 76.2595 117.303V112.031C76.2595 112.031 72.6068 111.488 68.5687 111.488C63.9575 111.488 60.6003 112.318 60.6003 116.531C60.6003 119.296 62.6115 120.296 64.216 121.094C65.2808 121.623 66.1665 122.063 66.1665 122.872C66.1665 123.336 65.8647 123.672 65.3562 123.675C64.5544 123.685 62.9823 123.462 60.713 121.741V128.462C60.713 128.462 64.0603 129.287 68.2107 129.287C74.3811 129.287 77.3025 128.068 77.3025 123.478C77.3025 120.652 75.1048 119.348 73.4526 118.368C72.4576 117.778 71.6604 117.305 71.6604 116.687ZM21.0679 128.866C23.3889 123.331 24.6103 120.503 25.3073 118.889C25.807 117.733 26.0372 117.2 26.2097 116.741C26.2792 116.553 26.3494 116.369 26.4177 116.19C26.715 115.413 26.9755 114.731 26.9755 114.223C26.9755 113.456 25.7753 111.752 25.7753 111.752H32.9945C35.8904 111.752 36.7878 112.489 37.5523 114.348C38.3164 116.204 41.1911 123.622 41.7382 125.041C42.2799 126.461 43.8354 128.859 43.8354 128.859H33.3462C33.3462 128.859 33.7258 128.163 33.6723 127.33C33.6287 126.678 32.9402 125.284 32.9402 125.284H27.1251C27.1251 125.284 26.7334 126.438 26.6638 127.202C26.5803 128.193 26.8542 128.863 26.8542 128.863L21.0679 128.866ZM29.9137 118.512L31.6523 122.296H28.3959L29.9137 118.512Z"/>
</svg>
