<svg width="32" height="32" viewBox="0 0 32 32" xmlns="http://www.w3.org/2000/svg">
<path d="M15.9993 22.6667L17.3327 20V13.144C19.6273 12.548 21.3327 10.4774 21.3327 8.00002C21.3327 5.05869 18.9407 2.66669 15.9993 2.66669C13.058 2.66669 10.666 5.05869 10.666 8.00002C10.666 10.4774 12.3713 12.548 14.666 13.144V20L15.9993 22.6667ZM13.3327 8.00002C13.3327 6.52935 14.5287 5.33335 15.9993 5.33335C17.47 5.33335 18.666 6.52935 18.666 8.00002C18.666 9.47069 17.47 10.6667 15.9993 10.6667C14.5287 10.6667 13.3327 9.47069 13.3327 8.00002Z"/>
<path d="M21.6887 14.084L20.978 16.6546C24.4327 17.6093 26.666 19.4453 26.666 21.3333C26.666 23.856 22.286 26.6666 15.9993 26.6666C9.71268 26.6666 5.33268 23.856 5.33268 21.3333C5.33268 19.4453 7.56602 17.6093 11.022 16.6533L10.3113 14.0826C5.59535 15.3866 2.66602 18.164 2.66602 21.3333C2.66602 25.8186 8.52335 29.3333 15.9993 29.3333C23.4753 29.3333 29.3327 25.8186 29.3327 21.3333C29.3327 18.164 26.4034 15.3866 21.6887 14.084Z"/>
</svg>
