<svg width="28" height="17" viewBox="0 0 28 17" xmlns="http://www.w3.org/2000/svg">
<path d="M13.9998 0C6.39984 0 0.666504 2.86667 0.666504 6.66667C0.666504 9.93333 4.91984 12.5067 10.9465 13.1733L10.3865 13.72C10.2615 13.844 10.1623 13.9914 10.0946 14.1539C10.027 14.3164 9.99211 14.4907 9.99211 14.6667C9.99211 14.8427 10.027 15.017 10.0946 15.1794C10.1623 15.3419 10.2615 15.4894 10.3865 15.6133C10.5105 15.7383 10.6579 15.8375 10.8204 15.9052C10.9829 15.9729 11.1572 16.0077 11.3332 16.0077C11.5092 16.0077 11.6835 15.9729 11.8459 15.9052C12.0084 15.8375 12.1559 15.7383 12.2798 15.6133L14.9465 12.9467C15.0679 12.8199 15.163 12.6703 15.2265 12.5067C15.3599 12.1821 15.3599 11.8179 15.2265 11.4933C15.163 11.3297 15.0679 11.1801 14.9465 11.0533L12.2798 8.38667C12.0288 8.13559 11.6882 7.99454 11.3332 7.99454C10.9781 7.99454 10.6376 8.13559 10.3865 8.38667C10.1354 8.63774 9.99438 8.97826 9.99438 9.33333C9.99438 9.6884 10.1354 10.0289 10.3865 10.28L10.5465 10.4267C5.99984 9.78667 3.33317 8 3.33317 6.66667C3.33317 5.04 7.49317 2.66667 13.9998 2.66667C20.5065 2.66667 24.6665 5.04 24.6665 6.66667C24.6665 7.77333 22.7332 9.33333 19.0532 10.1333C18.879 10.1667 18.7132 10.2345 18.5655 10.3327C18.4179 10.4309 18.2913 10.5577 18.1932 10.7054C18.0951 10.8532 18.0275 11.019 17.9943 11.1932C17.9611 11.3674 17.963 11.5465 17.9998 11.72C18.0362 11.8918 18.1062 12.0547 18.2058 12.1994C18.3053 12.344 18.4324 12.4676 18.5799 12.563C18.7273 12.6584 18.8921 12.7237 19.0649 12.7552C19.2376 12.7868 19.4149 12.7838 19.5865 12.7467C24.4532 11.68 27.3332 9.41333 27.3332 6.66667C27.3332 2.86667 21.5998 0 13.9998 0Z"/>
</svg>
