<svg width="28" height="28" viewBox="0 0 28 28" fill="none" xmlns="http://www.w3.org/2000/svg">
<path d="M23.3332 0.666626H4.6665C3.60564 0.666626 2.58822 1.08805 1.83808 1.8382C1.08793 2.58834 0.666504 3.60576 0.666504 4.66663V18C0.666504 19.0608 1.08793 20.0782 1.83808 20.8284C2.58822 21.5785 3.60564 22 4.6665 22H8.1865L7.41317 23.3333C7.17912 23.7387 7.05591 24.1985 7.05591 24.6666C7.05591 25.1347 7.17912 25.5946 7.41317 26C7.64924 26.4089 7.98964 26.7478 8.3996 26.982C8.80955 27.2163 9.27436 27.3375 9.7465 27.3333H18.3598C18.8275 27.3328 19.2868 27.2094 19.6916 26.9753C20.0965 26.7413 20.4327 26.4049 20.6665 26C20.9006 25.5946 21.0238 25.1347 21.0238 24.6666C21.0238 24.1985 20.9006 23.7387 20.6665 23.3333L19.8798 22H23.3332C24.394 22 25.4115 21.5785 26.1616 20.8284C26.9117 20.0782 27.3332 19.0608 27.3332 18V4.66663C27.3332 3.60576 26.9117 2.58834 26.1616 1.8382C25.4115 1.08805 24.394 0.666626 23.3332 0.666626ZM9.69317 24.6666L11.3332 22H16.6665L18.2665 24.6666H9.69317ZM24.6665 18C24.6665 18.3536 24.526 18.6927 24.276 18.9428C24.0259 19.1928 23.6868 19.3333 23.3332 19.3333H4.6665C4.31288 19.3333 3.97374 19.1928 3.7237 18.9428C3.47365 18.6927 3.33317 18.3536 3.33317 18V16.6666H24.6665V18ZM24.6665 14H3.33317V4.66663C3.33317 4.313 3.47365 3.97387 3.7237 3.72382C3.97374 3.47377 4.31288 3.33329 4.6665 3.33329H23.3332C23.6868 3.33329 24.0259 3.47377 24.276 3.72382C24.526 3.97387 24.6665 4.313 24.6665 4.66663V14Z" fill="#467C3F"/>
</svg>
