<svg width="28" height="28" viewBox="0 0 28 28" xmlns="http://www.w3.org/2000/svg">
<path d="M2.0013 10C2.35492 10 2.69406 9.85954 2.94411 9.6095C3.19416 9.35945 3.33464 9.02031 3.33464 8.66669V4.66669C3.33464 4.31307 3.47511 3.97393 3.72516 3.72388C3.97521 3.47383 4.31435 3.33335 4.66797 3.33335H8.66797C9.02159 3.33335 9.36073 3.19288 9.61078 2.94283C9.86083 2.69278 10.0013 2.35364 10.0013 2.00002C10.0013 1.6464 9.86083 1.30726 9.61078 1.05721C9.36073 0.807163 9.02159 0.666687 8.66797 0.666687H4.66797C3.6071 0.666687 2.58969 1.08811 1.83954 1.83826C1.0894 2.58841 0.667969 3.60582 0.667969 4.66669V8.66669C0.667969 9.02031 0.808444 9.35945 1.05849 9.6095C1.30854 9.85954 1.64768 10 2.0013 10ZM8.66797 24.6667H4.66797C4.31435 24.6667 3.97521 24.5262 3.72516 24.2762C3.47511 24.0261 3.33464 23.687 3.33464 23.3334V19.3334C3.33464 18.9797 3.19416 18.6406 2.94411 18.3905C2.69406 18.1405 2.35492 18 2.0013 18C1.64768 18 1.30854 18.1405 1.05849 18.3905C0.808444 18.6406 0.667969 18.9797 0.667969 19.3334V23.3334C0.667969 24.3942 1.0894 25.4116 1.83954 26.1618C2.58969 26.9119 3.6071 27.3334 4.66797 27.3334H8.66797C9.02159 27.3334 9.36073 27.1929 9.61078 26.9428C9.86083 26.6928 10.0013 26.3536 10.0013 26C10.0013 25.6464 9.86083 25.3073 9.61078 25.0572C9.36073 24.8072 9.02159 24.6667 8.66797 24.6667ZM14.0013 8.66669C12.9465 8.66669 11.9153 8.97948 11.0383 9.56552C10.1612 10.1516 9.47761 10.9845 9.07394 11.959C8.67028 12.9336 8.56466 14.0059 8.77045 15.0405C8.97623 16.0751 9.48419 17.0254 10.2301 17.7713C10.9759 18.5171 11.9263 19.0251 12.9608 19.2309C13.9954 19.4367 15.0677 19.331 16.0423 18.9274C17.0168 18.5237 17.8498 17.8401 18.4358 16.9631C19.0218 16.086 19.3346 15.0549 19.3346 14C19.3346 12.5855 18.7727 11.229 17.7725 10.2288C16.7723 9.22859 15.4158 8.66669 14.0013 8.66669ZM14.0013 16.6667C13.4739 16.6667 12.9583 16.5103 12.5198 16.2173C12.0813 15.9243 11.7395 15.5078 11.5376 15.0205C11.3358 14.5332 11.283 13.9971 11.3859 13.4798C11.4888 12.9625 11.7427 12.4873 12.1157 12.1144C12.4886 11.7415 12.9638 11.4875 13.4811 11.3846C13.9983 11.2817 14.5345 11.3345 15.0218 11.5363C15.5091 11.7382 15.9255 12.08 16.2186 12.5185C16.5116 12.957 16.668 13.4726 16.668 14C16.668 14.7073 16.387 15.3855 15.8869 15.8856C15.3868 16.3857 14.7085 16.6667 14.0013 16.6667ZM23.3346 0.666687H19.3346C18.981 0.666687 18.6419 0.807163 18.3918 1.05721C18.1418 1.30726 18.0013 1.6464 18.0013 2.00002C18.0013 2.35364 18.1418 2.69278 18.3918 2.94283C18.6419 3.19288 18.981 3.33335 19.3346 3.33335H23.3346C23.6883 3.33335 24.0274 3.47383 24.2774 3.72388C24.5275 3.97393 24.668 4.31307 24.668 4.66669V8.66669C24.668 9.02031 24.8084 9.35945 25.0585 9.6095C25.3085 9.85954 25.6477 10 26.0013 10C26.3549 10 26.6941 9.85954 26.9441 9.6095C27.1942 9.35945 27.3346 9.02031 27.3346 8.66669V4.66669C27.3346 3.60582 26.9132 2.58841 26.1631 1.83826C25.4129 1.08811 24.3955 0.666687 23.3346 0.666687ZM26.0013 18C25.6477 18 25.3085 18.1405 25.0585 18.3905C24.8084 18.6406 24.668 18.9797 24.668 19.3334V23.3334C24.668 23.687 24.5275 24.0261 24.2774 24.2762C24.0274 24.5262 23.6883 24.6667 23.3346 24.6667H19.3346C18.981 24.6667 18.6419 24.8072 18.3918 25.0572C18.1418 25.3073 18.0013 25.6464 18.0013 26C18.0013 26.3536 18.1418 26.6928 18.3918 26.9428C18.6419 27.1929 18.981 27.3334 19.3346 27.3334H23.3346C24.3955 27.3334 25.4129 26.9119 26.1631 26.1618C26.9132 25.4116 27.3346 24.3942 27.3346 23.3334V19.3334C27.3346 18.9797 27.1942 18.6406 26.9441 18.3905C26.6941 18.1405 26.3549 18 26.0013 18Z"/>
</svg>
