<svg width="29" height="28" viewBox="0 0 29 28" xmlns="http://www.w3.org/2000/svg">
<path fill-rule="evenodd" clip-rule="evenodd" d="M11.9123 4.50073L14.4389 0L16.9654 4.50073C16.1615 4.27109 15.3084 4.15625 14.4389 4.15625C13.5693 4.15625 12.7163 4.27109 11.9123 4.50073ZM14.4389 5.79687C9.91596 5.79687 6.23576 9.47707 6.23576 14C6.23576 18.5229 9.91596 22.2031 14.4389 22.2031C18.9618 22.2031 22.642 18.5229 22.642 14C22.642 9.47707 18.9618 5.79687 14.4389 5.79687ZM22.9537 18.9219C22.1006 20.4148 20.8373 21.6617 19.3443 22.5313L24.2826 23.8602L22.9537 18.9219ZM4.59512 4.15623L5.92403 9.0781C6.77721 7.58508 8.00768 6.35461 9.50059 5.48514L4.59512 4.15623ZM0.455322 14L4.9397 11.457C4.70996 12.2609 4.59511 13.114 4.59511 14C4.59511 14.8859 4.71001 15.7391 4.9397 16.543L0.455322 14ZM5.92403 18.9219L4.59512 23.8602L9.5334 22.5313C8.04043 21.6617 6.77721 20.4148 5.92403 18.9219ZM11.8795 23.499C12.6998 23.7288 13.553 23.8436 14.4389 23.8436C15.3248 23.8436 16.1779 23.7287 16.9983 23.499L14.4389 27.9999L11.8795 23.499ZM19.3696 5.49302C20.8538 6.3568 22.0907 7.59466 22.9524 9.0803L24.2882 4.1582L19.3696 5.49302ZM23.9412 11.4707L28.4229 14.0077L23.9363 16.5477C24.1551 15.7334 24.2827 14.8821 24.2827 13.9997C24.2827 13.1241 24.1567 12.2793 23.9412 11.4707Z"/>
</svg>
