<svg width="28" height="28" viewBox="0 0 28 28" fill="none" xmlns="http://www.w3.org/2000/svg">
<path d="M25.7382 18.9578L20.1951 13.4146L25.7373 7.87239C25.9 7.70993 26.029 7.51703 26.1171 7.3047C26.2051 7.09236 26.2505 6.86476 26.2506 6.63488C26.2507 6.40501 26.2055 6.17737 26.1175 5.96498C26.0296 5.75258 25.9007 5.55958 25.7382 5.39701L25.7373 5.39526L22.6048 2.26276C22.4424 2.10013 22.2495 1.97109 22.0371 1.88303C21.8248 1.79496 21.5972 1.74959 21.3673 1.74951C21.1375 1.74943 20.9098 1.79464 20.6974 1.88255C20.485 1.97047 20.292 2.09937 20.1295 2.26189L20.1286 2.26276L14.5863 7.80501L9.04321 2.26189C8.71459 1.93467 8.26972 1.75096 7.80596 1.75096C7.34221 1.75096 6.89734 1.93467 6.56871 2.26189L2.26196 6.56776C1.93384 6.89609 1.74951 7.34127 1.74951 7.80545C1.74951 8.26963 1.93384 8.71482 2.26196 9.04314L7.80421 14.5854L1.75009 20.6413V26.25H7.35884L13.4138 20.195L18.957 25.7399C19.2861 26.0668 19.7312 26.2503 20.1951 26.2503C20.659 26.2503 21.1041 26.0668 21.4332 25.7399L25.7382 21.4331C26.0663 21.1048 26.2507 20.6596 26.2507 20.1955C26.2507 19.7313 26.0663 19.2861 25.7382 18.9578ZM21.3615 3.49651L24.5027 6.63776L18.9613 12.18L15.8201 9.03876L21.3615 3.49651ZM7.00009 24.5H3.50009V21.3579L9.03884 15.82L12.2553 19.0383L7.00009 24.5ZM20.1951 24.5035L3.50009 7.80501L7.80684 3.50001L11.1213 6.81364L9.15084 8.78501L10.389 10.0223L12.3586 8.05176L15.9723 11.6655L14.0001 13.6343L15.2391 14.8715L17.2096 12.901L20.8233 16.5148L18.8528 18.4844L20.0901 19.7225L22.0606 17.7529L24.5018 20.195L20.1951 24.5035Z" fill="#467C3F"/>
</svg>
