<svg width="28" height="28" viewBox="0 0 28 28" fill="none" xmlns="http://www.w3.org/2000/svg">
<path d="M5.25 4.59355C5.25 4.34989 5.34219 4.1162 5.50628 3.9439C5.67038 3.7716 5.89294 3.6748 6.125 3.6748H11.375C11.6071 3.6748 11.8296 3.7716 11.9937 3.9439C12.1578 4.1162 12.25 4.34989 12.25 4.59355V10.1061C12.25 10.3497 12.1578 10.5834 11.9937 10.7557C11.8296 10.928 11.6071 11.0248 11.375 11.0248H6.125C5.89294 11.0248 5.67038 10.928 5.50628 10.7557C5.34219 10.5834 5.25 10.3497 5.25 10.1061V4.59355ZM16.625 3.6748C16.3929 3.6748 16.1704 3.7716 16.0063 3.9439C15.8422 4.1162 15.75 4.34989 15.75 4.59355V10.1061C15.75 10.3497 15.8422 10.5834 16.0063 10.7557C16.1704 10.928 16.3929 11.0248 16.625 11.0248H21.875C22.1071 11.0248 22.3296 10.928 22.4937 10.7557C22.6578 10.5834 22.75 10.3497 22.75 10.1061V4.59355C22.75 4.34989 22.6578 4.1162 22.4937 3.9439C22.3296 3.7716 22.1071 3.6748 21.875 3.6748H16.625ZM17.5 9.1873V5.5123H21V9.1873H17.5ZM7 22.0498C7.46413 22.0498 7.90925 21.8562 8.23744 21.5116C8.56563 21.167 8.75 20.6996 8.75 20.2123C8.75 19.725 8.56563 19.2576 8.23744 18.913C7.90925 18.5684 7.46413 18.3748 7 18.3748C6.53587 18.3748 6.09075 18.5684 5.76256 18.913C5.43437 19.2576 5.25 19.725 5.25 20.2123C5.25 20.6996 5.43437 21.167 5.76256 21.5116C6.09075 21.8562 6.53587 22.0498 7 22.0498ZM15.75 20.2123C15.75 20.6996 15.5656 21.167 15.2374 21.5116C14.9092 21.8562 14.4641 22.0498 14 22.0498C13.5359 22.0498 13.0908 21.8562 12.7626 21.5116C12.4344 21.167 12.25 20.6996 12.25 20.2123C12.25 19.725 12.4344 19.2576 12.7626 18.913C13.0908 18.5684 13.5359 18.3748 14 18.3748C14.4641 18.3748 14.9092 18.5684 15.2374 18.913C15.5656 19.2576 15.75 19.725 15.75 20.2123ZM21 22.0498C21.4641 22.0498 21.9093 21.8562 22.2374 21.5116C22.5656 21.167 22.75 20.6996 22.75 20.2123C22.75 19.725 22.5656 19.2576 22.2374 18.913C21.9093 18.5684 21.4641 18.3748 21 18.3748C20.5359 18.3748 20.0907 18.5684 19.7626 18.913C19.4344 19.2576 19.25 19.725 19.25 20.2123C19.25 20.6996 19.4344 21.167 19.7626 21.5116C20.0907 21.8562 20.5359 22.0498 21 22.0498ZM0 20.2123C0 18.263 0.737498 16.3935 2.05025 15.0151C3.36301 13.6367 5.14348 12.8623 7 12.8623H21C22.8565 12.8623 24.637 13.6367 25.9497 15.0151C27.2625 16.3935 28 18.263 28 20.2123C28 22.1616 27.2625 24.0311 25.9497 25.4095C24.637 26.7879 22.8565 27.5623 21 27.5623H7C5.14348 27.5623 3.36301 26.7879 2.05025 25.4095C0.737498 24.0311 0 22.1616 0 20.2123ZM7 14.6998C5.60761 14.6998 4.27226 15.2806 3.28769 16.3144C2.30312 17.3482 1.75 18.7503 1.75 20.2123C1.75 21.6743 2.30312 23.0764 3.28769 24.1102C4.27226 25.144 5.60761 25.7248 7 25.7248H21C22.3924 25.7248 23.7277 25.144 24.7123 24.1102C25.6969 23.0764 26.25 21.6743 26.25 20.2123C26.25 18.7503 25.6969 17.3482 24.7123 16.3144C23.7277 15.2806 22.3924 14.6998 21 14.6998H7Z" fill="#467C3F"/>
</svg>
