<svg width="28" height="28" viewBox="0 0 28 28" fill="none" xmlns="http://www.w3.org/2000/svg">
<g clip-path="url(#clip0_1633_2292)">
<path fill-rule="evenodd" clip-rule="evenodd" d="M8.7434 6.18911C9.29912 6.56043 9.95248 6.75862 10.6208 6.75862C11.5168 6.7576 12.3757 6.40124 13.0092 5.76772C13.6428 5.13419 13.9991 4.27525 14.0002 3.37931C14.0002 2.71095 13.802 2.05759 13.4306 1.50187C13.0593 0.946143 12.5315 0.513008 11.9141 0.257236C11.2966 0.0014642 10.6171 -0.0654574 9.96157 0.064934C9.30605 0.195325 8.70392 0.517174 8.23131 0.989779C7.75871 1.46238 7.43686 2.06452 7.30647 2.72004C7.17607 3.37556 7.243 4.05503 7.49877 4.67252C7.75454 5.29001 8.18767 5.81778 8.7434 6.18911ZM9.81623 2.17511C10.0544 2.01598 10.3344 1.93104 10.6208 1.93104C11.0048 1.93155 11.3729 2.0843 11.6444 2.35579C11.9159 2.62728 12.0686 2.99536 12.0691 3.37931C12.0691 3.66575 11.9842 3.94576 11.825 4.18393C11.6659 4.4221 11.4397 4.60773 11.1751 4.71734C10.9104 4.82696 10.6192 4.85564 10.3383 4.79976C10.0574 4.74388 9.7993 4.60594 9.59676 4.4034C9.39421 4.20085 9.25628 3.94279 9.2004 3.66186C9.14451 3.38092 9.17319 3.08972 9.28281 2.82508C9.39243 2.56044 9.57806 2.33425 9.81623 2.17511ZM26.2996 14.5167C26.491 14.4649 26.6937 14.4733 26.8801 14.5407C27.0668 14.6082 27.228 14.7315 27.3421 14.8939C27.4561 15.0563 27.5173 15.2498 27.5174 15.4483V27.0345C27.5174 27.2906 27.4157 27.5361 27.2346 27.7172C27.0535 27.8983 26.8079 28 26.5519 28H16.8967C16.7132 27.9999 16.5336 27.9476 16.3788 27.8491C16.224 27.7506 16.1005 27.6101 16.0227 27.444C15.9449 27.2778 15.916 27.0929 15.9395 26.911C15.9629 26.729 16.0378 26.5575 16.1552 26.4166L20.7491 20.9044L12.9468 19.4861L14.0002 22.0138V28H12.0691V22.4L10.6836 19.0738L7.24153 18.4481V28H5.3105V18.0977L0.48291 17.219V11.0397L5.32015 8.13738C5.77046 7.86712 6.28573 7.72428 6.81091 7.72414H10.7309C11.3199 7.72618 11.8943 7.90688 12.3784 8.24235C12.8625 8.57783 13.2334 9.05229 13.4421 9.60303L16.9199 18.2463L22.1684 19.2003L25.8104 14.8303C25.9373 14.6781 26.1082 14.5686 26.2996 14.5167ZM2.41394 12.1327V15.6086L5.3105 16.1348V10.3948L2.41394 12.1327ZM7.24153 9.65517V16.4862L14.675 17.8379L11.6433 10.3021C11.5755 10.114 11.4517 9.95115 11.2886 9.8355C11.1255 9.71985 10.9309 9.65692 10.7309 9.65517H7.24153ZM18.9581 26.069H25.5864V18.115L18.9581 26.069Z" fill="#467C3F"/>
</g>
<defs>
<clipPath id="clip0_1633_2292">
<rect width="28" height="28" fill="white"/>
</clipPath>
</defs>
</svg>
