<svg width="28" height="28" viewBox="0 0 28 28" fill="none" xmlns="http://www.w3.org/2000/svg">
<path d="M22.1668 2.3335H5.8335C4.90524 2.3335 4.015 2.70225 3.35862 3.35862C2.70225 4.015 2.3335 4.90524 2.3335 5.8335V17.5002C2.3335 18.4284 2.70225 19.3187 3.35862 19.975C4.015 20.6314 4.90524 21.0002 5.8335 21.0002H8.9135L8.23683 22.1668C8.03204 22.5215 7.92422 22.9239 7.92422 23.3335C7.92422 23.7431 8.03204 24.1455 8.23683 24.5002C8.44339 24.858 8.74124 25.1545 9.09995 25.3595C9.45866 25.5645 9.86537 25.6705 10.2785 25.6668H17.8152C18.2243 25.6664 18.6262 25.5584 18.9805 25.3536C19.3347 25.1489 19.6289 24.8545 19.8335 24.5002C20.0383 24.1455 20.1461 23.7431 20.1461 23.3335C20.1461 22.9239 20.0383 22.5215 19.8335 22.1668L19.1452 21.0002H22.1668C23.0951 21.0002 23.9853 20.6314 24.6417 19.975C25.2981 19.3187 25.6668 18.4284 25.6668 17.5002V5.8335C25.6668 4.90524 25.2981 4.015 24.6417 3.35862C23.9853 2.70225 23.0951 2.3335 22.1668 2.3335ZM10.2318 23.3335L11.6668 21.0002H16.3335L17.7335 23.3335H10.2318ZM23.3335 17.5002C23.3335 17.8096 23.2106 18.1063 22.9918 18.3251C22.773 18.5439 22.4762 18.6668 22.1668 18.6668H5.8335C5.52408 18.6668 5.22733 18.5439 5.00854 18.3251C4.78975 18.1063 4.66683 17.8096 4.66683 17.5002V16.3335H23.3335V17.5002ZM23.3335 14.0002H4.66683V5.8335C4.66683 5.52408 4.78975 5.22733 5.00854 5.00854C5.22733 4.78975 5.52408 4.66683 5.8335 4.66683H22.1668C22.4762 4.66683 22.773 4.78975 22.9918 5.00854C23.2106 5.22733 23.3335 5.52408 23.3335 5.8335V14.0002Z" fill="#467C3F"/>
</svg>
