<svg width="28" height="28" viewBox="0 0 28 28" fill="none" xmlns="http://www.w3.org/2000/svg">
<path d="M24.9955 10.922C26.0041 11.4989 26.822 12.355 27.3493 13.3857C27.8766 14.4165 28.0905 15.5774 27.9651 16.7268C27.8396 17.8763 27.3801 18.9646 26.6427 19.8592C25.9052 20.7537 24.9217 21.4157 23.812 21.7645C23.4198 23.5325 22.4315 25.1145 21.0108 26.2484C19.59 27.3824 17.822 28.0003 15.9995 28H13.0008C12.7357 28 12.4815 27.8954 12.2941 27.7092C12.1066 27.523 12.0013 27.2704 12.0013 27.0071C12.0013 26.7438 12.1066 26.4912 12.2941 26.305C12.4815 26.1188 12.7357 26.0142 13.0008 26.0142H15.9995C17.2402 26.0145 18.4504 25.6328 19.4636 24.9215C20.4768 24.2102 21.2431 23.2044 21.6569 22.0426H20.9972C20.7322 22.0426 20.4779 21.9379 20.2905 21.7517C20.103 21.5655 19.9977 21.313 19.9977 21.0496V11.1206C19.9977 10.8572 20.103 10.6047 20.2905 10.4185C20.4779 10.2323 20.7322 10.1277 20.9972 10.1277H21.9968C22.3207 10.1277 22.6385 10.1535 22.9504 10.2031C22.7253 8.00064 21.6853 5.95953 20.0318 4.47528C18.3783 2.99102 16.229 2.16929 14.0004 2.16929C11.7718 2.16929 9.62251 2.99102 7.96899 4.47528C6.31548 5.95953 5.27545 8.00064 5.05041 10.2031C5.36576 10.1529 5.68462 10.1277 6.00398 10.1277H7.00354C7.26863 10.1277 7.52287 10.2323 7.71032 10.4185C7.89778 10.6047 8.00309 10.8572 8.00309 11.1206V21.0496C8.00309 21.313 7.89778 21.5655 7.71032 21.7517C7.52287 21.9379 7.26863 22.0426 7.00354 22.0426H6.00398C4.68254 22.044 3.39761 21.6119 2.34882 20.8133C1.30004 20.0148 0.546127 18.8945 0.204222 17.6265C-0.137683 16.3586 -0.0484368 15.0139 0.458095 13.8015C0.964626 12.5891 1.86008 11.5769 3.00533 10.922C3.00533 8.0253 4.16374 5.24724 6.22571 3.19898C8.28768 1.15071 11.0843 0 14.0004 0C16.9165 0 19.7131 1.15071 21.7751 3.19898C23.837 5.24724 24.9955 8.0253 24.9955 10.922ZM6.00398 12.1135C4.9436 12.1135 3.92664 12.5319 3.17683 13.2767C2.42702 14.0216 2.00578 15.0318 2.00578 16.0851C2.00578 17.1384 2.42702 18.1486 3.17683 18.8935C3.92664 19.6383 4.9436 20.0567 6.00398 20.0567V12.1135ZM25.995 16.0851C25.995 15.0318 25.5738 14.0216 24.824 13.2767C24.0741 12.5319 23.0572 12.1135 21.9968 12.1135V20.0567C23.0572 20.0567 24.0741 19.6383 24.824 18.8935C25.5738 18.1486 25.995 17.1384 25.995 16.0851Z" fill="#467C3F"/>
</svg>
