<svg width="28" height="28" viewBox="0 0 28 28" fill="none" xmlns="http://www.w3.org/2000/svg">
<path d="M6.99984 2.3335C6.99984 2.932 7.5715 3.50016 8.1665 3.50016H19.8332C20.4317 3.50016 20.9998 2.9285 20.9998 2.3335H23.3332C23.3332 3.26175 22.9644 4.15199 22.308 4.80837C21.6517 5.46475 20.7614 5.8335 19.8332 5.8335H15.1665L15.1677 8.23916C17.4229 8.52409 19.4966 9.62204 21 11.3271C22.5033 13.0321 23.3329 15.227 23.3332 17.5002V24.5002C23.3332 24.8096 23.2103 25.1063 22.9915 25.3251C22.7727 25.5439 22.4759 25.6668 22.1665 25.6668H5.83317C5.52375 25.6668 5.22701 25.5439 5.00821 25.3251C4.78942 25.1063 4.6665 24.8096 4.6665 24.5002V17.5002C4.66654 15.2268 5.49622 13.0316 6.99984 11.3265C8.50346 9.62135 10.5777 8.52358 12.8332 8.23916V5.8335H8.1665C6.22984 5.8335 4.6665 4.27016 4.6665 2.3335H6.99984ZM13.9998 10.5002C10.2222 10.5002 6.99984 13.7202 6.99984 17.5002V23.3335H20.9998V17.5002C20.9998 13.7225 17.7775 10.5002 13.9998 10.5002ZM13.9998 12.8335C14.8655 12.8335 15.6752 13.0692 16.3705 13.4798L13.1738 16.6753C12.9646 16.8853 12.8431 17.167 12.8341 17.4633C12.825 17.7596 12.9291 18.0482 13.1251 18.2705C13.3212 18.4928 13.5945 18.6322 13.8896 18.6603C14.1846 18.6884 14.4793 18.6031 14.7138 18.4218L14.8247 18.325L18.0213 15.1295C18.4398 15.8383 18.6633 16.6452 18.6691 17.4684C18.6749 18.2915 18.4629 19.1015 18.0545 19.8161C17.6461 20.5308 17.0559 21.1247 16.3437 21.5376C15.6316 21.9504 14.823 22.1675 13.9998 22.1668C11.4215 22.1668 9.33317 20.0785 9.33317 17.5002C9.33317 14.9218 11.4215 12.8335 13.9998 12.8335Z" fill="#467C3F"/>
</svg>
