<svg xmlns="http://www.w3.org/2000/svg" viewBox="0 0 75 51.54"><g id="b94cc467-02eb-4d11-87ad-b58a9310f952" data-name="Слой 2"><g id="a1eedd03-b0bc-44b5-bee1-d525fbedb9bf" data-name="Слой 1"><path d="M55.18,48.32a7.88,7.88,0,0,1-1-4V30.58H46.62a8.07,8.07,0,0,0-4.76,1.78s0-10.86,0-16S44.34,5.17,53.23,5.17H57.1C60,5.17,61,6.26,61,6.26H53.23C45.48,6.26,43,11.68,43,16.39s0,13.82,0,13.82a5.9,5.9,0,0,1,3.21-.86H60.61c5.06,0,5.43,3.92,5.43,4.88v.52c0,7.56-4.89,7.89-4.89,7.89l2.15,3a11.93,11.93,0,0,0,6.11-6.27,21.7,21.7,0,0,0,1.36-7.81V15.12Q70.77.89,56.54.89H54.89l0,0a5.66,5.66,0,0,1-1.2.13A5,5,0,0,1,51.45.5a5.25,5.25,0,0,1-1.36.19A5.23,5.23,0,0,1,48.36.41a3.54,3.54,0,0,1-.18.48H26.93a3.33,3.33,0,0,1-.34-.8h-.1l-.27,0A5.18,5.18,0,0,1,24.4.39a6.06,6.06,0,0,1-.76,0,5.87,5.87,0,0,1-.74,0,5.15,5.15,0,0,1-2-.39l-.46.07A4.5,4.5,0,0,1,20,1.17C12.77,2.31,8.53,7,8.53,15.12V29.35h0v15a7.34,7.34,0,0,1-1.08,3.93H0v3.22H75V48.32Zm7.7-30.1A1.45,1.45,0,1,1,63.22,20,1.3,1.3,0,0,1,62.88,18.22ZM46.56,43.67c0,.19,0,.4,0,.69-.06,3.1-1.16,4-1.16,4H17.08s-1-1.14-1-4V41.1a4.42,4.42,0,0,1,4.74-4.38h21a4.38,4.38,0,0,1,4.75,4.74C46.58,42.79,46.57,43.12,46.56,43.67Z"/></g></g></svg>