<svg width="32" height="32" viewBox="0 0 32 32" fill="none" xmlns="http://www.w3.org/2000/svg">
	<path d="M26.6663 11.92C26.6525 11.7975 26.6256 11.6769 26.5863 11.56V11.44C26.5222 11.3029 26.4367 11.1769 26.333 11.0667L18.333 3.06669C18.2228 2.96298 18.0968 2.87746 17.9597 2.81335H17.8397C17.7042 2.73568 17.5546 2.68581 17.3997 2.66669H9.33301C8.27214 2.66669 7.25473 3.08811 6.50458 3.83826C5.75444 4.58841 5.33301 5.60582 5.33301 6.66669V25.3334C5.33301 26.3942 5.75444 27.4116 6.50458 28.1618C7.25473 28.9119 8.27214 29.3334 9.33301 29.3334H22.6663C23.7272 29.3334 24.7446 28.9119 25.4948 28.1618C26.2449 27.4116 26.6663 26.3942 26.6663 25.3334V12C26.6663 12 26.6663 12 26.6663 11.92ZM18.6663 7.21335L22.1197 10.6667H19.9997C19.6461 10.6667 19.3069 10.5262 19.0569 10.2762C18.8068 10.0261 18.6663 9.68698 18.6663 9.33335V7.21335ZM23.9997 25.3334C23.9997 25.687 23.8592 26.0261 23.6091 26.2762C23.3591 26.5262 23.02 26.6667 22.6663 26.6667H9.33301C8.97939 26.6667 8.64025 26.5262 8.3902 26.2762C8.14015 26.0261 7.99967 25.687 7.99967 25.3334V6.66669C7.99967 6.31307 8.14015 5.97393 8.3902 5.72388C8.64025 5.47383 8.97939 5.33335 9.33301 5.33335H15.9997V9.33335C15.9997 10.3942 16.4211 11.4116 17.1712 12.1618C17.9214 12.9119 18.9388 13.3334 19.9997 13.3334H23.9997V25.3334Z" fill="#467C3F"/>
	</svg>
