<svg width="32" height="32" viewBox="0 0 32 32" fill="none" xmlns="http://www.w3.org/2000/svg">
	<path d="M4.0013 12C4.35492 12 4.69406 11.8595 4.94411 11.6095C5.19416 11.3594 5.33464 11.0203 5.33464 10.6667V6.66667C5.33464 6.31305 5.47511 5.97391 5.72516 5.72386C5.97521 5.47381 6.31435 5.33334 6.66797 5.33334H10.668C11.0216 5.33334 11.3607 5.19286 11.6108 4.94281C11.8608 4.69277 12.0013 4.35363 12.0013 4.00001C12.0013 3.64638 11.8608 3.30724 11.6108 3.0572C11.3607 2.80715 11.0216 2.66667 10.668 2.66667H6.66797C5.6071 2.66667 4.58969 3.0881 3.83954 3.83824C3.0894 4.58839 2.66797 5.60581 2.66797 6.66667V10.6667C2.66797 11.0203 2.80844 11.3594 3.05849 11.6095C3.30854 11.8595 3.64768 12 4.0013 12ZM10.668 26.6667H6.66797C6.31435 26.6667 5.97521 26.5262 5.72516 26.2761C5.47511 26.0261 5.33464 25.687 5.33464 25.3333V21.3333C5.33464 20.9797 5.19416 20.6406 4.94411 20.3905C4.69406 20.1405 4.35492 20 4.0013 20C3.64768 20 3.30854 20.1405 3.05849 20.3905C2.80844 20.6406 2.66797 20.9797 2.66797 21.3333V25.3333C2.66797 26.3942 3.0894 27.4116 3.83954 28.1618C4.58969 28.9119 5.6071 29.3333 6.66797 29.3333H10.668C11.0216 29.3333 11.3607 29.1929 11.6108 28.9428C11.8608 28.6928 12.0013 28.3536 12.0013 28C12.0013 27.6464 11.8608 27.3072 11.6108 27.0572C11.3607 26.8071 11.0216 26.6667 10.668 26.6667ZM16.0013 10.6667C14.9465 10.6667 13.9153 10.9795 13.0383 11.5655C12.1612 12.1515 11.4776 12.9845 11.0739 13.959C10.6703 14.9336 10.5647 16.0059 10.7704 17.0405C10.9762 18.0751 11.4842 19.0254 12.2301 19.7712C12.9759 20.5171 13.9263 21.0251 14.9608 21.2309C15.9954 21.4366 17.0677 21.331 18.0423 20.9274C19.0168 20.5237 19.8498 19.8401 20.4358 18.963C21.0218 18.086 21.3346 17.0548 21.3346 16C21.3346 14.5855 20.7727 13.229 19.7725 12.2288C18.7723 11.2286 17.4158 10.6667 16.0013 10.6667ZM16.0013 18.6667C15.4739 18.6667 14.9583 18.5103 14.5198 18.2173C14.0813 17.9242 13.7395 17.5078 13.5376 17.0205C13.3358 16.5332 13.283 15.997 13.3859 15.4798C13.4888 14.9625 13.7427 14.4873 14.1157 14.1144C14.4886 13.7414 14.9638 13.4875 15.4811 13.3846C15.9983 13.2817 16.5345 13.3345 17.0218 13.5363C17.5091 13.7382 17.9255 14.08 18.2186 14.5185C18.5116 14.957 18.668 15.4726 18.668 16C18.668 16.7072 18.387 17.3855 17.8869 17.8856C17.3868 18.3857 16.7085 18.6667 16.0013 18.6667ZM25.3346 2.66667H21.3346C20.981 2.66667 20.6419 2.80715 20.3918 3.0572C20.1418 3.30724 20.0013 3.64638 20.0013 4.00001C20.0013 4.35363 20.1418 4.69277 20.3918 4.94281C20.6419 5.19286 20.981 5.33334 21.3346 5.33334H25.3346C25.6883 5.33334 26.0274 5.47381 26.2774 5.72386C26.5275 5.97391 26.668 6.31305 26.668 6.66667V10.6667C26.668 11.0203 26.8084 11.3594 27.0585 11.6095C27.3085 11.8595 27.6477 12 28.0013 12C28.3549 12 28.6941 11.8595 28.9441 11.6095C29.1942 11.3594 29.3346 11.0203 29.3346 10.6667V6.66667C29.3346 5.60581 28.9132 4.58839 28.1631 3.83824C27.4129 3.0881 26.3955 2.66667 25.3346 2.66667ZM28.0013 20C27.6477 20 27.3085 20.1405 27.0585 20.3905C26.8084 20.6406 26.668 20.9797 26.668 21.3333V25.3333C26.668 25.687 26.5275 26.0261 26.2774 26.2761C26.0274 26.5262 25.6883 26.6667 25.3346 26.6667H21.3346C20.981 26.6667 20.6419 26.8071 20.3918 27.0572C20.1418 27.3072 20.0013 27.6464 20.0013 28C20.0013 28.3536 20.1418 28.6928 20.3918 28.9428C20.6419 29.1929 20.981 29.3333 21.3346 29.3333H25.3346C26.3955 29.3333 27.4129 28.9119 28.1631 28.1618C28.9132 27.4116 29.3346 26.3942 29.3346 25.3333V21.3333C29.3346 20.9797 29.1942 20.6406 28.9441 20.3905C28.6941 20.1405 28.3549 20 28.0013 20Z" fill="#467C3F"/>
	</svg>
