<svg width="43" height="58" viewBox="0 0 43 58" fill="none" xmlns="http://www.w3.org/2000/svg">
<path d="M21.0947 0C9.46303 0 0 9.30227 0 20.7363C0 34.9262 18.8777 55.7578 19.6814 56.6377C20.4364 57.4643 21.7544 57.4628 22.508 56.6377C23.3117 55.7578 42.1894 34.9262 42.1894 20.7363C42.1892 9.30227 32.7263 0 21.0947 0ZM21.0947 31.1692C15.2425 31.1692 10.4815 26.489 10.4815 20.7363C10.4815 14.9835 15.2426 10.3034 21.0947 10.3034C26.9468 10.3034 31.7078 14.9836 31.7078 20.7364C31.7078 26.4891 26.9468 31.1692 21.0947 31.1692Z" fill="#F0F0ED"/>
<circle cx="21.5969" cy="21.5971" r="14.5654" fill="#A0AB7B"/>
</svg>
