<svg width="24" height="24" viewBox="0 0 24 24" fill="none" xmlns="http://www.w3.org/2000/svg"><path d="M5.57234 7.887C5.28584 6 6.61634 4.305 8.64884 3.684C9.00952 3.57372 9.39868 3.60511 9.73703 3.77177C10.0754 3.93844 10.3374 4.22783 10.4698 4.581L11.1223 6.321C11.2274 6.60092 11.2464 6.90584 11.1769 7.19663C11.1074 7.48742 10.9526 7.75081 10.7323 7.953L8.79134 9.7305C8.69566 9.8183 8.62437 9.92939 8.58441 10.0529C8.54446 10.1765 8.5372 10.3083 8.56334 10.4355L8.58134 10.5135L8.62784 10.7085C8.86923 11.656 9.23703 12.5666 9.72134 13.416C10.2489 14.3185 10.9036 15.1405 11.6653 15.8565L11.7253 15.9105C11.8222 15.9965 11.9398 16.0559 12.0665 16.083C12.1932 16.1101 12.3247 16.1039 12.4483 16.065L14.9578 15.2745C15.243 15.185 15.5485 15.1827 15.835 15.2679C16.1215 15.3532 16.376 15.5221 16.5658 15.753L17.7538 17.1945C18.2488 17.7945 18.1888 18.6765 17.6203 19.206C16.0648 20.6565 13.9258 20.9535 12.4378 19.758C10.6139 18.2867 9.07627 16.4923 7.90184 14.4645C6.71788 12.4382 5.92703 10.2066 5.57084 7.887H5.57234ZM10.1368 10.5345L11.7448 9.0585C12.1856 8.6543 12.4955 8.1276 12.6347 7.54601C12.774 6.96442 12.7362 6.35448 12.5263 5.7945L11.8753 4.0545C11.6089 3.34387 11.0814 2.76159 10.4006 2.4263C9.71969 2.09102 8.93659 2.02797 8.21084 2.25C5.68634 3.0225 3.65984 5.286 4.08884 8.1135C4.38884 10.0875 5.08034 12.5985 6.60584 15.2205C7.87291 17.407 9.53153 19.3418 11.4988 20.928C13.7308 22.7205 16.7098 22.1085 18.6448 20.3055C19.7938 19.2345 19.9108 17.4555 18.9133 16.2435L17.7253 14.8005C17.3453 14.3392 16.8361 14.002 16.2631 13.832C15.6901 13.662 15.0794 13.6671 14.5093 13.8465L12.4258 14.502C11.8879 13.9473 11.4167 13.3317 11.0218 12.6675C10.6404 11.996 10.3432 11.2801 10.1368 10.536V10.5345Z" fill="#467C3F" stroke="#467C3F"/></svg>