<svg width="29" height="29" viewBox="0 0 29 29" xmlns="http://www.w3.org/2000/svg">
<path fill-rule="evenodd" clip-rule="evenodd" d="M0 14.5C0 6.4931 6.4931 0 14.5 0C22.5069 0 29 6.4931 29 14.5C29 22.5069 22.5069 29 14.5 29C6.4931 29 0 22.5069 0 14.5ZM22.389 19.9539C22.5947 19.4242 22.7357 18.8191 22.7759 17.9327C22.8167 17.0448 22.8262 16.7612 22.8262 14.5C22.8262 12.2388 22.8167 11.9552 22.7762 11.0673C22.7357 10.1809 22.595 9.57581 22.389 9.04613C22.1801 8.49056 21.8522 7.98743 21.4287 7.57148C21.0128 7.14778 20.5094 6.81989 19.9539 6.6108C19.4242 6.40526 18.8191 6.26454 17.9327 6.22427C17.0448 6.18356 16.7612 6.17383 14.5 6.17383C12.2388 6.17383 11.9552 6.18356 11.0673 6.22405C10.1809 6.26454 9.57581 6.40526 9.04613 6.61102C8.49056 6.82011 7.98721 7.14778 7.57148 7.57148C7.14778 7.98721 6.81989 8.49056 6.6108 9.04613C6.40504 9.57581 6.26432 10.1809 6.22405 11.0673C6.18334 11.9552 6.17383 12.2388 6.17383 14.5C6.17383 16.7612 6.18334 17.0448 6.22427 17.933C6.26454 18.8191 6.40548 19.4244 6.61124 19.9539C6.82033 20.5094 7.148 21.0128 7.57148 21.4285C7.98743 21.8522 8.49056 22.1799 9.04635 22.389C9.57581 22.5947 10.1812 22.7355 11.0673 22.7759C11.9554 22.8164 12.2388 22.8262 14.5002 22.8262C16.7614 22.8262 17.0451 22.8164 17.933 22.7759C18.8191 22.7355 19.4244 22.5947 19.9539 22.389C21.0723 21.9564 21.9564 21.0723 22.389 19.9539ZM20.9907 9.58948C20.8572 9.22795 20.6444 8.90072 20.3678 8.63212C20.0992 8.35555 19.7722 8.14271 19.4105 8.00929C19.1171 7.89535 18.6764 7.75972 17.8646 7.72277C16.9864 7.68273 16.7231 7.6741 14.5 7.6741C12.2766 7.6741 12.0133 7.6825 11.1354 7.72255C10.3236 7.75972 9.88268 7.89535 9.58952 8.00929C9.22778 8.14271 8.90054 8.35555 8.63216 8.63212C8.3556 8.90072 8.14275 9.22773 8.00912 9.58948C7.89517 9.88286 7.75954 10.3238 7.7226 11.1356C7.68255 12.0135 7.67392 12.2768 7.67392 14.5002C7.67392 16.7233 7.68255 16.9866 7.7226 17.8648C7.75954 18.6765 7.89517 19.1173 8.00912 19.4107C8.14275 19.7724 8.35538 20.0994 8.63194 20.368C8.90054 20.6446 9.22755 20.8574 9.5893 20.9908C9.88268 21.105 10.3236 21.2406 11.1354 21.2776C12.0133 21.3176 12.2764 21.326 14.4998 21.326C16.7234 21.326 16.9867 21.3176 17.8644 21.2776C18.6761 21.2406 19.1171 21.105 19.4105 20.9908C20.1366 20.7107 20.7106 20.1368 20.9907 19.4107C21.1046 19.1173 21.2402 18.6765 21.2774 17.8648C21.3175 16.9866 21.3259 16.7233 21.3259 14.5002C21.3259 12.2768 21.3175 12.0135 21.2774 11.1356C21.2405 10.3238 21.1048 9.88286 20.9907 9.58948ZM14.5 18.7754C12.1386 18.7754 10.2243 16.8614 10.2243 14.5C10.2243 12.1385 12.1386 10.2245 14.5 10.2245C16.8612 10.2245 18.7755 12.1385 18.7755 14.5C18.7755 16.8614 16.8612 18.7754 14.5 18.7754ZM18.9445 11.0546C18.3927 11.0546 17.9453 10.6072 17.9453 10.0554C17.9453 9.50363 18.3927 9.05626 18.9445 9.05626C19.4963 9.05626 19.9437 9.50363 19.9437 10.0554C19.9435 10.6072 19.4963 11.0546 18.9445 11.0546ZM17.2754 14.5C17.2754 16.0328 16.0328 17.2754 14.5 17.2754C12.9672 17.2754 11.7246 16.0328 11.7246 14.5C11.7246 12.9672 12.9672 11.7246 14.5 11.7246C16.0328 11.7246 17.2754 12.9672 17.2754 14.5Z"/>
</svg>
