<svg width="47" height="43" viewBox="0 0 47 43" fill="none" xmlns="http://www.w3.org/2000/svg">
<path d="M16.5786 12.5847C19.1116 7.01212 24.9515 2.94528 27.5548 1.60843C23.7553 2.3824 14.8055 4.69022 11.0905 8.57412C6.44666 13.429 3.49152 24.1941 4.54693 25.8828C5.39125 27.2337 9.26108 30.2452 11.0905 31.582C12.6384 32.567 17.7184 34.2838 25.6551 33.2707C33.5917 32.2575 42.4712 26.7975 45.9189 24.1941C45.6375 21.3094 44.9057 14.8221 44.2302 11.9514C43.5548 9.08071 37.4756 5.26718 34.5205 3.71924L33.8873 0.130859C31.0728 1.88987 24.7685 6.54774 22.0667 11.1071C19.3648 15.6665 17.7043 23.8423 17.2118 27.3604L12.7791 25.0385C12.9902 23.2091 14.0456 18.1572 16.5786 12.5847Z" fill="#9C9C9C"/>
<path d="M1.16977 36.6477C-1.70094 33.9458 1.38085 29.3302 3.28059 27.3601L7.7133 33.0592C9.96483 34.4664 16.3676 37.0697 23.9666 36.2254C31.5655 35.3811 42.4714 29.2598 46.9745 26.3047C47.2559 26.2343 45.328 28.0356 35.365 35.8034C25.4019 43.5712 17.2823 43.4023 14.4679 42.3469C11.2313 41.5729 4.04048 39.3495 1.16977 36.6477Z" fill="#9C9C9C"/>
</svg>
