<svg width="55" height="44" viewBox="0 0 55 44" fill="none" xmlns="http://www.w3.org/2000/svg">
<path fill-rule="evenodd" clip-rule="evenodd" d="M47.1308 37.257C40.7077 41.9088 33.4764 44 24.6716 44C13.9949 44 0.12793 38.7507 0.000384123 22.8748C-0.0847397 6.95637 13.9949 0 25.4797 0C35.3481 0 43.7278 3.07272 47.1308 5.42001V14.2542C44.2807 12.4617 39.0487 10.4132 34.2847 10.4558C28.7975 10.4986 22.8425 14.1261 22.8425 21.9359C22.8425 29.7032 29.393 32.7332 35.0503 32.7759C39.2614 32.7759 44.1532 30.8128 47.1308 28.2521V37.257ZM51.512 20.1009H55V15.7479H40.0272V20.1009H43.6002V26.6304H51.512V20.1009ZM9.74124 35.2938V17.9671C9.74124 16.3027 10.9748 14.5102 13.0591 14.5529C15.1434 14.5956 16.3345 16.2599 16.2919 17.9671C16.2068 19.7168 14.3352 21.2532 13.0591 21.2532C12.1233 21.2532 11.5278 21.1251 11.2725 20.8691V25.5207C11.698 25.8195 11.6554 25.9048 13.0591 25.9048C17.2702 25.9048 20.8858 21.8932 20.8858 17.9671C20.8858 14.0835 17.8232 10.0291 13.0591 10.0291C8.29497 10.0291 5.23238 14.6809 5.23238 17.9671V30.3859C5.23238 32.9893 7.57193 34.4403 9.74124 35.2938Z" fill="#9C9C9C"/>
</svg>
