<svg width="122" height="19" viewBox="0 0 122 19" fill="none" xmlns="http://www.w3.org/2000/svg">
<g opacity="0.64">
<path fill-rule="evenodd" clip-rule="evenodd" d="M3.26771 3.1957C9.69552 0.354468 19.365 9.59743 24.0393 1.44284C13.8397 4.25863 8.6065 -4.37396 3.26771 3.1957ZM1.48811 9.7572C7.91592 6.94205 17.6114 16.185 22.2597 8.00433C12.0868 10.8462 6.85364 2.21363 1.48811 9.7572ZM0 16.6897C6.40173 13.8746 16.0972 23.1176 20.7448 14.9369C10.572 17.7788 5.33945 9.14617 0 16.6897ZM32.964 10.3415C32.1143 9.7298 31.1844 9.3581 30.2017 9.22573C30.0158 9.19899 29.83 9.19899 29.6441 9.17225H28.662C28.5557 9.17225 28.4762 9.17225 28.3966 9.19899H28.2108L28.3966 8.53515L29.9369 3.16961H30.7873C30.9731 3.16961 31.2124 3.1957 31.5046 3.22243C31.77 3.24917 32.0621 3.27591 32.3543 3.35546C32.859 3.48849 33.3103 3.78064 33.7361 4.20581C34.1345 4.6036 34.3999 5.26809 34.5062 6.17126H34.9842L36.126 2.29318H24.8361L24.6503 2.87747H24.9157C25.2874 2.87747 25.633 2.93094 25.9245 3.03724C26.2166 3.14353 26.3764 3.3822 26.3764 3.75455C26.3764 3.80803 26.3497 3.88758 26.3497 3.96714C26.3192 4.07067 26.3014 4.17754 26.2968 4.28537C26.2968 4.33884 26.2701 4.36557 26.2701 4.36557V4.4184C26.2166 4.52469 26.2166 4.60425 26.1906 4.68446C26.1906 4.76402 26.1638 4.81749 26.1371 4.84422L23.0559 15.6014C22.8968 16.213 22.6574 16.6904 22.3914 17.036C22.0992 17.4077 21.5945 17.5668 20.8244 17.5668H20.3992L20.2401 18.1778H28.3953C29.9356 18.125 31.2372 17.7005 32.4058 16.9297C33.6011 16.1322 34.2128 14.9108 34.2128 13.317C34.2128 11.9352 33.8143 10.9525 32.964 10.3415ZM29.6174 16.1315C29.2189 16.4765 28.8205 16.7432 28.3953 16.9291C27.8967 17.1621 27.352 17.28 26.8016 17.274H26.589C26.5094 17.274 26.4292 17.274 26.3764 17.2479H26.1371C26.0689 17.2207 25.9974 17.2027 25.9245 17.1945L27.9434 10.1022C27.9962 10.0754 28.0758 10.0754 28.156 10.0754H28.4749C29.0592 10.1022 29.6174 10.2613 30.1215 10.6069C30.6262 10.9251 30.8655 11.5896 30.8655 12.5463C30.8662 14.1935 30.441 15.3888 29.6174 16.1315ZM121.735 17.5662C121.469 17.5662 121.257 17.4866 121.07 17.3536C120.886 17.2212 120.805 16.8495 120.805 16.2117V15.8929C120.805 15.8133 120.805 15.707 120.832 15.574L121.841 1.97495H121.257L111.11 15.2825C110.42 16.1857 109.862 16.7699 109.437 17.0621C109.092 17.3008 108.773 17.4599 108.507 17.5127C108.109 17.4331 107.817 17.2479 107.604 16.9819C107.342 16.6077 107.119 16.2071 106.94 15.7866C106.94 15.7598 103.699 8.45559 103.699 8.45559L107.789 4.60425C108.507 3.88693 109.118 3.43567 109.596 3.22308C110.074 2.98441 110.526 2.87812 110.87 2.87812H110.951L111.11 2.29384H105.903L105.744 2.87812H105.903C106.143 2.87812 106.302 2.9316 106.382 3.03789C106.514 3.14418 106.568 3.27721 106.62 3.40959C106.647 3.46306 106.674 3.51588 106.674 3.56935C106.674 3.62282 106.7 3.67565 106.7 3.72912C106.7 3.94105 106.62 4.15364 106.514 4.36688C106.382 4.55273 106.275 4.71184 106.143 4.84487C106.063 4.92443 106.01 5.00399 105.957 5.05746C105.877 5.11028 105.825 5.13702 105.771 5.19049L101.202 9.51982H101.122L102.477 4.84553C102.663 4.12821 102.902 3.65021 103.195 3.33133C103.486 3.03919 103.965 2.88008 104.682 2.88008L104.841 2.29579H97.8284L97.6693 2.88008H97.9086C98.4929 2.88008 98.892 2.95964 99.0778 3.1194C99.2891 3.25243 99.3693 3.4911 99.3693 3.75716C99.3693 3.94301 99.3426 4.10213 99.3158 4.28798C99.2637 4.47383 99.2102 4.66033 99.1567 4.84618L96.0755 15.6033C95.8629 16.2946 95.6236 16.7986 95.3315 17.1175C95.1991 17.2766 95.0132 17.3829 94.7739 17.4625C94.5078 17.542 94.2163 17.5688 93.8707 17.5688H93.4456L93.2597 18.1798H100.564L100.724 17.5688H100.591C100.033 17.5688 99.6608 17.4892 99.4495 17.3562C99.2637 17.1971 99.1567 16.9845 99.1567 16.6917C99.1567 16.5326 99.1834 16.3467 99.2102 16.1609C99.2637 16.0018 99.3158 15.8159 99.3693 15.6033L100.883 10.3976H100.936L103.3 15.8166C103.353 15.9496 103.406 16.082 103.433 16.1883C103.46 16.3206 103.46 16.4276 103.46 16.5332C103.46 16.8521 103.38 17.1175 103.194 17.304C103.008 17.4905 102.742 17.5694 102.396 17.5694H102.212L101.999 18.1805H112.81L112.996 17.5694H112.703C112.385 17.5694 112.145 17.4899 112.012 17.4103C111.853 17.2773 111.773 17.171 111.721 17.0386C111.721 16.9591 111.694 16.9056 111.694 16.8528C111.694 16.7993 111.667 16.7465 111.667 16.693C111.667 16.6134 111.721 16.5071 111.773 16.3748C111.826 16.2417 111.88 16.1094 111.986 15.9763C112.012 15.9235 112.039 15.8968 112.066 15.844C112.091 15.7905 112.118 15.7637 112.145 15.7109C112.225 15.6046 112.277 15.5251 112.357 15.4188C112.411 15.3392 112.463 15.2597 112.516 15.2068L113.898 13.3731H117.723L117.564 15.499C117.539 15.9803 117.44 16.4549 117.271 16.9062C117.139 17.2251 116.872 17.437 116.421 17.5173C116.246 17.5496 116.069 17.5675 115.89 17.5707H115.758L115.572 18.1818H121.814L122 17.5707H121.735V17.5662ZM117.778 12.466H114.589L118.148 7.76501H118.228L117.778 12.466ZM90.603 17.4071C90.3115 17.3008 90.1524 17.0621 90.1524 16.6891C90.1524 16.6095 90.1792 16.4765 90.2059 16.3174C90.2326 16.1583 90.2848 15.9196 90.3917 15.6001L93.4729 4.84292C93.6588 4.1256 93.8981 3.64761 94.217 3.32873C94.3494 3.1957 94.5352 3.09006 94.7746 3.00985C95.0669 2.9189 95.3716 2.87402 95.6777 2.87682H96.1029L96.262 2.29253H89.0099L88.7986 2.87682H88.931C89.4084 2.87682 89.7807 2.93029 90.02 3.0894C90.2594 3.19504 90.365 3.43437 90.365 3.75325V3.88628C90.365 3.96649 90.3383 4.04539 90.3383 4.09887C90.3115 4.17907 90.3115 4.23189 90.2848 4.31145V4.44448L82.2365 13.4494H82.1309L84.6004 4.84357C84.7862 4.25928 84.9988 3.78129 85.2655 3.40894C85.557 3.06397 86.0618 2.87812 86.8319 2.87812H87.098L87.2571 2.29384H80.005L79.7924 2.87812H80.0852C80.6428 2.87812 81.0151 2.95768 81.2277 3.11745C81.4135 3.25048 81.5192 3.48915 81.5192 3.7552C81.5192 3.94106 81.4924 4.10017 81.439 4.28602C81.4082 4.475 81.3639 4.66154 81.3066 4.84422L78.2254 15.6014C78.0395 16.2926 77.8002 16.7967 77.4813 17.1156C77.4024 17.1951 77.3222 17.2486 77.2153 17.3275C76.897 17.4873 76.4993 17.5668 76.0206 17.5668H75.5687L75.4096 18.1778H82.6884L82.8743 17.5668H82.7673C82.3702 17.5668 82.0233 17.5133 81.7318 17.4077C81.439 17.3014 81.3066 17.0627 81.3066 16.6897C81.3066 16.6369 81.3066 16.5574 81.3333 16.4772C81.3333 16.3982 81.3601 16.292 81.3868 16.1857V16.1322C81.4135 16.0794 81.4135 16.0526 81.4135 16.0526C81.4135 15.9731 81.439 15.9203 81.439 15.8668C81.4657 15.814 81.4924 15.7872 81.4924 15.7344L89.5942 6.49079H89.6744L87.098 15.6014C86.8854 16.2926 86.6193 16.7967 86.3272 17.1156C86.0089 17.4077 85.5296 17.5668 84.8664 17.5668H84.5736L84.4145 18.1778H91.6934L91.8792 17.5668H91.6131C91.2698 17.5713 90.9282 17.5173 90.603 17.4071ZM77.2159 5.13506C77.2821 5.4764 77.3179 5.82295 77.3229 6.17061V6.78163H77.8002L78.9962 2.29253H67.2296L65.8745 6.78163H66.3531C66.777 5.87846 67.4154 5.08159 68.2651 4.36427C69.1161 3.62022 70.1249 3.24852 71.24 3.16896L67.6802 15.5994C67.6547 15.6262 67.6547 15.6529 67.628 15.7057C67.628 15.7324 67.628 15.7585 67.6013 15.7853C67.4422 16.3428 67.2296 16.7686 66.9629 17.0869C66.7248 17.4058 66.1666 17.5649 65.3698 17.5649H64.7855L64.5996 18.1759H72.6479L72.8083 17.5649H72.2508C71.8524 17.5649 71.48 17.4853 71.1872 17.4058C70.8957 17.2995 70.7633 17.0608 70.7633 16.6878C70.7633 16.6617 70.7633 16.5821 70.7901 16.4752C70.7901 16.3696 70.8155 16.29 70.8422 16.157C70.8422 16.1302 70.8422 16.1041 70.869 16.1041V16.0246C70.8957 15.9183 70.9225 15.8387 70.9225 15.7585C70.9492 15.6796 70.9492 15.6262 70.9746 15.5994L74.5345 3.16896H74.6936C75.3842 3.16896 75.9952 3.40763 76.5273 3.88628C76.8455 4.17907 77.0836 4.60359 77.2159 5.13506ZM65.5021 2.87747H65.9273L66.1132 2.29318H53.6566L53.444 2.87747H53.789C54.2409 2.87747 54.6126 3.0105 54.878 3.24917C55.1702 3.51458 55.3032 3.86019 55.3032 4.31145C55.3032 4.4973 55.2765 4.65707 55.2236 4.84292C55.1702 5.02877 55.0906 5.21462 55.0378 5.40047C55.0378 5.45394 55.0111 5.50676 55.0111 5.5335C54.9843 5.61305 54.9576 5.63979 54.9576 5.69261L54.3466 7.89738C54.1874 8.37538 54.0277 8.96032 53.8425 9.59743C53.6566 10.2352 53.444 10.8723 53.2308 11.5629C53.0717 11.9881 52.9387 12.44 52.7795 12.8377C52.6198 13.2629 52.4874 13.6614 52.3276 14.0598C52.1685 14.4315 52.0355 14.7771 51.9031 15.096C51.7434 15.4142 51.611 15.707 51.4512 15.9196C51.3984 16.052 51.3188 16.1315 51.2654 16.2378C51.1858 16.3441 51.133 16.4504 51.0528 16.53C50.9335 16.6677 50.8 16.7923 50.6543 16.9017C50.522 17.008 50.3889 17.0347 50.2298 17.0347C50.07 17.0347 49.9377 16.9812 49.9109 16.8489C49.8587 16.7041 49.8318 16.5515 49.8314 16.3976V16.3174V16.2117V16.1315C49.8314 16.1054 49.8046 16.0787 49.8046 16.052V16.0259C49.8046 15.9992 49.8046 15.9992 49.7779 15.9724C49.7512 15.7598 49.6188 15.5479 49.4062 15.3347C49.1936 15.1495 48.9015 15.0425 48.503 15.0425C48.1046 15.0425 47.759 15.1755 47.4668 15.441C47.1747 15.7331 47.0156 16.1054 47.0156 16.5834C47.0156 16.9551 47.1219 17.274 47.281 17.5662C47.0417 17.5394 46.8558 17.4866 46.67 17.3536C46.4841 17.2212 46.4039 16.8495 46.4039 16.2117V15.8929C46.4039 15.8133 46.4039 15.707 46.4306 15.574L47.4394 1.97495H46.8552L36.6823 15.2825C35.9911 16.1857 35.4335 16.7699 35.009 17.0621C34.9823 17.0882 34.9555 17.1149 34.9027 17.141C34.531 17.3803 34.1854 17.5127 33.8932 17.5662L33.7074 18.1772H38.4091L38.5949 17.5662H38.3028C37.9572 17.5662 37.7185 17.4866 37.5855 17.4071C37.4531 17.274 37.3468 17.1677 37.3201 17.0354C37.2927 16.9558 37.2927 16.9023 37.2927 16.8495C37.2666 16.796 37.2666 16.7432 37.2666 16.6897C37.2666 16.6102 37.2927 16.5039 37.3461 16.3715C37.4062 16.2332 37.4773 16.1 37.5587 15.9731C37.6115 15.9203 37.6383 15.8935 37.6383 15.8407C37.6911 15.7872 37.7178 15.7605 37.7446 15.7077C37.798 15.6014 37.8776 15.5218 37.9565 15.4155C38.01 15.336 38.0628 15.2564 38.1163 15.2036L39.4974 13.3699H43.3488L43.1629 15.4957C43.1378 15.977 43.0393 16.4515 42.8708 16.903C42.7378 17.2219 42.4724 17.4338 42.0211 17.514C41.862 17.5407 41.6755 17.5675 41.4896 17.5675H41.3572L41.1714 18.1785H47.4134L47.5197 17.8603C47.5197 17.8864 47.5457 17.8864 47.5725 17.9131C47.9174 18.2581 48.3961 18.4178 49.0065 18.4178C49.9096 18.4178 50.7065 18.1518 51.3175 17.647C51.9279 17.169 52.5128 16.2926 53.0704 15.0177C53.4154 14.2209 53.7877 13.2108 54.1861 12.0696C54.5578 10.8743 54.9563 9.49309 55.4343 7.89869L56.7626 3.17092H60.4542L56.9217 15.6014C56.7091 16.2926 56.4705 16.7967 56.1777 17.1156C55.8855 17.4077 55.4075 17.5668 54.6902 17.5668H54.265L54.1059 18.1778H61.5432L61.7023 17.5668H61.4376C60.8794 17.5668 60.5077 17.4873 60.2951 17.3542C60.1092 17.1951 60.0029 16.9825 60.0029 16.6897C60.0029 16.5306 60.0297 16.3448 60.0564 16.1589C60.1099 15.9998 60.1627 15.814 60.2162 15.6014L63.2974 4.84357C63.51 4.12625 63.7493 3.64826 64.0414 3.32938C64.3075 3.06397 64.7587 2.90421 65.3698 2.87812L65.5021 2.87747ZM43.3768 12.466H40.1893L43.7485 7.76501H43.8281L43.3768 12.466Z" fill="#F0F0ED"/>
</g>
</svg>
