<svg width="99" height="32" viewBox="0 0 99 32" fill="none" xmlns="http://www.w3.org/2000/svg">
<g opacity="0.64">
<path d="M37.6759 27.9145C34.0252 25.572 29.0707 25.1609 21.0804 27.3691C12.5623 29.363 9.72217 30.6411 5.99233 28.0753C4.5594 26.8148 4.04567 24.7854 4.42928 21.8621C5.31903 17.0967 7.72351 12.5108 11.9946 7.42381C14.3784 4.7776 16.5899 2.50667 19.5098 1.59475C21.7477 1.02268 21.5385 2.77456 21.2677 3.02511C20.982 3.02511 20.5019 3.06994 20.131 3.31108C19.8299 3.54368 19.0034 4.29471 18.959 5.30496C18.895 6.8515 20.5017 6.52961 21.1947 5.68048C21.9417 4.72361 23.0457 2.89122 22.1773 1.18344C21.8133 0.575579 21.1844 0.155474 20.4036 0.0124261C17.7298 -0.139784 15.2397 1.12981 12.9415 2.53342C7.91544 6.01116 3.89494 10.8301 1.61998 16.1049C0.308467 19.2875 -0.877704 23.8465 0.900203 27.5571C2.27573 30.1317 5.13115 31.4993 8.53796 31.2133C10.9273 30.9632 13.8166 30.194 15.7598 29.7296C17.7032 29.2642 27.6502 25.8585 30.9186 31.7862C30.9186 31.7862 32.0054 29.6847 34.7215 29.6399C36.9546 29.4347 40.1761 30.2838 42.5219 32C41.7403 30.8292 39.5245 29.1037 37.6759 27.9145Z" fill="#F0F0ED"/>
<path d="M22.0948 8.02217C20.2343 6.80632 16.495 9.13076 13.5001 13.1179C10.7613 16.6944 9.57865 20.8511 10.8658 22.7732C12.7802 25.035 16.3344 21.7451 17.8458 19.9842L18.0408 19.7784C19.0686 18.6787 19.8626 17.3555 20.6313 16.0858C20.6313 16.0858 21.3377 14.9235 21.3714 14.8698C21.808 14.7897 22.3339 14.6644 22.9265 14.4945C22.9181 14.5211 20.6593 18.3029 20.8897 20.18C20.9615 20.7527 20.9068 22.8447 22.9572 23.4793C25.6901 23.9356 27.8723 21.8254 29.7975 19.9479C29.7975 19.9479 30.1256 19.6353 30.3111 19.4569C30.2642 19.644 30.203 19.8938 30.203 19.8938C29.4029 22.6654 30.4814 23.247 31.156 23.4615C33.1949 24.052 35.6306 21.1015 35.6386 21.1015C35.5753 22.0309 35.3908 22.7996 36.3743 23.4166C37.3026 23.7477 38.2421 23.2429 38.9564 22.7691C41.5287 20.9633 43.6011 18.1368 45.2749 15.6938H44.2072C44.1946 15.6938 41.5727 19.4792 39.87 20.302C39.8673 20.302 39.5574 20.4604 39.379 20.3351C39.1579 20.1473 39.2451 19.7568 39.3816 19.4802C39.3902 19.4622 45.9556 8.1199 45.9556 8.1199H42.8557C42.8557 8.1199 42.5171 8.66558 42.4895 8.70138C42.4687 8.68354 42.419 8.58972 42.3847 8.54477C40.4641 5.89856 36.1149 9.9689 32.8406 14.6891C31.58 16.5042 29.975 18.5478 28.3108 20.0228C28.3108 20.0228 25.8452 22.274 24.7919 20.6566C24.4068 19.977 24.5252 18.9835 24.7424 18.331C25.969 14.8532 28.0824 11.697 30.4875 9.79262C31.1663 9.2655 31.9044 9.11305 32.2704 9.3366C32.6195 9.54256 32.6758 10.0517 32.455 10.4005C31.8949 10.3826 31.446 10.5522 31.0813 10.9277C30.3626 11.6788 30.113 12.403 30.3414 13.0826C31.4514 14.656 33.6652 11.5447 33.5581 9.64945C33.5199 8.96988 33.156 8.32635 32.6127 8.01313C31.8032 7.5306 30.5682 7.65557 29.7689 8.04025C28.6989 8.4424 27.0054 9.84588 26.0168 10.9368C24.7722 12.3048 22.6377 13.8245 21.9703 13.6543C22.1885 13.0731 23.9914 9.39878 22.0948 8.02217ZM37.0398 13.4578C37.6428 12.6265 39.3979 10.4002 39.8258 10.0248C41.2648 8.7638 41.84 9.31864 41.8898 9.71175C40.5468 12.1077 38.9617 14.8524 37.4713 17.3201C37.4744 17.3113 37.0049 18.0263 37.0049 18.0263C36.3467 19.0272 35.684 19.8856 34.6029 20.4845C34.4488 20.5295 34.1946 20.5475 34.0255 20.4218C33.8219 20.2877 33.7416 20.0641 33.7645 19.8316C33.8294 19.063 34.6151 16.7122 37.0398 13.4578ZM20.1762 14.897C20.1762 14.897 20.1491 14.9778 20.1358 15.0042C20.1324 15.0042 18.7842 17.1942 18.7842 17.1942C17.9706 18.2762 16.9548 19.6355 15.685 20.2878C15.3086 20.4129 14.7883 20.4936 14.5231 20.1631C13.9611 19.4924 14.2507 18.5625 14.4861 17.8117L14.5695 17.5435C15.2442 15.7199 16.3148 14.1103 17.357 12.6173C17.37 12.6085 17.3991 12.5996 17.4097 12.5996C17.4123 12.6085 17.4164 12.6085 17.4182 12.6265C18.0721 13.8779 19.2982 14.4587 20.2152 14.7274C20.2207 14.7274 20.2267 14.7363 20.2267 14.7542C20.2268 14.7809 20.2119 14.8169 20.1762 14.897ZM21.4534 12.3136C21.4474 12.3315 20.8529 13.6903 20.8529 13.6903C20.7669 13.7618 20.6311 13.7261 20.4753 13.6903L20.2085 13.6454C19.3705 13.3863 18.7384 12.8319 18.5435 12.1704C18.2748 10.883 19.3789 9.87276 19.8653 9.5064C20.3321 9.18427 21.0577 9.01447 21.4791 9.3454C21.739 9.64945 21.8375 10.0427 21.8375 10.4721C21.8376 11.0529 21.6576 11.7055 21.4534 12.3136ZM60.6417 16.4615C60.3427 15.818 59.6332 15.4067 58.877 15.4513C56.4214 15.6749 54.0195 17.6864 52.7583 20.5739C52.0965 22.0581 51.7353 23.2828 51.4985 25.2317C52.2622 24.3558 53.8197 22.9165 55.5872 22.1297C55.5872 22.1297 55.8277 20.2613 57.0541 18.5983C57.5181 17.9097 58.4468 16.8012 59.4896 17.0961C60.4008 17.4002 60.0805 19.9125 58.8695 22.3437C57.9735 24.132 56.6024 25.9205 55.2151 27.154C53.9886 28.191 52.1739 29.4426 50.5862 28.4772C49.5862 27.8874 49.0761 26.6532 49.1838 25.062C49.6616 20.5474 51.7249 16.703 54.6774 12.3224C57.7218 8.25464 61.0778 4.07961 65.5986 1.85314C66.5208 1.38833 67.3747 1.28107 68.1129 1.56717C68.1129 1.56717 63.869 3.89161 61.8461 8.19197C61.3315 9.28285 60.6158 10.7576 61.3365 12.0629C61.7132 12.7423 62.3818 12.796 62.9203 12.7602C65.3999 12.1879 67.002 9.88143 68.3109 7.77174C69.0698 6.17146 69.7443 4.5801 69.7443 2.80989C69.7443 2.59538 69.7332 2.30941 69.715 2.09465C70.8996 1.46908 73.329 2.57742 73.329 2.57742C75.2273 3.20349 79.2694 6.288 80.6329 6.87779C81.298 6.10904 82.3909 4.94694 83.0065 4.36571L82.1155 3.82027C80.6892 2.95306 79.1816 2.13044 77.6978 1.31699C74.3277 -0.51552 71.5845 0.128014 70.1885 0.628743C69.6398 0.825297 69.1385 0.99522 69.1385 0.99522C68.1024 -0.131207 66.4031 -0.0241962 65.1511 0.27998C60.6485 1.56729 56.4681 4.70519 51.9862 10.1499C48.6912 14.4145 46.6472 18.098 45.5578 21.7365C44.7181 24.186 44.4629 27.7888 46.5125 29.9256C48.255 31.7401 50.5657 31.347 52.1973 30.6946C55.7326 28.9602 58.9101 25.223 60.4934 20.9226C60.8755 19.6444 61.2995 17.8385 60.6417 16.4615ZM68.7711 2.98885C68.3031 8.33514 64.131 11.4734 63.0986 11.7233C62.473 11.8483 61.4056 11.5714 62.3586 9.32768C63.7619 6.30559 66.1579 3.74001 68.7284 2.4257C68.7911 2.64925 68.7893 2.79193 68.7711 2.98885ZM93.5195 3.66806C91.2753 4.93778 88.9489 5.76003 86.1328 5.47406C85.3524 6.35042 84.5924 7.2533 83.8921 8.18293C87.8446 9.18427 92.0348 6.95817 94.3719 4.83956C96.8442 2.70276 98.1118 0.0119629 98.1118 0.0119629C98.1118 0.0119629 96.2587 2.12165 93.5195 3.66806ZM51.1075 8.12014H48.1637L46.5031 10.8076H49.4464L51.1075 8.12014Z" fill="#F0F0ED"/>
<path d="M86.1208 28.1629C85.8043 28.3774 85.3596 28.2125 85.5258 27.7209C85.94 26.4693 87.5866 23.9186 87.5866 23.9186L92.1728 15.8163H89.0314C88.882 16.0606 88.5628 16.6216 88.5628 16.6216C88.4175 16.3804 87.9828 15.8443 87.8039 15.7283C87.0364 15.2452 85.9105 15.4736 85.1337 15.9116C81.7563 17.8787 79.2921 21.7652 77.3487 24.7961C77.3487 24.7961 75.3029 28.1652 74.1674 28.4158C73.2808 28.4874 73.3723 27.2978 73.4107 27.0206C73.7535 25.0177 74.5495 23.1136 75.3515 21.3881C76.9828 20.2617 78.8444 18.7866 80.5362 17.1685C84.2078 13.6725 87.3031 9.71202 87.7555 8.82698C87.7555 8.82698 87.2658 8.92544 86.6875 8.94315C83.8629 12.8679 78.0827 18.572 76.3303 19.4211C77.1066 17.5611 82.1223 8.68381 86.3904 4.43732L87.0621 3.79342C88.1007 2.78316 89.1767 1.74616 90.0153 1.57623C90.1039 1.56732 90.2179 1.57623 90.3164 1.78219C90.3538 2.56877 90.0599 3.15001 89.7226 3.8115L89.25 4.77716C89.25 4.77716 89.9194 4.65195 90.3592 4.50854C90.8693 3.5524 91.4344 2.47923 91.226 1.20108C91.1566 0.789773 90.8576 0.476924 90.467 0.405339C89.1938 0.163953 87.8062 1.10238 86.6896 1.86257L86.6446 1.8892C80.9048 6.36828 76.0583 12.8232 71.8208 21.6383C71.5137 21.8704 70.3272 22.1478 70.1256 22.0136C70.544 21.1555 71.0709 20.002 71.3344 18.7503C71.3801 18.3925 71.4225 18.0263 71.4225 17.6687C71.4225 16.8992 71.2371 16.1753 70.5451 15.675C69.7338 15.2726 68.7309 15.4605 68.0547 15.7641C65.0259 17.0158 62.7621 20.1093 61.1284 22.657C60.2498 24.2756 59.3738 26.0091 59.1312 27.9942C58.9604 29.5495 59.3082 30.551 60.1961 31.0517C61.109 31.5163 62.2582 31.0334 62.7096 30.8012C65.7781 29.1919 67.9222 25.9647 69.6122 23.0143C69.6794 23.0055 70.6022 22.9789 71.3002 22.7998C71.3094 22.7998 71.3133 22.7998 71.3288 22.809C71.2888 22.9427 70.9281 24.0159 70.9281 24.0159C69.857 27.1446 69.3617 29.2726 70.3734 30.533C71.8192 32.3122 74.2129 30.4707 76.16 28.0386C75.7421 30.9529 77.2584 31.4092 78.4144 31.1859C79.7422 30.8284 81.2219 29.4155 81.9085 28.6916C81.688 29.5407 81.7479 31.0609 82.9559 31.2126C83.7837 31.3651 84.4034 30.9165 85.1202 30.5319C87.6918 29.1371 90.7702 24.4893 91.5694 23.1456H90.5215C89.3852 24.8562 87.9394 27.0985 86.1208 28.1629ZM63.0379 27.8517C62.8748 27.6101 62.8207 27.3463 62.8153 27.0609C62.784 25.3078 64.6776 22.1686 66.014 20.4583H66.0168C66.5768 21.6799 67.8451 22.4652 68.6107 22.7961C67.6599 24.9062 64.3986 29.4251 63.0379 27.8517ZM69.1475 21.8528C69.057 21.9158 67.4577 21.3791 67.1485 19.904C66.8863 18.634 67.7643 17.6417 68.6137 17.1416C68.9783 16.8553 69.5275 16.7573 69.9303 16.8997C70.3043 17.1505 70.4056 17.5979 70.4056 18.0798C70.4056 18.3754 70.3662 18.6791 70.3315 18.9562L70.3239 19.0189C70.056 20.0101 69.6606 20.9626 69.1475 21.8528ZM81.9752 27.2885C81.9739 27.2885 81.6717 27.5566 81.6717 27.5566C81.2403 27.9409 80.7963 28.3521 80.2604 28.1464C80.1123 28.0929 80.0082 27.8964 79.9832 27.7439C79.9588 26.6442 80.4559 25.6253 80.9381 24.633L81.0617 24.3737C82.4485 22.0672 84.0605 19.3494 86.4279 17.4633C86.8268 17.1765 87.2598 16.9356 87.7167 17.1235C87.8218 17.2217 87.9442 17.3917 87.9442 17.5613C87.9442 17.6152 87.8961 17.7581 87.8685 17.8027C87.2073 18.8671 86.5776 19.9844 85.9653 21.0572C84.7686 23.176 83.5271 25.366 81.9752 27.2885Z" fill="#F0F0ED"/>
</g>
</svg>
