<svg width="130" height="27" viewBox="0 0 130 27" fill="none" xmlns="http://www.w3.org/2000/svg">
<g opacity="0.64">
<path d="M28.772 26.9972H37.214C39.9408 26.9972 40.4176 25.2081 40.5726 23.5745C40.7128 22.1004 42.6449 0 42.6449 0H34.2483C31.8569 0 31.0186 1.37248 30.8205 3.62134C30.7223 4.74237 28.772 26.9972 28.772 26.9972Z" fill="#F0F0ED"/>
<path d="M87.1105 20.6661H84.1697L85.9781 0H74.4676C74.4676 0 72.5036 22.861 72.3867 23.9974C72.2698 25.1337 73.3965 26.9972 75.3848 26.9972H95.326C97.0402 26.9972 98.1942 25.6179 98.3105 24.2874C98.4275 22.9569 100.429 0 100.429 0H88.9183L87.1105 20.6661Z" fill="#F0F0ED"/>
<path d="M5.24622 0.00226919C3.18977 0.00226919 2.06647 1.06824 1.85248 3.57877C1.74634 4.82921 1.02661 12.9426 0.933526 14.113C0.841006 15.284 1.2775 16.308 2.73682 16.308H15.2282L14.7843 21.3846H11.8083L12.0132 19.0455H0.501576C0.501576 19.0455 0.172931 23.0875 0.0264878 24.4798C-0.12109 25.8727 0.317103 27 2.1255 27C3.93334 27 21.1302 26.9994 22.5742 26.9994C25.8118 26.9994 25.977 24.6206 26.1654 22.8207C26.3403 21.1553 27.0032 13.2974 27.0895 12.3069C27.1758 11.3175 26.4759 10.692 25.528 10.692H12.7438L13.1876 5.61478H16.1625L15.9598 7.95446H27.4698C27.4698 7.95446 27.8365 3.43119 27.9665 2.15748C28.097 0.884333 27.4408 0 26.0979 0C24.7544 0 6.45749 0.00226919 5.24622 0.00226919Z" fill="#F0F0ED"/>
<path d="M55.6536 16.3068H58.5944L58.1488 21.3841H55.2098L55.6536 16.3068ZM59.5281 5.61422L59.0854 10.6909H56.1458L56.5896 5.61422H59.5281ZM45.5706 0L43.2083 26.9972H66.2401C68.1796 26.9972 69.274 25.7887 69.4516 23.7067C69.5237 22.8621 69.7809 19.9997 69.9869 17.6464C70.0607 16.8024 69.8609 16.0594 69.1326 15.523C68.5071 15.0615 66.42 13.5221 66.42 13.5221C66.42 13.5221 69.0259 11.8176 69.7042 11.3771C70.3814 10.9367 70.6266 10.3935 70.7095 9.35079C70.9002 7.00032 71.1505 4.31269 71.2078 3.56856C71.3594 1.62166 70.265 0 67.9168 0H45.5706Z" fill="#F0F0ED"/>
<path d="M113.737 13.0323L114.323 6.33451H117.248L116.662 13.0323H113.737ZM126.107 0C124.823 0 103.366 0.00170297 103.366 0.00170297L101.005 26.9983H112.515L113.246 18.6465H116.17L115.44 26.9977H126.951C126.951 26.9977 127.454 21.0594 127.546 20.1847C127.639 19.3095 127.46 18.3917 126.624 17.7752C125.788 17.1594 123.999 15.8397 123.999 15.8397C123.999 15.8397 126.335 14.3321 127.074 13.8303C127.814 13.3292 128.199 12.7962 128.328 11.2608C128.458 9.72484 128.947 4.24855 129.024 3.22629C129.156 1.46102 127.668 0 126.107 0Z" fill="#F0F0ED"/>
</g>
</svg>
