<svg width="122" height="19" viewBox="0 0 122 19" fill="none" xmlns="http://www.w3.org/2000/svg"><path fill-rule="evenodd" clip-rule="evenodd" d="M3.268 3.196C9.696.354 19.365 9.597 24.039 1.443 13.84 4.259 8.606-4.374 3.268 3.196zm-1.78 6.561c6.428-2.815 16.123 6.428 20.772-1.753-10.173 2.842-15.406-5.79-20.772 1.753zM0 16.69c6.402-2.815 16.097 6.428 20.745-1.753C10.572 17.779 5.339 9.147 0 16.69zm32.964-6.349a6.077 6.077 0 00-2.762-1.115c-.186-.027-.372-.027-.558-.054h-.982c-.106 0-.186 0-.265.027h-.186l.186-.664 1.54-5.365h.85c.186 0 .425.026.718.052.265.027.557.054.85.133.504.133.955.426 1.381.85.399.399.664 1.063.77 1.966h.478l1.142-3.878h-11.29l-.186.584h.266c.371 0 .717.054 1.008.16.293.107.452.345.452.718 0 .053-.026.133-.026.212-.03.104-.049.21-.053.318 0 .054-.027.08-.027.08v.053c-.053.107-.053.186-.08.266 0 .08-.026.133-.053.16l-3.081 10.757c-.16.612-.399 1.09-.665 1.435-.292.372-.796.53-1.567.53H20.4l-.159.612h8.155c1.54-.053 2.842-.477 4.01-1.248 1.196-.798 1.808-2.02 1.808-3.613 0-1.382-.399-2.364-1.249-2.976zm-3.347 5.79a4.825 4.825 0 01-1.222.798 3.67 3.67 0 01-1.593.345h-.213c-.08 0-.16 0-.213-.026h-.239a.822.822 0 00-.213-.053l2.02-7.093c.052-.027.132-.027.212-.027h.319a3.104 3.104 0 011.646.532c.505.318.745.983.745 1.94 0 1.646-.425 2.842-1.249 3.584zm92.118 1.435a1.11 1.11 0 01-.665-.212c-.184-.133-.265-.505-.265-1.142v-.32c0-.079 0-.185.027-.318l1.009-13.6h-.584l-10.147 13.31c-.69.903-1.248 1.487-1.673 1.78-.345.238-.664.397-.93.45a1.482 1.482 0 01-.903-.531 6.575 6.575 0 01-.664-1.195c0-.027-3.241-7.331-3.241-7.331l4.09-3.852c.718-.717 1.329-1.168 1.807-1.38.478-.24.93-.346 1.274-.346h.081l.159-.584h-5.207l-.159.584h.159c.24 0 .399.054.479.16.132.106.186.24.238.372a.371.371 0 01.054.16c0 .053.026.106.026.16 0 .211-.08.424-.186.637-.132.186-.239.345-.371.478-.08.08-.133.159-.186.212-.08.053-.132.08-.186.133l-4.569 4.33h-.08l1.355-4.674c.186-.718.425-1.196.718-1.515.291-.292.77-.45 1.487-.45l.159-.585h-7.013l-.159.584h.24c.584 0 .983.08 1.169.24.211.132.291.371.291.637 0 .186-.026.345-.053.531a83.41 83.41 0 01-.16.558l-3.08 10.757c-.213.692-.452 1.196-.744 1.514-.133.16-.319.266-.558.345-.266.08-.558.107-.903.107h-.425l-.186.61h7.304l.16-.61h-.133c-.558 0-.93-.08-1.141-.213a.825.825 0 01-.293-.664c0-.16.026-.345.053-.531.054-.16.106-.345.16-.558l1.513-5.205h.053l2.364 5.419c.053.133.106.265.133.371.027.133.027.24.027.345 0 .32-.08.584-.266.771-.186.187-.452.265-.798.265h-.184l-.213.611h10.811l.186-.61h-.293c-.318 0-.558-.08-.691-.16-.159-.133-.239-.239-.291-.371 0-.08-.027-.133-.027-.186 0-.054-.027-.107-.027-.16 0-.08.054-.186.106-.318.053-.133.107-.266.213-.399.026-.053.053-.08.08-.132.025-.053.052-.08.079-.133.08-.106.132-.186.212-.292.054-.08.106-.16.159-.212l1.382-1.834h3.825l-.159 2.126a4.71 4.71 0 01-.293 1.407c-.132.32-.399.531-.85.611a3.24 3.24 0 01-.531.054h-.132l-.186.61h6.242l.186-.61h-.265v-.005zm-3.957-5.1h-3.189l3.559-4.701h.08l-.45 4.701zm-27.175 4.941c-.291-.106-.45-.345-.45-.718 0-.08.026-.212.053-.372.027-.159.079-.397.186-.717l3.08-10.757c.187-.717.426-1.195.745-1.514a1.4 1.4 0 01.558-.32 2.97 2.97 0 01.903-.132h.425l.159-.584H89.01l-.211.584h.132c.477 0 .85.053 1.089.212.24.106.345.345.345.664v.133c0 .08-.027.16-.027.213-.026.08-.026.133-.053.212v.133l-8.048 9.005h-.106l2.47-8.605c.185-.585.398-1.063.665-1.435.291-.345.796-.53 1.566-.53h.266l.16-.585h-7.253l-.213.584h.293c.558 0 .93.08 1.143.24.186.132.291.371.291.637 0 .186-.027.345-.08.531-.03.189-.075.376-.132.558l-3.082 10.757c-.185.692-.425 1.196-.744 1.515-.079.08-.159.133-.266.212-.318.16-.716.239-1.194.239h-.452l-.16.61h7.28l.185-.61h-.107c-.397 0-.744-.054-1.035-.16-.293-.106-.425-.344-.425-.717 0-.053 0-.133.026-.213 0-.079.027-.185.054-.291v-.054c.026-.053.026-.08.026-.08 0-.079.026-.132.026-.185.027-.053.053-.08.053-.133l8.102-9.243h.08l-2.576 9.11c-.213.692-.479 1.196-.77 1.515-.32.292-.798.45-1.462.45h-.292l-.16.612h7.28l.185-.611h-.266a3.024 3.024 0 01-1.01-.16zM77.216 5.135a5.9 5.9 0 01.107 1.036v.61h.477l1.196-4.488H67.23l-1.356 4.489h.48c.423-.904 1.061-1.7 1.911-2.418.851-.744 1.86-1.115 2.975-1.195l-3.56 12.43c-.025.027-.025.054-.052.107 0 .026 0 .053-.027.08-.159.557-.371.983-.638 1.3-.238.32-.796.479-1.593.479h-.585l-.185.61h8.048l.16-.61h-.557c-.399 0-.771-.08-1.064-.16-.291-.106-.424-.344-.424-.717 0-.026 0-.106.027-.213 0-.105.025-.185.052-.318 0-.027 0-.053.027-.053v-.08c.027-.106.053-.185.053-.266.027-.078.027-.132.053-.159l3.56-12.43h.159c.69 0 1.301.239 1.833.717.319.293.557.718.689 1.25zM65.502 2.877h.425l.186-.584H53.657l-.213.584h.345c.452 0 .824.134 1.089.372.292.266.425.611.425 1.062 0 .186-.026.346-.08.532-.053.186-.132.372-.185.557 0 .054-.027.107-.027.133-.027.08-.053.107-.053.16l-.611 2.204c-.16.478-.32 1.063-.505 1.7-.185.638-.398 1.275-.611 1.966-.16.425-.292.877-.452 1.275-.16.425-.292.823-.451 1.222-.16.371-.293.717-.425 1.036-.16.318-.292.611-.452.824-.053.132-.132.211-.186.318-.08.106-.132.212-.212.292-.12.138-.253.262-.399.372a.623.623 0 01-.424.133c-.16 0-.292-.054-.32-.186a1.34 1.34 0 01-.079-.451v-.266c0-.027-.026-.053-.026-.08v-.026c0-.027 0-.027-.027-.054-.027-.212-.16-.424-.372-.637-.212-.186-.505-.293-.903-.293a1.49 1.49 0 00-1.036.399c-.292.292-.451.664-.451 1.142 0 .372.106.691.265.983-.24-.027-.425-.08-.611-.212-.186-.133-.266-.505-.266-1.142v-.32c0-.079 0-.185.027-.318l1.008-13.6h-.584l-10.173 13.31c-.69.903-1.248 1.487-1.673 1.78-.027.025-.053.052-.106.078a2.83 2.83 0 01-1.01.425l-.186.611h4.702l.186-.61h-.292c-.346 0-.584-.08-.717-.16-.133-.133-.24-.24-.266-.372-.027-.08-.027-.133-.027-.186-.026-.053-.026-.106-.026-.16 0-.079.026-.185.08-.317.06-.139.13-.272.212-.399.053-.053.08-.08.08-.132.052-.054.079-.08.106-.133.053-.107.133-.186.212-.293.053-.079.106-.159.16-.211l1.38-1.834h3.852l-.186 2.126a4.729 4.729 0 01-.292 1.407c-.133.319-.399.53-.85.611a3.225 3.225 0 01-.531.053h-.133l-.186.611h6.242l.107-.318c0 .026.026.026.052.053.345.345.824.505 1.434.505.904 0 1.7-.266 2.312-.771.61-.478 1.195-1.354 1.752-2.63.345-.796.718-1.806 1.116-2.947.372-1.196.77-2.577 1.248-4.171l1.329-4.728h3.691L56.922 15.6c-.213.692-.451 1.196-.744 1.515-.292.292-.77.45-1.488.45h-.425l-.16.612h7.438l.16-.611h-.265c-.559 0-.93-.08-1.143-.213a.824.824 0 01-.292-.664c0-.16.027-.345.053-.531.054-.16.107-.345.16-.558l3.081-10.757c.213-.718.452-1.196.744-1.515.267-.265.718-.425 1.329-.45l.132-.002zm-22.125 9.589h-3.188l3.56-4.701h.08l-.452 4.701z" fill="#F0F0ED" opacity=".64"/></svg>