<svg width="99" height="32" viewBox="0 0 99 32" fill="none" xmlns="http://www.w3.org/2000/svg"><g opacity=".64" fill="#F0F0ED"><path d="M37.676 27.915c-3.65-2.343-8.605-2.754-16.596-.546-8.518 1.994-11.358 3.272-15.088.706-1.433-1.26-1.946-3.29-1.563-6.213.89-4.765 3.295-9.351 7.566-14.438 2.383-2.646 4.595-4.917 7.515-5.83 2.238-.571 2.028 1.18 1.758 1.431-.286 0-.766.045-1.137.286-.301.233-1.128.984-1.172 1.994-.064 1.546 1.543 1.225 2.236.375.747-.956 1.85-2.789.982-4.497-.364-.607-.993-1.028-1.773-1.17C17.73-.14 15.24 1.13 12.94 2.532 7.915 6.011 3.896 10.83 1.62 16.105.308 19.288-.878 23.846.9 27.557c1.376 2.575 4.231 3.942 7.638 3.656 2.39-.25 5.279-1.019 7.222-1.483 1.943-.466 11.89-3.872 15.159 2.056 0 0 1.086-2.101 3.802-2.146 2.234-.205 5.455.644 7.8 2.36-.78-1.17-2.996-2.896-4.845-4.085z"/><path d="M22.095 8.022c-1.86-1.216-5.6 1.109-8.595 5.096-2.739 3.576-3.921 7.733-2.634 9.655 1.914 2.262 5.468-1.028 6.98-2.789l.195-.206c1.028-1.1 1.822-2.422 2.59-3.692l.74-1.216c.437-.08.963-.206 1.556-.375-.009.026-2.268 3.808-2.037 5.685.072.573.017 2.665 2.067 3.3 2.733.456 4.915-1.655 6.84-3.532l.514-.491-.108.437c-.8 2.771.278 3.353.953 3.568 2.039.59 4.475-2.36 4.483-2.36-.064.929-.248 1.698.735 2.315.929.33 1.868-.174 2.582-.648 2.573-1.806 4.645-4.632 6.319-7.075h-1.068c-.012 0-2.634 3.785-4.337 4.608-.003 0-.313.158-.491.033-.221-.188-.134-.578.003-.855.008-.018 6.574-11.36 6.574-11.36h-3.1s-.339.546-.367.581c-.02-.017-.07-.111-.104-.156-1.92-2.646-6.27 1.424-9.544 6.144-1.261 1.815-2.866 3.859-4.53 5.334 0 0-2.466 2.251-3.52.634-.384-.68-.266-1.674-.049-2.326 1.227-3.478 3.34-6.634 5.745-8.538.68-.527 1.417-.68 1.783-.456.35.206.406.715.185 1.063-.56-.017-1.009.152-1.374.528-.718.75-.968 1.475-.74 2.155 1.11 1.573 3.324-1.538 3.217-3.434-.038-.68-.402-1.323-.945-1.636-.81-.482-2.045-.357-2.844.027-1.07.402-2.764 1.806-3.752 2.897-1.245 1.368-3.38 2.888-4.047 2.717.219-.58 2.021-4.255.125-5.632zm14.945 5.436c.603-.832 2.358-3.058 2.786-3.433 1.439-1.261 2.014-.706 2.064-.313a282.194 282.194 0 01-4.419 7.608c.003-.009-.466.706-.466.706-.658 1.001-1.321 1.86-2.402 2.459-.154.044-.408.063-.578-.063-.203-.134-.283-.358-.26-.59.064-.769.85-3.12 3.275-6.374zm-16.864 1.439s-.027.08-.04.107c-.004 0-1.352 2.19-1.352 2.19-.813 1.082-1.83 2.442-3.099 3.094-.376.125-.897.206-1.162-.125-.562-.67-.272-1.6-.037-2.351l.083-.268c.675-1.824 1.746-3.434 2.788-4.927a.137.137 0 01.053-.017c.002.008.006.008.008.027.654 1.25 1.88 1.832 2.797 2.1.006 0 .012.01.012.027a.438.438 0 01-.05.143zm1.277-2.583c-.006.018-.6 1.376-.6 1.376-.086.072-.222.036-.378 0l-.267-.045c-.837-.259-1.47-.813-1.664-1.475-.27-1.287.835-2.297 1.321-2.664.467-.322 1.193-.492 1.614-.16.26.303.358.697.358 1.126 0 .58-.18 1.234-.384 1.842zm39.189 4.148c-.3-.644-1.009-1.055-1.765-1.01-2.456.223-4.858 2.234-6.119 5.122-.662 1.484-1.023 2.709-1.26 4.658.764-.876 2.322-2.316 4.09-3.102 0 0 .24-1.869 1.466-3.532.464-.688 1.393-1.797 2.436-1.502.91.304.59 2.817-.62 5.248-.896 1.788-2.268 3.576-3.655 4.81-1.226 1.037-3.041 2.289-4.629 1.323-1-.59-1.51-1.824-1.402-3.415.478-4.515 2.54-8.359 5.493-12.74 3.045-4.067 6.4-8.242 10.922-10.469.922-.465 1.776-.572 2.514-.286 0 0-4.244 2.325-6.267 6.625-.514 1.09-1.23 2.566-.51 3.87.377.68 1.046.734 1.584.698 2.48-.572 4.082-2.879 5.39-4.988.76-1.6 1.434-3.192 1.434-4.962 0-.215-.01-.5-.029-.715 1.185-.626 3.614.482 3.614.482 1.898.626 5.94 3.711 7.304 4.3.665-.768 1.758-1.93 2.374-2.511l-.892-.546c-1.426-.867-2.933-1.69-4.417-2.503-3.37-1.833-6.113-1.189-7.51-.688a74.1 74.1 0 01-1.05.366C68.102-.13 66.403-.025 65.151.28c-4.502 1.287-8.683 4.425-13.165 9.87-3.295 4.264-5.339 7.948-6.428 11.586-.84 2.45-1.095 6.053.955 8.19 1.742 1.814 4.053 1.421 5.684.769 3.536-1.735 6.713-5.472 8.296-9.772.383-1.279.806-3.084.149-4.461zm8.13-13.473c-.469 5.346-4.641 8.484-5.673 8.734-.626.125-1.693-.152-.74-2.395 1.403-3.022 3.799-5.588 6.37-6.902.062.223.06.366.042.563zm24.747.68c-2.244 1.269-4.57 2.091-7.386 1.805a43.18 43.18 0 00-2.24 2.709c3.952 1.001 8.142-1.225 10.479-3.343 2.472-2.137 3.74-4.828 3.74-4.828s-1.853 2.11-4.593 3.656zM51.107 8.12h-2.943l-1.66 2.688h2.942l1.662-2.688z"/><path d="M86.12 28.163c-.316.214-.76.05-.594-.442.414-1.252 2.06-3.802 2.06-3.802l4.587-8.103H89.03c-.149.245-.468.806-.468.806-.145-.242-.58-.778-.76-.894-.767-.483-1.892-.254-2.67.184-3.377 1.967-5.84 5.853-7.784 8.884 0 0-2.046 3.37-3.182 3.62-.886.071-.795-1.118-.756-1.395.343-2.003 1.138-3.907 1.94-5.633a43.4 43.4 0 005.185-4.22c3.672-3.495 6.767-7.456 7.22-8.341 0 0-.49.098-1.069.116-2.824 3.925-8.604 9.629-10.357 10.478.777-1.86 5.792-10.737 10.06-14.984l.672-.644c1.039-1.01 2.115-2.047 2.953-2.217.089-.009.203 0 .301.206.038.787-.256 1.368-.593 2.03l-.473.965s.67-.125 1.11-.268c.51-.957 1.074-2.03.866-3.308a.95.95 0 00-.759-.796c-1.273-.241-2.66.697-3.777 1.458l-.045.026c-5.74 4.48-10.587 10.934-14.824 19.75-.307.231-1.494.509-1.695.375.418-.858.945-2.012 1.208-3.264a8.63 8.63 0 00.088-1.081c0-.77-.185-1.494-.877-1.994-.811-.402-1.814-.215-2.49.09-3.03 1.25-5.293 4.344-6.927 6.892-.878 1.619-1.754 3.352-1.997 5.337-.17 1.555.177 2.557 1.065 3.058.913.464 2.062-.019 2.514-.25 3.068-1.61 5.212-4.837 6.902-7.788.067-.008.99-.035 1.688-.214.01 0 .013 0 .029.009-.04.134-.4 1.207-.4 1.207-1.072 3.129-1.567 5.257-.556 6.517 1.446 1.78 3.84-.062 5.787-2.494-.418 2.914 1.098 3.37 2.254 3.147 1.328-.358 2.808-1.77 3.495-2.494-.221.849-.161 2.369 1.047 2.52.828.153 1.447-.296 2.164-.68 2.572-1.395 5.65-6.043 6.45-7.386h-1.048c-1.137 1.71-2.583 3.953-4.401 5.017zm-23.082-.311c-.163-.242-.217-.506-.223-.791-.031-1.753 1.863-4.892 3.199-6.603h.003c.56 1.222 1.828 2.007 2.594 2.338-.951 2.11-4.212 6.63-5.573 5.056zm6.11-6c-.091.064-1.69-.473-2-1.948-.262-1.27.616-2.262 1.466-2.762.364-.287.913-.385 1.316-.242.374.25.476.698.476 1.18 0 .295-.04.6-.075.876l-.007.063a11.884 11.884 0 01-1.177 2.834zm12.827 5.436l-.303.269c-.432.384-.876.795-1.412.59-.148-.054-.252-.25-.277-.403-.024-1.1.473-2.119.955-3.111l.124-.26c1.386-2.306 2.999-5.024 5.366-6.91.399-.287.832-.527 1.289-.34.105.099.227.269.227.438a.738.738 0 01-.076.242c-.66 1.064-1.29 2.181-1.903 3.254-1.196 2.119-2.438 4.309-3.99 6.232z"/></g></svg>