<svg width="130" height="27" viewBox="0 0 130 27" fill="none" xmlns="http://www.w3.org/2000/svg"><path d="M28.772 26.997h8.442c2.727 0 3.204-1.789 3.359-3.422C40.713 22.1 42.645 0 42.645 0h-8.397c-2.391 0-3.23 1.372-3.427 3.621l-2.049 23.376zm58.338-6.331h-2.94L85.978 0h-11.51s-1.964 22.861-2.081 23.997c-.117 1.137 1.01 3 2.998 3h19.941c1.714 0 2.868-1.38 2.985-2.71L100.428 0h-11.51L87.11 20.666zM5.246.002c-2.056 0-3.18 1.066-3.394 3.577-.106 1.25-.825 9.364-.918 10.534-.093 1.171.344 2.195 1.803 2.195h12.491l-.444 5.077h-2.976l.205-2.34H.502s-.33 4.042-.476 5.435C-.12 25.873.317 27 2.126 27h20.448c3.238 0 3.403-2.38 3.591-4.18.175-1.665.838-9.523.925-10.513.086-.99-.614-1.615-1.562-1.615H12.744l.444-5.077h2.975l-.203 2.34h11.51s.367-4.524.497-5.798C28.096.884 27.44 0 26.096 0L5.248.002zm50.408 16.305h2.94l-.445 5.077h-2.94l.445-5.077zm3.874-10.693l-.443 5.077h-2.94l.445-5.077h2.938zM45.571 0l-2.363 26.997H66.24c1.94 0 3.034-1.208 3.212-3.29.072-.845.329-3.707.535-6.06.074-.845-.126-1.588-.854-2.124l-2.713-2s2.606-1.705 3.284-2.146c.677-.44.923-.984 1.006-2.026.19-2.35.44-5.038.498-5.782C71.359 1.622 70.265 0 67.917 0H45.57zm68.166 13.032l.586-6.697h2.925l-.586 6.697h-2.925zM126.107 0l-22.741.002-2.361 26.996h11.51l.731-8.352h2.924l-.73 8.352h11.511s.503-5.939.595-6.813c.093-.875-.086-1.793-.922-2.41l-2.625-1.935s2.336-1.508 3.075-2.01c.74-.5 1.125-1.034 1.254-2.57.13-1.535.619-7.011.696-8.034.132-1.765-1.356-3.226-2.917-3.226z" opacity=".64" fill="#F0F0ED"/></svg>