<svg width="32" height="32" viewBox="0 0 32 32" fill="none" xmlns="http://www.w3.org/2000/svg">
<path d="M26.6668 11.92C26.6529 11.7975 26.6261 11.6768 26.5868 11.56V11.44C26.5227 11.3029 26.4372 11.1768 26.3335 11.0666L18.3335 3.06663C18.2233 2.96291 18.0973 2.8774 17.9602 2.81329H17.8402C17.7047 2.73561 17.5551 2.68575 17.4002 2.66663H9.3335C8.27263 2.66663 7.25521 3.08805 6.50507 3.8382C5.75492 4.58834 5.3335 5.60576 5.3335 6.66663V25.3333C5.3335 26.3942 5.75492 27.4116 6.50507 28.1617C7.25521 28.9119 8.27263 29.3333 9.3335 29.3333H22.6668C23.7277 29.3333 24.7451 28.9119 25.4953 28.1617C26.2454 27.4116 26.6668 26.3942 26.6668 25.3333V12C26.6668 12 26.6668 12 26.6668 11.92ZM18.6668 7.21329L22.1202 10.6666H20.0002C19.6465 10.6666 19.3074 10.5262 19.0574 10.2761C18.8073 10.0261 18.6668 9.68691 18.6668 9.33329V7.21329ZM24.0002 25.3333C24.0002 25.6869 23.8597 26.0261 23.6096 26.2761C23.3596 26.5262 23.0205 26.6666 22.6668 26.6666H9.3335C8.97987 26.6666 8.64074 26.5262 8.39069 26.2761C8.14064 26.0261 8.00016 25.6869 8.00016 25.3333V6.66663C8.00016 6.313 8.14064 5.97387 8.39069 5.72382C8.64074 5.47377 8.97987 5.33329 9.3335 5.33329H16.0002V9.33329C16.0002 10.3942 16.4216 11.4116 17.1717 12.1617C17.9219 12.9119 18.9393 13.3333 20.0002 13.3333H24.0002V25.3333Z" fill="#467C3F"/>
</svg>
