<svg width="32" height="32" viewBox="0 0 32 32" fill="none" xmlns="http://www.w3.org/2000/svg">
<path d="M8.53355 20.3378V9.42222H21.6891L23.0935 8H7.11133V20.3378H8.53355Z" fill="#467C3F"/>
<path d="M5.33344 6.22224H26.6668V20.4445H28.4446V5.77779C28.4446 5.42417 28.3041 5.08503 28.054 4.83498C27.804 4.58493 27.4648 4.44446 27.1112 4.44446H4.889C4.53538 4.44446 4.19624 4.58493 3.94619 4.83498C3.69614 5.08503 3.55566 5.42417 3.55566 5.77779V20.4445H5.33344V6.22224Z" fill="#467C3F"/>
<path d="M0.888672 22.2222V25.2444C0.888672 25.8573 1.13216 26.4452 1.56558 26.8786C1.999 27.312 2.58684 27.5555 3.19978 27.5555H28.7465C29.3594 27.5555 29.9472 27.312 30.3807 26.8786C30.8141 26.4452 31.0576 25.8573 31.0576 25.2444V22.2222H0.888672ZM29.3331 25.2444C29.3331 25.3858 29.2769 25.5215 29.1769 25.6215C29.0769 25.7215 28.9412 25.7777 28.7998 25.7777H3.16423C3.02278 25.7777 2.88712 25.7215 2.7871 25.6215C2.68708 25.5215 2.63089 25.3858 2.63089 25.2444V23.5822H11.4753C11.5865 23.8444 11.772 24.0683 12.0089 24.2263C12.2459 24.3842 12.5239 24.4693 12.8087 24.4711H19.1465C19.4312 24.4693 19.7093 24.3842 19.9462 24.2263C20.1832 24.0683 20.3687 23.8444 20.4798 23.5822H29.3331V25.2444Z" fill="#467C3F"/>
</svg>
