<svg width="32" height="32" viewBox="0 0 32 32" fill="none" xmlns="http://www.w3.org/2000/svg">
<g clip-path="url(#clip0_1628_2339)">
<path d="M20.5002 10C21.1924 10 21.8691 9.79473 22.4447 9.41015C23.0203 9.02556 23.4689 8.47894 23.7338 7.83939C23.9987 7.19985 24.068 6.49612 23.9329 5.81719C23.7979 5.13825 23.4645 4.51461 22.9751 4.02513C22.4856 3.53564 21.8619 3.2023 21.183 3.06725C20.5041 2.9322 19.8003 3.00152 19.1608 3.26642C18.5213 3.53133 17.9746 3.97993 17.59 4.55551C17.2055 5.13108 17.0002 5.80777 17.0002 6.5C17.0035 7.42725 17.3733 8.31557 18.029 8.97124C18.6846 9.6269 19.5729 9.99671 20.5002 10ZM20.5002 5C20.7969 5 21.0869 5.08798 21.3335 5.2528C21.5802 5.41762 21.7725 5.65189 21.886 5.92598C21.9995 6.20007 22.0292 6.50167 21.9714 6.79264C21.9135 7.08361 21.7706 7.35088 21.5608 7.56066C21.3511 7.77044 21.0838 7.9133 20.7928 7.97118C20.5019 8.02906 20.2003 7.99935 19.9262 7.88582C19.6521 7.77229 19.4178 7.58003 19.253 7.33336C19.0882 7.08668 19.0002 6.79667 19.0002 6.5C19.0002 6.10218 19.1582 5.72065 19.4395 5.43934C19.7208 5.15804 20.1024 5 20.5002 5ZM31.8627 24.4875L24.7252 12.4375C24.5463 12.1398 24.2934 11.8935 23.9911 11.7225C23.6889 11.5515 23.3475 11.4616 23.0002 11.4616C22.6529 11.4616 22.3115 11.5515 22.0092 11.7225C21.707 11.8935 21.4541 12.1398 21.2752 12.4375L18.0127 17.95L12.7252 8.9625C12.5487 8.66175 12.2967 8.41236 11.9941 8.23907C11.6915 8.06578 11.3489 7.97462 11.0002 7.97462C10.6515 7.97462 10.3089 8.06578 10.0063 8.23907C9.70367 8.41236 9.45165 8.66175 9.27519 8.9625L0.137687 24.4875C0.0462998 24.6406 -0.00195312 24.8155 -0.00195312 24.9938C-0.00195313 25.172 0.0462998 25.347 0.137687 25.5C0.223158 25.6532 0.348398 25.7806 0.500198 25.8686C0.651999 25.9566 0.824734 26.002 1.00019 26H31.0002C31.177 26.0003 31.3508 25.9543 31.5043 25.8666C31.6578 25.7789 31.7857 25.6525 31.8752 25.5C31.9598 25.3442 32.003 25.1694 32.0009 24.9921C31.9987 24.8149 31.9511 24.6411 31.8627 24.4875ZM11.0002 9.975L13.9627 15H8.03769L11.0002 9.975ZM2.75019 24L6.86269 17H15.1377L17.1502 20.425L19.2502 24H2.75019ZM21.5752 24L19.1752 19.925L23.0002 13.4625L29.2502 24H21.5752Z" fill="#467C3F"/>
</g>
<defs>
<clipPath id="clip0_1628_2339">
<rect width="32" height="32" fill="white"/>
</clipPath>
</defs>
</svg>
