<svg width="32" height="32" viewBox="0 0 32 32" fill="none" xmlns="http://www.w3.org/2000/svg">
<path d="M27.75 24.75H6.25V5.25C6.25 5.1125 6.1375 5 6 5H4.25C4.1125 5 4 5.1125 4 5.25V26.75C4 26.8875 4.1125 27 4.25 27H27.75C27.8875 27 28 26.8875 28 26.75V25C28 24.8625 27.8875 24.75 27.75 24.75ZM9 22.25H10.75C10.8875 22.25 11 22.1375 11 22V17.5C11 17.3625 10.8875 17.25 10.75 17.25H9C8.8625 17.25 8.75 17.3625 8.75 17.5V22C8.75 22.1375 8.8625 22.25 9 22.25ZM13.75 22.25H15.5C15.6375 22.25 15.75 22.1375 15.75 22V12C15.75 11.8625 15.6375 11.75 15.5 11.75H13.75C13.6125 11.75 13.5 11.8625 13.5 12V22C13.5 22.1375 13.6125 22.25 13.75 22.25ZM18.5 22.25H20.25C20.3875 22.25 20.5 22.1375 20.5 22V14.4375C20.5 14.3 20.3875 14.1875 20.25 14.1875H18.5C18.3625 14.1875 18.25 14.3 18.25 14.4375V22C18.25 22.1375 18.3625 22.25 18.5 22.25ZM23.25 22.25H25C25.1375 22.25 25.25 22.1375 25.25 22V9.5C25.25 9.3625 25.1375 9.25 25 9.25H23.25C23.1125 9.25 23 9.3625 23 9.5V22C23 22.1375 23.1125 22.25 23.25 22.25Z" fill="#467C3F"/>
</svg>
