<svg width="32" height="32" viewBox="0 0 32 32" fill="none" xmlns="http://www.w3.org/2000/svg">
<path d="M3.99984 12.0001C4.35346 12.0001 4.6926 11.8596 4.94265 11.6096C5.19269 11.3595 5.33317 11.0204 5.33317 10.6667V6.66675C5.33317 6.31313 5.47365 5.97399 5.7237 5.72394C5.97374 5.47389 6.31288 5.33341 6.6665 5.33341H10.6665C11.0201 5.33341 11.3593 5.19294 11.6093 4.94289C11.8594 4.69284 11.9998 4.3537 11.9998 4.00008C11.9998 3.64646 11.8594 3.30732 11.6093 3.05727C11.3593 2.80722 11.0201 2.66675 10.6665 2.66675H6.6665C5.60564 2.66675 4.58822 3.08818 3.83808 3.83832C3.08793 4.58847 2.6665 5.60588 2.6665 6.66675V10.6667C2.6665 11.0204 2.80698 11.3595 3.05703 11.6096C3.30708 11.8596 3.64622 12.0001 3.99984 12.0001ZM10.6665 26.6667H6.6665C6.31288 26.6667 5.97374 26.5263 5.7237 26.2762C5.47365 26.0262 5.33317 25.687 5.33317 25.3334V21.3334C5.33317 20.9798 5.19269 20.6407 4.94265 20.3906C4.6926 20.1406 4.35346 20.0001 3.99984 20.0001C3.64622 20.0001 3.30708 20.1406 3.05703 20.3906C2.80698 20.6407 2.6665 20.9798 2.6665 21.3334V25.3334C2.6665 26.3943 3.08793 27.4117 3.83808 28.1618C4.58822 28.912 5.60564 29.3334 6.6665 29.3334H10.6665C11.0201 29.3334 11.3593 29.1929 11.6093 28.9429C11.8594 28.6928 11.9998 28.3537 11.9998 28.0001C11.9998 27.6465 11.8594 27.3073 11.6093 27.0573C11.3593 26.8072 11.0201 26.6667 10.6665 26.6667ZM15.9998 10.6667C14.945 10.6667 13.9139 10.9795 13.0368 11.5656C12.1597 12.1516 11.4761 12.9846 11.0725 13.9591C10.6688 14.9336 10.5632 16.006 10.769 17.0406C10.9748 18.0751 11.4827 19.0254 12.2286 19.7713C12.9745 20.5172 13.9248 21.0252 14.9594 21.2309C15.9939 21.4367 17.0663 21.3311 18.0408 20.9274C19.0154 20.5238 19.8483 19.8402 20.4343 18.9631C21.0204 18.0861 21.3332 17.0549 21.3332 16.0001C21.3332 14.5856 20.7713 13.229 19.7711 12.2288C18.7709 11.2287 17.4143 10.6667 15.9998 10.6667ZM15.9998 18.6667C15.4724 18.6667 14.9568 18.5104 14.5183 18.2173C14.0798 17.9243 13.738 17.5078 13.5362 17.0206C13.3343 16.5333 13.2815 15.9971 13.3844 15.4798C13.4873 14.9626 13.7413 14.4874 14.1142 14.1145C14.4872 13.7415 14.9623 13.4875 15.4796 13.3847C15.9969 13.2818 16.5331 13.3346 17.0203 13.5364C17.5076 13.7382 17.9241 14.08 18.2171 14.5186C18.5101 14.9571 18.6665 15.4727 18.6665 16.0001C18.6665 16.7073 18.3856 17.3856 17.8855 17.8857C17.3854 18.3858 16.7071 18.6667 15.9998 18.6667ZM25.3332 2.66675H21.3332C20.9795 2.66675 20.6404 2.80722 20.3904 3.05727C20.1403 3.30732 19.9998 3.64646 19.9998 4.00008C19.9998 4.3537 20.1403 4.69284 20.3904 4.94289C20.6404 5.19294 20.9795 5.33341 21.3332 5.33341H25.3332C25.6868 5.33341 26.0259 5.47389 26.276 5.72394C26.526 5.97399 26.6665 6.31313 26.6665 6.66675V10.6667C26.6665 11.0204 26.807 11.3595 27.057 11.6096C27.3071 11.8596 27.6462 12.0001 27.9998 12.0001C28.3535 12.0001 28.6926 11.8596 28.9426 11.6096C29.1927 11.3595 29.3332 11.0204 29.3332 10.6667V6.66675C29.3332 5.60588 28.9117 4.58847 28.1616 3.83832C27.4115 3.08818 26.394 2.66675 25.3332 2.66675ZM27.9998 20.0001C27.6462 20.0001 27.3071 20.1406 27.057 20.3906C26.807 20.6407 26.6665 20.9798 26.6665 21.3334V25.3334C26.6665 25.687 26.526 26.0262 26.276 26.2762C26.0259 26.5263 25.6868 26.6667 25.3332 26.6667H21.3332C20.9795 26.6667 20.6404 26.8072 20.3904 27.0573C20.1403 27.3073 19.9998 27.6465 19.9998 28.0001C19.9998 28.3537 20.1403 28.6928 20.3904 28.9429C20.6404 29.1929 20.9795 29.3334 21.3332 29.3334H25.3332C26.394 29.3334 27.4115 28.912 28.1616 28.1618C28.9117 27.4117 29.3332 26.3943 29.3332 25.3334V21.3334C29.3332 20.9798 29.1927 20.6407 28.9426 20.3906C28.6926 20.1406 28.3535 20.0001 27.9998 20.0001Z" fill="#467C3F"/>
</svg>
